G04 #@! TF.GenerationSoftware,KiCad,Pcbnew,5.1.5-52549c5~84~ubuntu19.04.1*
G04 #@! TF.CreationDate,2019-12-02T22:34:05+01:00*
G04 #@! TF.ProjectId,XbeeTestBench,58626565-5465-4737-9442-656e63682e6b,rev?*
G04 #@! TF.SameCoordinates,Original*
G04 #@! TF.FileFunction,Copper,L2,Bot*
G04 #@! TF.FilePolarity,Positive*
%FSLAX46Y46*%
G04 Gerber Fmt 4.6, Leading zero omitted, Abs format (unit mm)*
G04 Created by KiCad (PCBNEW 5.1.5-52549c5~84~ubuntu19.04.1) date 2019-12-02 22:34:05*
%MOMM*%
%LPD*%
G04 APERTURE LIST*
%ADD10C,2.000000*%
%ADD11C,1.700000*%
%ADD12O,1.700000X1.700000*%
%ADD13R,1.700000X1.700000*%
%ADD14C,0.100000*%
%ADD15O,1.600000X1.600000*%
%ADD16R,1.600000X1.600000*%
%ADD17C,1.000000*%
%ADD18C,0.700000*%
%ADD19C,0.254000*%
G04 APERTURE END LIST*
D10*
X126540000Y-48000000D03*
X121460000Y-48000000D03*
D11*
X165000000Y-91000000D03*
X163000000Y-91000000D03*
X161000000Y-91000000D03*
X159000000Y-91000000D03*
X157000000Y-91000000D03*
X155000000Y-91000000D03*
X153000000Y-91000000D03*
X151000000Y-91000000D03*
X149000000Y-91000000D03*
X147000000Y-91000000D03*
X147000000Y-69000000D03*
X149000000Y-69000000D03*
X151000000Y-69000000D03*
X153000000Y-69000000D03*
X155000000Y-69000000D03*
X157000000Y-69000000D03*
X159000000Y-69000000D03*
X161000000Y-69000000D03*
X163000000Y-69000000D03*
X165000000Y-69000000D03*
D12*
X127000000Y-60000000D03*
X127000000Y-62540000D03*
X127000000Y-65080000D03*
X127000000Y-67620000D03*
X127000000Y-70160000D03*
X127000000Y-72700000D03*
X127000000Y-75240000D03*
X127000000Y-77780000D03*
X127000000Y-80320000D03*
X127000000Y-82860000D03*
X127000000Y-85400000D03*
X127000000Y-87940000D03*
X127000000Y-90480000D03*
X127000000Y-93020000D03*
D13*
X127000000Y-95560000D03*
D12*
X98000000Y-95560000D03*
X98000000Y-93020000D03*
X98000000Y-90480000D03*
X98000000Y-87940000D03*
X98000000Y-85400000D03*
X98000000Y-82860000D03*
X98000000Y-80320000D03*
X98000000Y-77780000D03*
X98000000Y-75240000D03*
X98000000Y-72700000D03*
X98000000Y-70160000D03*
X98000000Y-67620000D03*
X98000000Y-65080000D03*
X98000000Y-62540000D03*
D13*
X98000000Y-60000000D03*
D12*
X140000000Y-80000000D03*
X140000000Y-77460000D03*
X140000000Y-74920000D03*
X140000000Y-72380000D03*
X140000000Y-69840000D03*
D13*
X140000000Y-67300000D03*
G04 #@! TA.AperFunction,SMDPad,CuDef*
D14*
G36*
X162487004Y-59126204D02*
G01*
X162511273Y-59129804D01*
X162535071Y-59135765D01*
X162558171Y-59144030D01*
X162580349Y-59154520D01*
X162601393Y-59167133D01*
X162621098Y-59181747D01*
X162639277Y-59198223D01*
X162655753Y-59216402D01*
X162670367Y-59236107D01*
X162682980Y-59257151D01*
X162693470Y-59279329D01*
X162701735Y-59302429D01*
X162707696Y-59326227D01*
X162711296Y-59350496D01*
X162712500Y-59375000D01*
X162712500Y-60625000D01*
X162711296Y-60649504D01*
X162707696Y-60673773D01*
X162701735Y-60697571D01*
X162693470Y-60720671D01*
X162682980Y-60742849D01*
X162670367Y-60763893D01*
X162655753Y-60783598D01*
X162639277Y-60801777D01*
X162621098Y-60818253D01*
X162601393Y-60832867D01*
X162580349Y-60845480D01*
X162558171Y-60855970D01*
X162535071Y-60864235D01*
X162511273Y-60870196D01*
X162487004Y-60873796D01*
X162462500Y-60875000D01*
X161537500Y-60875000D01*
X161512996Y-60873796D01*
X161488727Y-60870196D01*
X161464929Y-60864235D01*
X161441829Y-60855970D01*
X161419651Y-60845480D01*
X161398607Y-60832867D01*
X161378902Y-60818253D01*
X161360723Y-60801777D01*
X161344247Y-60783598D01*
X161329633Y-60763893D01*
X161317020Y-60742849D01*
X161306530Y-60720671D01*
X161298265Y-60697571D01*
X161292304Y-60673773D01*
X161288704Y-60649504D01*
X161287500Y-60625000D01*
X161287500Y-59375000D01*
X161288704Y-59350496D01*
X161292304Y-59326227D01*
X161298265Y-59302429D01*
X161306530Y-59279329D01*
X161317020Y-59257151D01*
X161329633Y-59236107D01*
X161344247Y-59216402D01*
X161360723Y-59198223D01*
X161378902Y-59181747D01*
X161398607Y-59167133D01*
X161419651Y-59154520D01*
X161441829Y-59144030D01*
X161464929Y-59135765D01*
X161488727Y-59129804D01*
X161512996Y-59126204D01*
X161537500Y-59125000D01*
X162462500Y-59125000D01*
X162487004Y-59126204D01*
G37*
G04 #@! TD.AperFunction*
G04 #@! TA.AperFunction,SMDPad,CuDef*
G36*
X159512004Y-59126204D02*
G01*
X159536273Y-59129804D01*
X159560071Y-59135765D01*
X159583171Y-59144030D01*
X159605349Y-59154520D01*
X159626393Y-59167133D01*
X159646098Y-59181747D01*
X159664277Y-59198223D01*
X159680753Y-59216402D01*
X159695367Y-59236107D01*
X159707980Y-59257151D01*
X159718470Y-59279329D01*
X159726735Y-59302429D01*
X159732696Y-59326227D01*
X159736296Y-59350496D01*
X159737500Y-59375000D01*
X159737500Y-60625000D01*
X159736296Y-60649504D01*
X159732696Y-60673773D01*
X159726735Y-60697571D01*
X159718470Y-60720671D01*
X159707980Y-60742849D01*
X159695367Y-60763893D01*
X159680753Y-60783598D01*
X159664277Y-60801777D01*
X159646098Y-60818253D01*
X159626393Y-60832867D01*
X159605349Y-60845480D01*
X159583171Y-60855970D01*
X159560071Y-60864235D01*
X159536273Y-60870196D01*
X159512004Y-60873796D01*
X159487500Y-60875000D01*
X158562500Y-60875000D01*
X158537996Y-60873796D01*
X158513727Y-60870196D01*
X158489929Y-60864235D01*
X158466829Y-60855970D01*
X158444651Y-60845480D01*
X158423607Y-60832867D01*
X158403902Y-60818253D01*
X158385723Y-60801777D01*
X158369247Y-60783598D01*
X158354633Y-60763893D01*
X158342020Y-60742849D01*
X158331530Y-60720671D01*
X158323265Y-60697571D01*
X158317304Y-60673773D01*
X158313704Y-60649504D01*
X158312500Y-60625000D01*
X158312500Y-59375000D01*
X158313704Y-59350496D01*
X158317304Y-59326227D01*
X158323265Y-59302429D01*
X158331530Y-59279329D01*
X158342020Y-59257151D01*
X158354633Y-59236107D01*
X158369247Y-59216402D01*
X158385723Y-59198223D01*
X158403902Y-59181747D01*
X158423607Y-59167133D01*
X158444651Y-59154520D01*
X158466829Y-59144030D01*
X158489929Y-59135765D01*
X158513727Y-59129804D01*
X158537996Y-59126204D01*
X158562500Y-59125000D01*
X159487500Y-59125000D01*
X159512004Y-59126204D01*
G37*
G04 #@! TD.AperFunction*
D15*
X120240000Y-95560000D03*
X105000000Y-95560000D03*
X120240000Y-60000000D03*
X105000000Y-93020000D03*
X120240000Y-62540000D03*
X105000000Y-90480000D03*
X120240000Y-65080000D03*
X105000000Y-87940000D03*
X120240000Y-67620000D03*
X105000000Y-85400000D03*
X120240000Y-70160000D03*
X105000000Y-82860000D03*
X120240000Y-72700000D03*
X105000000Y-80320000D03*
X120240000Y-75240000D03*
X105000000Y-77780000D03*
X120240000Y-77780000D03*
X105000000Y-75240000D03*
X120240000Y-80320000D03*
X105000000Y-72700000D03*
X120240000Y-82860000D03*
X105000000Y-70160000D03*
X120240000Y-85400000D03*
X105000000Y-67620000D03*
X120240000Y-87940000D03*
X105000000Y-65080000D03*
X120240000Y-90480000D03*
X105000000Y-62540000D03*
X120240000Y-93020000D03*
D16*
X105000000Y-60000000D03*
D10*
X144000000Y-84000000D03*
X159000000Y-73000000D03*
X146000000Y-100550000D03*
X147000000Y-96000000D03*
X144000000Y-88000000D03*
X144000000Y-73000000D03*
X136550000Y-76000000D03*
X136550000Y-73000000D03*
X111000000Y-66000000D03*
X111000000Y-69000000D03*
X114000000Y-69000000D03*
X114000000Y-66000000D03*
X114000000Y-86000000D03*
X114000000Y-89000000D03*
X117000000Y-89000000D03*
X117000000Y-86000000D03*
X99000000Y-50000000D03*
X102000000Y-50000000D03*
X132000000Y-63000000D03*
X109000000Y-91000000D03*
X132000000Y-66000000D03*
X130903984Y-71096016D03*
X132000000Y-54000000D03*
X94000000Y-75000000D03*
X134000000Y-82000000D03*
X148000000Y-65000000D03*
X144000000Y-63000000D03*
X133000000Y-88000000D03*
X117000000Y-58000000D03*
X159000000Y-64000000D03*
X163000000Y-72000000D03*
X131000000Y-93000000D03*
X147000000Y-56000000D03*
X107000000Y-57000000D03*
D17*
X120240000Y-95560000D02*
X127000000Y-95560000D01*
D18*
X159000000Y-73000000D02*
X159000000Y-69000000D01*
X144000000Y-78920000D02*
X144000000Y-84000000D01*
X140000000Y-74920000D02*
X144000000Y-78920000D01*
D17*
X127000000Y-95560000D02*
X131440000Y-95560000D01*
X132440000Y-95560000D02*
X131440000Y-95560000D01*
X144000000Y-84000000D02*
X132440000Y-95560000D01*
X105000000Y-95560000D02*
X98000000Y-95560000D01*
D18*
X105000000Y-95560000D02*
X109990000Y-100550000D01*
X109990000Y-100550000D02*
X146000000Y-100550000D01*
X147000000Y-96000000D02*
X147000000Y-91000000D01*
X147000000Y-91000000D02*
X144000000Y-88000000D01*
X143380000Y-72380000D02*
X144000000Y-73000000D01*
X140000000Y-72380000D02*
X143380000Y-72380000D01*
D17*
X120240000Y-49220000D02*
X121460000Y-48000000D01*
X120240000Y-60000000D02*
X120240000Y-49220000D01*
X120240000Y-60000000D02*
X127000000Y-60000000D01*
D18*
X159000000Y-91000000D02*
X151000000Y-99000000D01*
X151000000Y-99000000D02*
X119000000Y-99000000D01*
X113020000Y-93020000D02*
X105000000Y-93020000D01*
X119000000Y-99000000D02*
X113020000Y-93020000D01*
D17*
X98000000Y-93020000D02*
X105000000Y-93020000D01*
X120240000Y-62540000D02*
X127000000Y-62540000D01*
X98000000Y-67620000D02*
X105000000Y-67620000D01*
D18*
X110080000Y-62540000D02*
X120240000Y-62540000D01*
X105000000Y-67620000D02*
X110080000Y-62540000D01*
X132000000Y-61000000D02*
X130000000Y-61000000D01*
X133000000Y-61000000D02*
X132000000Y-61000000D01*
X134732806Y-77460000D02*
X140000000Y-77460000D01*
X133900010Y-76627204D02*
X134732806Y-77460000D01*
D17*
X130000000Y-61000000D02*
X133000000Y-61000000D01*
X128460000Y-62540000D02*
X130000000Y-61000000D01*
X127000000Y-62540000D02*
X128460000Y-62540000D01*
X130000000Y-51460000D02*
X126540000Y-48000000D01*
X139660002Y-64000000D02*
X136000000Y-64000000D01*
X144660002Y-69000000D02*
X139660002Y-64000000D01*
X147000000Y-69000000D02*
X144660002Y-69000000D01*
X133000000Y-61000000D02*
X136000000Y-64000000D01*
D18*
X133900010Y-70900010D02*
X133900010Y-76627204D01*
X133900010Y-70900010D02*
X133900009Y-70627203D01*
X130000000Y-66727194D02*
X130000000Y-61000000D01*
X133900009Y-70627203D02*
X130000000Y-66727194D01*
D17*
X151900000Y-52000000D02*
X130000000Y-52000000D01*
X159025000Y-60000000D02*
X159025000Y-59125000D01*
X130000000Y-61000000D02*
X130000000Y-52000000D01*
X159025000Y-59125000D02*
X151900000Y-52000000D01*
X130000000Y-52000000D02*
X130000000Y-51460000D01*
X140000000Y-77460000D02*
X138010000Y-77460000D01*
X138010000Y-77460000D02*
X136550000Y-76000000D01*
X127849999Y-63389999D02*
X127000000Y-62540000D01*
X128550001Y-64090001D02*
X127849999Y-63389999D01*
X128550001Y-65000001D02*
X128550001Y-64090001D01*
X136550000Y-73000000D02*
X128550001Y-65000001D01*
X120240000Y-62540000D02*
X114460000Y-62540000D01*
X114460000Y-62540000D02*
X111000000Y-66000000D01*
X111000000Y-69000000D02*
X114000000Y-69000000D01*
X114000000Y-66000000D02*
X111000000Y-66000000D01*
X114000000Y-69000000D02*
X114000000Y-86000000D01*
X114000000Y-89000000D02*
X117000000Y-89000000D01*
X102700001Y-46299999D02*
X99000000Y-50000000D01*
X126540000Y-48000000D02*
X124839999Y-46299999D01*
X124839999Y-46299999D02*
X102700001Y-46299999D01*
X105000000Y-90480000D02*
X98000000Y-90480000D01*
D18*
X140000000Y-67300000D02*
X136300000Y-67300000D01*
X136300000Y-67300000D02*
X132000000Y-63000000D01*
X105520000Y-91000000D02*
X105000000Y-90480000D01*
X109000000Y-91000000D02*
X105520000Y-91000000D01*
D17*
X120240000Y-65080000D02*
X127000000Y-65080000D01*
X98000000Y-87940000D02*
X105000000Y-87940000D01*
D18*
X133000000Y-71000000D02*
X129620000Y-67620000D01*
X129620000Y-67620000D02*
X127000000Y-67620000D01*
X133000000Y-77000000D02*
X133000000Y-71000000D01*
X140000000Y-80000000D02*
X136000000Y-80000000D01*
X136000000Y-80000000D02*
X133000000Y-77000000D01*
D17*
X120240000Y-67620000D02*
X127000000Y-67620000D01*
X105000000Y-85400000D02*
X98000000Y-85400000D01*
X127000000Y-70160000D02*
X120240000Y-70160000D01*
D18*
X143134002Y-69840000D02*
X146000000Y-72705998D01*
X140000000Y-69840000D02*
X143134002Y-69840000D01*
X146000000Y-72705998D02*
X146000000Y-84000000D01*
X146000000Y-84000000D02*
X150000000Y-88000000D01*
X158000000Y-88000000D02*
X161000000Y-91000000D01*
X150000000Y-88000000D02*
X158000000Y-88000000D01*
X140000000Y-69840000D02*
X135840000Y-69840000D01*
X135840000Y-69840000D02*
X132000000Y-66000000D01*
X127936016Y-71096016D02*
X127000000Y-70160000D01*
X130903984Y-71096016D02*
X127936016Y-71096016D01*
D17*
X98000000Y-82860000D02*
X105000000Y-82860000D01*
X120240000Y-72700000D02*
X127000000Y-72700000D01*
X105000000Y-80320000D02*
X98000000Y-80320000D01*
X127000000Y-75240000D02*
X120240000Y-75240000D01*
X98000000Y-77780000D02*
X105000000Y-77780000D01*
D18*
X145599999Y-67599999D02*
X132000000Y-54000000D01*
X149000000Y-69000000D02*
X147599999Y-67599999D01*
X147599999Y-67599999D02*
X145599999Y-67599999D01*
X98000000Y-77780000D02*
X96780000Y-77780000D01*
X96780000Y-77780000D02*
X94000000Y-75000000D01*
D17*
X120240000Y-77780000D02*
X127000000Y-77780000D01*
D18*
X157000000Y-91000000D02*
X150000000Y-98000000D01*
X119272806Y-98000000D02*
X111272806Y-90000000D01*
X150000000Y-98000000D02*
X119272806Y-98000000D01*
X111272806Y-81512806D02*
X111000000Y-81240000D01*
X111272806Y-90000000D02*
X111272806Y-81512806D01*
X111000000Y-81240000D02*
X111000000Y-78000000D01*
X108240000Y-75240000D02*
X105000000Y-75240000D01*
X111000000Y-78000000D02*
X108240000Y-75240000D01*
D17*
X105000000Y-75240000D02*
X98000000Y-75240000D01*
X127000000Y-80320000D02*
X120240000Y-80320000D01*
X98000000Y-72700000D02*
X105000000Y-72700000D01*
X120240000Y-82860000D02*
X127000000Y-82860000D01*
X105000000Y-70160000D02*
X97840000Y-70160000D01*
X127000000Y-85400000D02*
X120240000Y-85400000D01*
D18*
X127000000Y-85400000D02*
X130600000Y-85400000D01*
X130600000Y-85400000D02*
X134000000Y-82000000D01*
X153000000Y-69000000D02*
X149000000Y-65000000D01*
X149000000Y-65000000D02*
X148000000Y-65000000D01*
D17*
X120240000Y-87940000D02*
X127000000Y-87940000D01*
D18*
X155000000Y-69000000D02*
X149000000Y-63000000D01*
X149000000Y-63000000D02*
X147000000Y-63000000D01*
X127060000Y-88000000D02*
X127000000Y-87940000D01*
X133000000Y-88000000D02*
X127060000Y-88000000D01*
X147000000Y-63000000D02*
X144000000Y-63000000D01*
D17*
X105000000Y-65080000D02*
X98000000Y-65080000D01*
X98000000Y-62540000D02*
X105000000Y-62540000D01*
D18*
X105000000Y-62540000D02*
X109540000Y-58000000D01*
X109540000Y-58000000D02*
X117000000Y-58000000D01*
X163000000Y-68000000D02*
X159000000Y-64000000D01*
X163000000Y-69000000D02*
X163000000Y-68000000D01*
D17*
X120240000Y-93020000D02*
X127000000Y-93020000D01*
X165000000Y-69000000D02*
X165000000Y-65000000D01*
D18*
X165000000Y-69000000D02*
X165000000Y-70000000D01*
X165000000Y-70000000D02*
X163000000Y-72000000D01*
X127020000Y-93000000D02*
X127000000Y-93020000D01*
X131000000Y-93000000D02*
X127020000Y-93000000D01*
D17*
X164550001Y-68550001D02*
X164550001Y-67550001D01*
X165000000Y-69000000D02*
X164550001Y-68550001D01*
X162000000Y-65000000D02*
X162000000Y-60000000D01*
X164550001Y-67550001D02*
X162000000Y-65000000D01*
X98000000Y-60000000D02*
X105000000Y-60000000D01*
D18*
X161000000Y-69000000D02*
X148000000Y-56000000D01*
X148000000Y-56000000D02*
X147000000Y-56000000D01*
X107000000Y-57000000D02*
X105000000Y-59000000D01*
X105000000Y-59000000D02*
X105000000Y-60000000D01*
D19*
G36*
X164873000Y-60083024D02*
G01*
X164873000Y-63872017D01*
X164777502Y-63881423D01*
X164563554Y-63946324D01*
X164366378Y-64051716D01*
X164193552Y-64193551D01*
X164051717Y-64366377D01*
X163946325Y-64563553D01*
X163881424Y-64777501D01*
X163865001Y-64944248D01*
X163865001Y-65259870D01*
X163135000Y-64529869D01*
X163135000Y-61198692D01*
X163200905Y-61118386D01*
X163282972Y-60964850D01*
X163333508Y-60798254D01*
X163350572Y-60625000D01*
X163350572Y-59375000D01*
X163333508Y-59201746D01*
X163282972Y-59035150D01*
X163200905Y-58881614D01*
X163090462Y-58747038D01*
X162955886Y-58636595D01*
X162802350Y-58554528D01*
X162635754Y-58503992D01*
X162462500Y-58486928D01*
X161537500Y-58486928D01*
X161364246Y-58503992D01*
X161197650Y-58554528D01*
X161044114Y-58636595D01*
X160909538Y-58747038D01*
X160799095Y-58881614D01*
X160717028Y-59035150D01*
X160666492Y-59201746D01*
X160649428Y-59375000D01*
X160649428Y-60625000D01*
X160666492Y-60798254D01*
X160717028Y-60964850D01*
X160799095Y-61118386D01*
X160865001Y-61198693D01*
X160865000Y-64472000D01*
X160621567Y-64228567D01*
X160635000Y-64161033D01*
X160635000Y-63838967D01*
X160572168Y-63523088D01*
X160448918Y-63225537D01*
X160269987Y-62957748D01*
X160042252Y-62730013D01*
X159774463Y-62551082D01*
X159476912Y-62427832D01*
X159161033Y-62365000D01*
X158838967Y-62365000D01*
X158523088Y-62427832D01*
X158225537Y-62551082D01*
X157957748Y-62730013D01*
X157730013Y-62957748D01*
X157551082Y-63225537D01*
X157427832Y-63523088D01*
X157365000Y-63838967D01*
X157365000Y-63972000D01*
X154268000Y-60875000D01*
X157674428Y-60875000D01*
X157686688Y-60999482D01*
X157722998Y-61119180D01*
X157781963Y-61229494D01*
X157861315Y-61326185D01*
X157958006Y-61405537D01*
X158068320Y-61464502D01*
X158188018Y-61500812D01*
X158312500Y-61513072D01*
X158739250Y-61510000D01*
X158898000Y-61351250D01*
X158898000Y-60127000D01*
X159152000Y-60127000D01*
X159152000Y-61351250D01*
X159310750Y-61510000D01*
X159737500Y-61513072D01*
X159861982Y-61500812D01*
X159981680Y-61464502D01*
X160091994Y-61405537D01*
X160188685Y-61326185D01*
X160268037Y-61229494D01*
X160327002Y-61119180D01*
X160363312Y-60999482D01*
X160375572Y-60875000D01*
X160372500Y-60285750D01*
X160213750Y-60127000D01*
X159152000Y-60127000D01*
X158898000Y-60127000D01*
X157836250Y-60127000D01*
X157677500Y-60285750D01*
X157674428Y-60875000D01*
X154268000Y-60875000D01*
X152518000Y-59125000D01*
X157674428Y-59125000D01*
X157677500Y-59714250D01*
X157836250Y-59873000D01*
X158898000Y-59873000D01*
X158898000Y-58648750D01*
X159152000Y-58648750D01*
X159152000Y-59873000D01*
X160213750Y-59873000D01*
X160372500Y-59714250D01*
X160375572Y-59125000D01*
X160363312Y-59000518D01*
X160327002Y-58880820D01*
X160268037Y-58770506D01*
X160188685Y-58673815D01*
X160091994Y-58594463D01*
X159981680Y-58535498D01*
X159861982Y-58499188D01*
X159737500Y-58486928D01*
X159310750Y-58490000D01*
X159152000Y-58648750D01*
X158898000Y-58648750D01*
X158739250Y-58490000D01*
X158312500Y-58486928D01*
X158188018Y-58499188D01*
X158068320Y-58535498D01*
X157958006Y-58594463D01*
X157861315Y-58673815D01*
X157781963Y-58770506D01*
X157722998Y-58880820D01*
X157686688Y-59000518D01*
X157674428Y-59125000D01*
X152518000Y-59125000D01*
X148730716Y-55337716D01*
X148699870Y-55300130D01*
X148549884Y-55177040D01*
X148378767Y-55085576D01*
X148349458Y-55076685D01*
X148269987Y-54957748D01*
X148042252Y-54730013D01*
X147774463Y-54551082D01*
X147476912Y-54427832D01*
X147161033Y-54365000D01*
X146838967Y-54365000D01*
X146523088Y-54427832D01*
X146225537Y-54551082D01*
X145957748Y-54730013D01*
X145730013Y-54957748D01*
X145551082Y-55225537D01*
X145427832Y-55523088D01*
X145365000Y-55838967D01*
X145365000Y-56161033D01*
X145427832Y-56476912D01*
X145551082Y-56774463D01*
X145730013Y-57042252D01*
X145957748Y-57269987D01*
X146225537Y-57448918D01*
X146523088Y-57572168D01*
X146838967Y-57635000D01*
X147161033Y-57635000D01*
X147476912Y-57572168D01*
X147774463Y-57448918D01*
X147943183Y-57336183D01*
X157480000Y-66873000D01*
X154266000Y-66873000D01*
X149730716Y-62337716D01*
X149699870Y-62300130D01*
X149549884Y-62177040D01*
X149378767Y-62085576D01*
X149193094Y-62029253D01*
X149048380Y-62015000D01*
X149000000Y-62010235D01*
X148951620Y-62015000D01*
X145308242Y-62015000D01*
X145269987Y-61957748D01*
X145042252Y-61730013D01*
X144774463Y-61551082D01*
X144476912Y-61427832D01*
X144161033Y-61365000D01*
X143838967Y-61365000D01*
X143523088Y-61427832D01*
X143225537Y-61551082D01*
X142957748Y-61730013D01*
X142730013Y-61957748D01*
X142551082Y-62225537D01*
X142427832Y-62523088D01*
X142365000Y-62838967D01*
X142365000Y-62972000D01*
X133621567Y-54228567D01*
X133635000Y-54161033D01*
X133635000Y-53838967D01*
X133572168Y-53523088D01*
X133448918Y-53225537D01*
X133269987Y-52957748D01*
X133042252Y-52730013D01*
X132774463Y-52551082D01*
X132476912Y-52427832D01*
X132161033Y-52365000D01*
X131838967Y-52365000D01*
X131523088Y-52427832D01*
X131225537Y-52551082D01*
X130957748Y-52730013D01*
X130730013Y-52957748D01*
X130551082Y-53225537D01*
X130427832Y-53523088D01*
X130365000Y-53838967D01*
X130365000Y-54161033D01*
X130427832Y-54476912D01*
X130551082Y-54774463D01*
X130730013Y-55042252D01*
X130957748Y-55269987D01*
X131225537Y-55448918D01*
X131523088Y-55572168D01*
X131838967Y-55635000D01*
X132161033Y-55635000D01*
X132228567Y-55621567D01*
X144869283Y-68262283D01*
X144873000Y-68266812D01*
X144873000Y-70185998D01*
X143864718Y-69177716D01*
X143833872Y-69140130D01*
X143683886Y-69017040D01*
X143512769Y-68925576D01*
X143327096Y-68869253D01*
X143182382Y-68855000D01*
X143134002Y-68850235D01*
X143085622Y-68855000D01*
X141115107Y-68855000D01*
X141021620Y-68761513D01*
X141094180Y-68739502D01*
X141204494Y-68680537D01*
X141301185Y-68601185D01*
X141380537Y-68504494D01*
X141439502Y-68394180D01*
X141475812Y-68274482D01*
X141488072Y-68150000D01*
X141488072Y-66450000D01*
X141475812Y-66325518D01*
X141439502Y-66205820D01*
X141380537Y-66095506D01*
X141301185Y-65998815D01*
X141204494Y-65919463D01*
X141094180Y-65860498D01*
X140974482Y-65824188D01*
X140850000Y-65811928D01*
X139150000Y-65811928D01*
X139025518Y-65824188D01*
X138905820Y-65860498D01*
X138795506Y-65919463D01*
X138698815Y-65998815D01*
X138619463Y-66095506D01*
X138560498Y-66205820D01*
X138527379Y-66315000D01*
X136708000Y-66315000D01*
X133621567Y-63228567D01*
X133635000Y-63161033D01*
X133635000Y-62838967D01*
X133572168Y-62523088D01*
X133448918Y-62225537D01*
X133269987Y-61957748D01*
X133042252Y-61730013D01*
X132774463Y-61551082D01*
X132476912Y-61427832D01*
X132161033Y-61365000D01*
X131838967Y-61365000D01*
X131523088Y-61427832D01*
X131225537Y-61551082D01*
X130957748Y-61730013D01*
X130730013Y-61957748D01*
X130551082Y-62225537D01*
X130427832Y-62523088D01*
X130365000Y-62838967D01*
X130365000Y-63161033D01*
X130427832Y-63476912D01*
X130551082Y-63774463D01*
X130730013Y-64042252D01*
X130957748Y-64269987D01*
X131225537Y-64448918D01*
X131348860Y-64500000D01*
X131225537Y-64551082D01*
X130957748Y-64730013D01*
X130730013Y-64957748D01*
X130551082Y-65225537D01*
X130427832Y-65523088D01*
X130365000Y-65838967D01*
X130365000Y-66161033D01*
X130427832Y-66476912D01*
X130551082Y-66774463D01*
X130730013Y-67042252D01*
X130957748Y-67269987D01*
X131225537Y-67448918D01*
X131523088Y-67572168D01*
X131838967Y-67635000D01*
X132161033Y-67635000D01*
X132228567Y-67621567D01*
X135109284Y-70502284D01*
X135140130Y-70539870D01*
X135290116Y-70662960D01*
X135461233Y-70754424D01*
X135646906Y-70810747D01*
X135839999Y-70829765D01*
X135888379Y-70825000D01*
X138884893Y-70825000D01*
X139053368Y-70993475D01*
X139227760Y-71110000D01*
X139053368Y-71226525D01*
X138846525Y-71433368D01*
X138684010Y-71676589D01*
X138572068Y-71946842D01*
X138515000Y-72233740D01*
X138515000Y-72526260D01*
X138572068Y-72813158D01*
X138684010Y-73083411D01*
X138846525Y-73326632D01*
X139053368Y-73533475D01*
X139227760Y-73650000D01*
X139053368Y-73766525D01*
X138846525Y-73973368D01*
X138684010Y-74216589D01*
X138572068Y-74486842D01*
X138515000Y-74773740D01*
X138515000Y-75066260D01*
X138572068Y-75353158D01*
X138684010Y-75623411D01*
X138846525Y-75866632D01*
X139053368Y-76073475D01*
X139235534Y-76195195D01*
X139118645Y-76264822D01*
X138902412Y-76459731D01*
X138728359Y-76693080D01*
X138603175Y-76955901D01*
X138558524Y-77103110D01*
X138679845Y-77333000D01*
X139873000Y-77333000D01*
X139873000Y-77313000D01*
X140127000Y-77313000D01*
X140127000Y-77333000D01*
X140147000Y-77333000D01*
X140147000Y-77587000D01*
X140127000Y-77587000D01*
X140127000Y-77607000D01*
X139873000Y-77607000D01*
X139873000Y-77587000D01*
X138679845Y-77587000D01*
X138558524Y-77816890D01*
X138603175Y-77964099D01*
X138728359Y-78226920D01*
X138902412Y-78460269D01*
X139118645Y-78655178D01*
X139235534Y-78724805D01*
X139053368Y-78846525D01*
X138884893Y-79015000D01*
X136408001Y-79015000D01*
X133985000Y-76592000D01*
X133985000Y-71048380D01*
X133989765Y-71000000D01*
X133970747Y-70806906D01*
X133914424Y-70621233D01*
X133913286Y-70619104D01*
X133822960Y-70450116D01*
X133699870Y-70300130D01*
X133662290Y-70269289D01*
X130350716Y-66957716D01*
X130319870Y-66920130D01*
X130169884Y-66797040D01*
X129998767Y-66705576D01*
X129813094Y-66649253D01*
X129668380Y-66635000D01*
X129620000Y-66630235D01*
X129571620Y-66635000D01*
X128115107Y-66635000D01*
X127946632Y-66466525D01*
X127772240Y-66350000D01*
X127946632Y-66233475D01*
X128153475Y-66026632D01*
X128315990Y-65783411D01*
X128427932Y-65513158D01*
X128485000Y-65226260D01*
X128485000Y-64933740D01*
X128427932Y-64646842D01*
X128315990Y-64376589D01*
X128153475Y-64133368D01*
X127946632Y-63926525D01*
X127764466Y-63804805D01*
X127881355Y-63735178D01*
X128097588Y-63540269D01*
X128271641Y-63306920D01*
X128396825Y-63044099D01*
X128441476Y-62896890D01*
X128320155Y-62667000D01*
X127127000Y-62667000D01*
X127127000Y-62687000D01*
X126873000Y-62687000D01*
X126873000Y-62667000D01*
X125679845Y-62667000D01*
X125558524Y-62896890D01*
X125603175Y-63044099D01*
X125728359Y-63306920D01*
X125902412Y-63540269D01*
X126118645Y-63735178D01*
X126235534Y-63804805D01*
X126053368Y-63926525D01*
X126034893Y-63945000D01*
X121124284Y-63945000D01*
X120919727Y-63808320D01*
X120909135Y-63803933D01*
X121095131Y-63692385D01*
X121303519Y-63503414D01*
X121471037Y-63277420D01*
X121591246Y-63023087D01*
X121631904Y-62889039D01*
X121509915Y-62667000D01*
X120367000Y-62667000D01*
X120367000Y-62687000D01*
X120113000Y-62687000D01*
X120113000Y-62667000D01*
X118970085Y-62667000D01*
X118848096Y-62889039D01*
X118888754Y-63023087D01*
X119008963Y-63277420D01*
X119176481Y-63503414D01*
X119384869Y-63692385D01*
X119570865Y-63803933D01*
X119560273Y-63808320D01*
X119325241Y-63965363D01*
X119125363Y-64165241D01*
X118968320Y-64400273D01*
X118860147Y-64661426D01*
X118805000Y-64938665D01*
X118805000Y-65221335D01*
X118860147Y-65498574D01*
X118968320Y-65759727D01*
X119125363Y-65994759D01*
X119325241Y-66194637D01*
X119557759Y-66350000D01*
X119325241Y-66505363D01*
X119125363Y-66705241D01*
X118968320Y-66940273D01*
X118860147Y-67201426D01*
X118805000Y-67478665D01*
X118805000Y-67761335D01*
X118860147Y-68038574D01*
X118968320Y-68299727D01*
X119125363Y-68534759D01*
X119325241Y-68734637D01*
X119557759Y-68890000D01*
X119325241Y-69045363D01*
X119125363Y-69245241D01*
X118968320Y-69480273D01*
X118860147Y-69741426D01*
X118805000Y-70018665D01*
X118805000Y-70301335D01*
X118860147Y-70578574D01*
X118968320Y-70839727D01*
X119125363Y-71074759D01*
X119325241Y-71274637D01*
X119557759Y-71430000D01*
X119325241Y-71585363D01*
X119125363Y-71785241D01*
X118968320Y-72020273D01*
X118860147Y-72281426D01*
X118805000Y-72558665D01*
X118805000Y-72841335D01*
X118860147Y-73118574D01*
X118968320Y-73379727D01*
X119125363Y-73614759D01*
X119325241Y-73814637D01*
X119557759Y-73970000D01*
X119325241Y-74125363D01*
X119125363Y-74325241D01*
X118968320Y-74560273D01*
X118860147Y-74821426D01*
X118805000Y-75098665D01*
X118805000Y-75381335D01*
X118860147Y-75658574D01*
X118968320Y-75919727D01*
X119125363Y-76154759D01*
X119325241Y-76354637D01*
X119557759Y-76510000D01*
X119325241Y-76665363D01*
X119125363Y-76865241D01*
X118968320Y-77100273D01*
X118860147Y-77361426D01*
X118805000Y-77638665D01*
X118805000Y-77921335D01*
X118860147Y-78198574D01*
X118968320Y-78459727D01*
X119125363Y-78694759D01*
X119325241Y-78894637D01*
X119557759Y-79050000D01*
X119325241Y-79205363D01*
X119125363Y-79405241D01*
X118968320Y-79640273D01*
X118860147Y-79901426D01*
X118805000Y-80178665D01*
X118805000Y-80461335D01*
X118860147Y-80738574D01*
X118968320Y-80999727D01*
X119125363Y-81234759D01*
X119325241Y-81434637D01*
X119557759Y-81590000D01*
X119325241Y-81745363D01*
X119125363Y-81945241D01*
X118968320Y-82180273D01*
X118860147Y-82441426D01*
X118805000Y-82718665D01*
X118805000Y-83001335D01*
X118860147Y-83278574D01*
X118968320Y-83539727D01*
X119125363Y-83774759D01*
X119325241Y-83974637D01*
X119557759Y-84130000D01*
X119325241Y-84285363D01*
X119125363Y-84485241D01*
X118968320Y-84720273D01*
X118860147Y-84981426D01*
X118805000Y-85258665D01*
X118805000Y-85541335D01*
X118860147Y-85818574D01*
X118968320Y-86079727D01*
X119125363Y-86314759D01*
X119325241Y-86514637D01*
X119557759Y-86670000D01*
X119325241Y-86825363D01*
X119125363Y-87025241D01*
X118968320Y-87260273D01*
X118860147Y-87521426D01*
X118805000Y-87798665D01*
X118805000Y-88081335D01*
X118860147Y-88358574D01*
X118968320Y-88619727D01*
X119125363Y-88854759D01*
X119325241Y-89054637D01*
X119557759Y-89210000D01*
X119325241Y-89365363D01*
X119125363Y-89565241D01*
X118968320Y-89800273D01*
X118860147Y-90061426D01*
X118805000Y-90338665D01*
X118805000Y-90621335D01*
X118860147Y-90898574D01*
X118968320Y-91159727D01*
X119125363Y-91394759D01*
X119325241Y-91594637D01*
X119557759Y-91750000D01*
X119325241Y-91905363D01*
X119125363Y-92105241D01*
X118968320Y-92340273D01*
X118860147Y-92601426D01*
X118805000Y-92878665D01*
X118805000Y-93161335D01*
X118860147Y-93438574D01*
X118968320Y-93699727D01*
X119125363Y-93934759D01*
X119325241Y-94134637D01*
X119557759Y-94290000D01*
X119325241Y-94445363D01*
X119125363Y-94645241D01*
X118968320Y-94880273D01*
X118860147Y-95141426D01*
X118805000Y-95418665D01*
X118805000Y-95701335D01*
X118860147Y-95978574D01*
X118968320Y-96239727D01*
X119094751Y-96428945D01*
X112257806Y-89592000D01*
X112257806Y-81561186D01*
X112262571Y-81512806D01*
X112243553Y-81319712D01*
X112228258Y-81269291D01*
X112187230Y-81134039D01*
X112095766Y-80962922D01*
X111985000Y-80827953D01*
X111985000Y-78048377D01*
X111989765Y-77999999D01*
X111982017Y-77921335D01*
X111970747Y-77806906D01*
X111914424Y-77621233D01*
X111822960Y-77450116D01*
X111699870Y-77300130D01*
X111662284Y-77269284D01*
X108970716Y-74577716D01*
X108939870Y-74540130D01*
X108789884Y-74417040D01*
X108618767Y-74325576D01*
X108433094Y-74269253D01*
X108288380Y-74255000D01*
X108240000Y-74250235D01*
X108191620Y-74255000D01*
X106044396Y-74255000D01*
X105914759Y-74125363D01*
X105682241Y-73970000D01*
X105914759Y-73814637D01*
X106114637Y-73614759D01*
X106271680Y-73379727D01*
X106379853Y-73118574D01*
X106435000Y-72841335D01*
X106435000Y-72558665D01*
X106379853Y-72281426D01*
X106271680Y-72020273D01*
X106114637Y-71785241D01*
X105914759Y-71585363D01*
X105682241Y-71430000D01*
X105914759Y-71274637D01*
X106114637Y-71074759D01*
X106271680Y-70839727D01*
X106379853Y-70578574D01*
X106435000Y-70301335D01*
X106435000Y-70018665D01*
X106379853Y-69741426D01*
X106271680Y-69480273D01*
X106114637Y-69245241D01*
X105914759Y-69045363D01*
X105679727Y-68888320D01*
X105669135Y-68883933D01*
X105855131Y-68772385D01*
X106063519Y-68583414D01*
X106231037Y-68357420D01*
X106351246Y-68103087D01*
X106391904Y-67969039D01*
X106269915Y-67747000D01*
X105127000Y-67747000D01*
X105127000Y-67767000D01*
X104873000Y-67767000D01*
X104873000Y-67747000D01*
X103730085Y-67747000D01*
X103608096Y-67969039D01*
X103648754Y-68103087D01*
X103768963Y-68357420D01*
X103936481Y-68583414D01*
X104144869Y-68772385D01*
X104330865Y-68883933D01*
X104320273Y-68888320D01*
X104115716Y-69025000D01*
X98965107Y-69025000D01*
X98946632Y-69006525D01*
X98764466Y-68884805D01*
X98881355Y-68815178D01*
X99097588Y-68620269D01*
X99271641Y-68386920D01*
X99396825Y-68124099D01*
X99441476Y-67976890D01*
X99320155Y-67747000D01*
X98127000Y-67747000D01*
X98127000Y-67767000D01*
X97873000Y-67767000D01*
X97873000Y-67747000D01*
X96679845Y-67747000D01*
X96558524Y-67976890D01*
X96603175Y-68124099D01*
X96728359Y-68386920D01*
X96902412Y-68620269D01*
X97118645Y-68815178D01*
X97235534Y-68884805D01*
X97053368Y-69006525D01*
X96846525Y-69213368D01*
X96684010Y-69456589D01*
X96572068Y-69726842D01*
X96515000Y-70013740D01*
X96515000Y-70306260D01*
X96572068Y-70593158D01*
X96684010Y-70863411D01*
X96846525Y-71106632D01*
X97053368Y-71313475D01*
X97227760Y-71430000D01*
X97053368Y-71546525D01*
X96846525Y-71753368D01*
X96684010Y-71996589D01*
X96572068Y-72266842D01*
X96515000Y-72553740D01*
X96515000Y-72846260D01*
X96572068Y-73133158D01*
X96684010Y-73403411D01*
X96846525Y-73646632D01*
X97053368Y-73853475D01*
X97227760Y-73970000D01*
X97053368Y-74086525D01*
X96846525Y-74293368D01*
X96684010Y-74536589D01*
X96572068Y-74806842D01*
X96515000Y-75093740D01*
X96515000Y-75386260D01*
X96572068Y-75673158D01*
X96684010Y-75943411D01*
X96846525Y-76186632D01*
X97053368Y-76393475D01*
X97227760Y-76510000D01*
X97053368Y-76626525D01*
X97036447Y-76643446D01*
X95621567Y-75228566D01*
X95635000Y-75161033D01*
X95635000Y-74838967D01*
X95572168Y-74523088D01*
X95448918Y-74225537D01*
X95269987Y-73957748D01*
X95042252Y-73730013D01*
X94774463Y-73551082D01*
X94476912Y-73427832D01*
X94161033Y-73365000D01*
X93838967Y-73365000D01*
X93523088Y-73427832D01*
X93225537Y-73551082D01*
X92957748Y-73730013D01*
X92730013Y-73957748D01*
X92685000Y-74025115D01*
X92685000Y-59150000D01*
X96511928Y-59150000D01*
X96511928Y-60850000D01*
X96524188Y-60974482D01*
X96560498Y-61094180D01*
X96619463Y-61204494D01*
X96698815Y-61301185D01*
X96795506Y-61380537D01*
X96905820Y-61439502D01*
X96978380Y-61461513D01*
X96846525Y-61593368D01*
X96684010Y-61836589D01*
X96572068Y-62106842D01*
X96515000Y-62393740D01*
X96515000Y-62686260D01*
X96572068Y-62973158D01*
X96684010Y-63243411D01*
X96846525Y-63486632D01*
X97053368Y-63693475D01*
X97227760Y-63810000D01*
X97053368Y-63926525D01*
X96846525Y-64133368D01*
X96684010Y-64376589D01*
X96572068Y-64646842D01*
X96515000Y-64933740D01*
X96515000Y-65226260D01*
X96572068Y-65513158D01*
X96684010Y-65783411D01*
X96846525Y-66026632D01*
X97053368Y-66233475D01*
X97235534Y-66355195D01*
X97118645Y-66424822D01*
X96902412Y-66619731D01*
X96728359Y-66853080D01*
X96603175Y-67115901D01*
X96558524Y-67263110D01*
X96679845Y-67493000D01*
X97873000Y-67493000D01*
X97873000Y-67473000D01*
X98127000Y-67473000D01*
X98127000Y-67493000D01*
X99320155Y-67493000D01*
X99441476Y-67263110D01*
X99396825Y-67115901D01*
X99271641Y-66853080D01*
X99097588Y-66619731D01*
X98881355Y-66424822D01*
X98764466Y-66355195D01*
X98946632Y-66233475D01*
X98965107Y-66215000D01*
X104115716Y-66215000D01*
X104320273Y-66351680D01*
X104330865Y-66356067D01*
X104144869Y-66467615D01*
X103936481Y-66656586D01*
X103768963Y-66882580D01*
X103648754Y-67136913D01*
X103608096Y-67270961D01*
X103730085Y-67493000D01*
X104873000Y-67493000D01*
X104873000Y-67473000D01*
X105127000Y-67473000D01*
X105127000Y-67493000D01*
X106269915Y-67493000D01*
X106391904Y-67270961D01*
X106351246Y-67136913D01*
X106231037Y-66882580D01*
X106063519Y-66656586D01*
X105855131Y-66467615D01*
X105669135Y-66356067D01*
X105679727Y-66351680D01*
X105914759Y-66194637D01*
X106114637Y-65994759D01*
X106271680Y-65759727D01*
X106379853Y-65498574D01*
X106435000Y-65221335D01*
X106435000Y-64938665D01*
X106379853Y-64661426D01*
X106271680Y-64400273D01*
X106114637Y-64165241D01*
X105914759Y-63965363D01*
X105682241Y-63810000D01*
X105914759Y-63654637D01*
X106114637Y-63454759D01*
X106271680Y-63219727D01*
X106379853Y-62958574D01*
X106435000Y-62681335D01*
X106435000Y-62498000D01*
X109074335Y-59858665D01*
X118805000Y-59858665D01*
X118805000Y-60141335D01*
X118860147Y-60418574D01*
X118968320Y-60679727D01*
X119125363Y-60914759D01*
X119325241Y-61114637D01*
X119560273Y-61271680D01*
X119570865Y-61276067D01*
X119384869Y-61387615D01*
X119176481Y-61576586D01*
X119008963Y-61802580D01*
X118888754Y-62056913D01*
X118848096Y-62190961D01*
X118970085Y-62413000D01*
X120113000Y-62413000D01*
X120113000Y-62393000D01*
X120367000Y-62393000D01*
X120367000Y-62413000D01*
X121509915Y-62413000D01*
X121631904Y-62190961D01*
X121591246Y-62056913D01*
X121471037Y-61802580D01*
X121303519Y-61576586D01*
X121095131Y-61387615D01*
X120909135Y-61276067D01*
X120919727Y-61271680D01*
X121124284Y-61135000D01*
X126034893Y-61135000D01*
X126053368Y-61153475D01*
X126235534Y-61275195D01*
X126118645Y-61344822D01*
X125902412Y-61539731D01*
X125728359Y-61773080D01*
X125603175Y-62035901D01*
X125558524Y-62183110D01*
X125679845Y-62413000D01*
X126873000Y-62413000D01*
X126873000Y-62393000D01*
X127127000Y-62393000D01*
X127127000Y-62413000D01*
X128320155Y-62413000D01*
X128441476Y-62183110D01*
X128396825Y-62035901D01*
X128271641Y-61773080D01*
X128097588Y-61539731D01*
X127881355Y-61344822D01*
X127764466Y-61275195D01*
X127946632Y-61153475D01*
X128153475Y-60946632D01*
X128315990Y-60703411D01*
X128427932Y-60433158D01*
X128485000Y-60146260D01*
X128485000Y-59853740D01*
X128427932Y-59566842D01*
X128315990Y-59296589D01*
X128153475Y-59053368D01*
X127946632Y-58846525D01*
X127703411Y-58684010D01*
X127433158Y-58572068D01*
X127146260Y-58515000D01*
X126853740Y-58515000D01*
X126566842Y-58572068D01*
X126296589Y-58684010D01*
X126053368Y-58846525D01*
X126034893Y-58865000D01*
X121375000Y-58865000D01*
X121375000Y-49690132D01*
X121430132Y-49635000D01*
X121621033Y-49635000D01*
X121936912Y-49572168D01*
X122234463Y-49448918D01*
X122502252Y-49269987D01*
X122636826Y-49135413D01*
X125584192Y-49135413D01*
X125679956Y-49399814D01*
X125969571Y-49540704D01*
X126281108Y-49622384D01*
X126602595Y-49641718D01*
X126921675Y-49597961D01*
X127226088Y-49492795D01*
X127400044Y-49399814D01*
X127495808Y-49135413D01*
X126540000Y-48179605D01*
X125584192Y-49135413D01*
X122636826Y-49135413D01*
X122729987Y-49042252D01*
X122908918Y-48774463D01*
X123032168Y-48476912D01*
X123095000Y-48161033D01*
X123095000Y-48062595D01*
X124898282Y-48062595D01*
X124942039Y-48381675D01*
X125047205Y-48686088D01*
X125140186Y-48860044D01*
X125404587Y-48955808D01*
X126360395Y-48000000D01*
X126719605Y-48000000D01*
X127675413Y-48955808D01*
X127939814Y-48860044D01*
X128080704Y-48570429D01*
X128162384Y-48258892D01*
X128181718Y-47937405D01*
X128137961Y-47618325D01*
X128032795Y-47313912D01*
X127939814Y-47139956D01*
X127675413Y-47044192D01*
X126719605Y-48000000D01*
X126360395Y-48000000D01*
X125404587Y-47044192D01*
X125140186Y-47139956D01*
X124999296Y-47429571D01*
X124917616Y-47741108D01*
X124898282Y-48062595D01*
X123095000Y-48062595D01*
X123095000Y-47838967D01*
X123032168Y-47523088D01*
X122908918Y-47225537D01*
X122729987Y-46957748D01*
X122636826Y-46864587D01*
X125584192Y-46864587D01*
X126540000Y-47820395D01*
X127495808Y-46864587D01*
X127484745Y-46834042D01*
X141315000Y-46834042D01*
X141315000Y-47165958D01*
X141379754Y-47491496D01*
X141506772Y-47798147D01*
X141691175Y-48074125D01*
X141925875Y-48308825D01*
X142201853Y-48493228D01*
X142508504Y-48620246D01*
X142834042Y-48685000D01*
X143165958Y-48685000D01*
X143491496Y-48620246D01*
X143798147Y-48493228D01*
X144074125Y-48308825D01*
X144308825Y-48074125D01*
X144493228Y-47798147D01*
X144620246Y-47491496D01*
X144685000Y-47165958D01*
X144685000Y-46834042D01*
X144620246Y-46508504D01*
X144493228Y-46201853D01*
X144308825Y-45925875D01*
X144074125Y-45691175D01*
X143798147Y-45506772D01*
X143491496Y-45379754D01*
X143165958Y-45315000D01*
X142834042Y-45315000D01*
X142508504Y-45379754D01*
X142201853Y-45506772D01*
X141925875Y-45691175D01*
X141691175Y-45925875D01*
X141506772Y-46201853D01*
X141379754Y-46508504D01*
X141315000Y-46834042D01*
X127484745Y-46834042D01*
X127400044Y-46600186D01*
X127110429Y-46459296D01*
X126798892Y-46377616D01*
X126477405Y-46358282D01*
X126158325Y-46402039D01*
X125853912Y-46507205D01*
X125679956Y-46600186D01*
X125584192Y-46864587D01*
X122636826Y-46864587D01*
X122502252Y-46730013D01*
X122234463Y-46551082D01*
X121936912Y-46427832D01*
X121621033Y-46365000D01*
X121298967Y-46365000D01*
X120983088Y-46427832D01*
X120685537Y-46551082D01*
X120417748Y-46730013D01*
X120190013Y-46957748D01*
X120011082Y-47225537D01*
X119887832Y-47523088D01*
X119825000Y-47838967D01*
X119825000Y-48029868D01*
X119476860Y-48378009D01*
X119433552Y-48413551D01*
X119291717Y-48586377D01*
X119273614Y-48620246D01*
X119186324Y-48783554D01*
X119121423Y-48997502D01*
X119099509Y-49220000D01*
X119105001Y-49275761D01*
X119105000Y-59115716D01*
X118968320Y-59320273D01*
X118860147Y-59581426D01*
X118805000Y-59858665D01*
X109074335Y-59858665D01*
X109948001Y-58985000D01*
X115691758Y-58985000D01*
X115730013Y-59042252D01*
X115957748Y-59269987D01*
X116225537Y-59448918D01*
X116523088Y-59572168D01*
X116838967Y-59635000D01*
X117161033Y-59635000D01*
X117476912Y-59572168D01*
X117774463Y-59448918D01*
X118042252Y-59269987D01*
X118269987Y-59042252D01*
X118448918Y-58774463D01*
X118572168Y-58476912D01*
X118635000Y-58161033D01*
X118635000Y-57838967D01*
X118572168Y-57523088D01*
X118448918Y-57225537D01*
X118269987Y-56957748D01*
X118042252Y-56730013D01*
X117774463Y-56551082D01*
X117476912Y-56427832D01*
X117161033Y-56365000D01*
X116838967Y-56365000D01*
X116523088Y-56427832D01*
X116225537Y-56551082D01*
X115957748Y-56730013D01*
X115730013Y-56957748D01*
X115691758Y-57015000D01*
X109588380Y-57015000D01*
X109540000Y-57010235D01*
X109491620Y-57015000D01*
X109346906Y-57029253D01*
X109161233Y-57085576D01*
X108990116Y-57177040D01*
X108840130Y-57300130D01*
X108809289Y-57337710D01*
X108502928Y-57644071D01*
X108572168Y-57476912D01*
X108635000Y-57161033D01*
X108635000Y-56838967D01*
X108572168Y-56523088D01*
X108448918Y-56225537D01*
X108269987Y-55957748D01*
X108042252Y-55730013D01*
X107774463Y-55551082D01*
X107476912Y-55427832D01*
X107161033Y-55365000D01*
X106838967Y-55365000D01*
X106523088Y-55427832D01*
X106225537Y-55551082D01*
X105957748Y-55730013D01*
X105730013Y-55957748D01*
X105551082Y-56225537D01*
X105427832Y-56523088D01*
X105365000Y-56838967D01*
X105365000Y-57161033D01*
X105378433Y-57228567D01*
X104337716Y-58269284D01*
X104300130Y-58300130D01*
X104177040Y-58450116D01*
X104112679Y-58570528D01*
X104075518Y-58574188D01*
X103955820Y-58610498D01*
X103845506Y-58669463D01*
X103748815Y-58748815D01*
X103669463Y-58845506D01*
X103659043Y-58865000D01*
X99417683Y-58865000D01*
X99380537Y-58795506D01*
X99301185Y-58698815D01*
X99204494Y-58619463D01*
X99094180Y-58560498D01*
X98974482Y-58524188D01*
X98850000Y-58511928D01*
X97150000Y-58511928D01*
X97025518Y-58524188D01*
X96905820Y-58560498D01*
X96795506Y-58619463D01*
X96698815Y-58698815D01*
X96619463Y-58795506D01*
X96560498Y-58905820D01*
X96524188Y-59025518D01*
X96511928Y-59150000D01*
X92685000Y-59150000D01*
X92685000Y-46834042D01*
X94315000Y-46834042D01*
X94315000Y-47165958D01*
X94379754Y-47491496D01*
X94506772Y-47798147D01*
X94691175Y-48074125D01*
X94925875Y-48308825D01*
X95201853Y-48493228D01*
X95508504Y-48620246D01*
X95834042Y-48685000D01*
X96165958Y-48685000D01*
X96491496Y-48620246D01*
X96798147Y-48493228D01*
X97074125Y-48308825D01*
X97308825Y-48074125D01*
X97493228Y-47798147D01*
X97620246Y-47491496D01*
X97685000Y-47165958D01*
X97685000Y-46834042D01*
X97620246Y-46508504D01*
X97493228Y-46201853D01*
X97308825Y-45925875D01*
X97074125Y-45691175D01*
X96798147Y-45506772D01*
X96491496Y-45379754D01*
X96165958Y-45315000D01*
X95834042Y-45315000D01*
X95508504Y-45379754D01*
X95201853Y-45506772D01*
X94925875Y-45691175D01*
X94691175Y-45925875D01*
X94506772Y-46201853D01*
X94379754Y-46508504D01*
X94315000Y-46834042D01*
X92685000Y-46834042D01*
X92685000Y-42685000D01*
X145735175Y-42685000D01*
X164873000Y-60083024D01*
G37*
X164873000Y-60083024D02*
X164873000Y-63872017D01*
X164777502Y-63881423D01*
X164563554Y-63946324D01*
X164366378Y-64051716D01*
X164193552Y-64193551D01*
X164051717Y-64366377D01*
X163946325Y-64563553D01*
X163881424Y-64777501D01*
X163865001Y-64944248D01*
X163865001Y-65259870D01*
X163135000Y-64529869D01*
X163135000Y-61198692D01*
X163200905Y-61118386D01*
X163282972Y-60964850D01*
X163333508Y-60798254D01*
X163350572Y-60625000D01*
X163350572Y-59375000D01*
X163333508Y-59201746D01*
X163282972Y-59035150D01*
X163200905Y-58881614D01*
X163090462Y-58747038D01*
X162955886Y-58636595D01*
X162802350Y-58554528D01*
X162635754Y-58503992D01*
X162462500Y-58486928D01*
X161537500Y-58486928D01*
X161364246Y-58503992D01*
X161197650Y-58554528D01*
X161044114Y-58636595D01*
X160909538Y-58747038D01*
X160799095Y-58881614D01*
X160717028Y-59035150D01*
X160666492Y-59201746D01*
X160649428Y-59375000D01*
X160649428Y-60625000D01*
X160666492Y-60798254D01*
X160717028Y-60964850D01*
X160799095Y-61118386D01*
X160865001Y-61198693D01*
X160865000Y-64472000D01*
X160621567Y-64228567D01*
X160635000Y-64161033D01*
X160635000Y-63838967D01*
X160572168Y-63523088D01*
X160448918Y-63225537D01*
X160269987Y-62957748D01*
X160042252Y-62730013D01*
X159774463Y-62551082D01*
X159476912Y-62427832D01*
X159161033Y-62365000D01*
X158838967Y-62365000D01*
X158523088Y-62427832D01*
X158225537Y-62551082D01*
X157957748Y-62730013D01*
X157730013Y-62957748D01*
X157551082Y-63225537D01*
X157427832Y-63523088D01*
X157365000Y-63838967D01*
X157365000Y-63972000D01*
X154268000Y-60875000D01*
X157674428Y-60875000D01*
X157686688Y-60999482D01*
X157722998Y-61119180D01*
X157781963Y-61229494D01*
X157861315Y-61326185D01*
X157958006Y-61405537D01*
X158068320Y-61464502D01*
X158188018Y-61500812D01*
X158312500Y-61513072D01*
X158739250Y-61510000D01*
X158898000Y-61351250D01*
X158898000Y-60127000D01*
X159152000Y-60127000D01*
X159152000Y-61351250D01*
X159310750Y-61510000D01*
X159737500Y-61513072D01*
X159861982Y-61500812D01*
X159981680Y-61464502D01*
X160091994Y-61405537D01*
X160188685Y-61326185D01*
X160268037Y-61229494D01*
X160327002Y-61119180D01*
X160363312Y-60999482D01*
X160375572Y-60875000D01*
X160372500Y-60285750D01*
X160213750Y-60127000D01*
X159152000Y-60127000D01*
X158898000Y-60127000D01*
X157836250Y-60127000D01*
X157677500Y-60285750D01*
X157674428Y-60875000D01*
X154268000Y-60875000D01*
X152518000Y-59125000D01*
X157674428Y-59125000D01*
X157677500Y-59714250D01*
X157836250Y-59873000D01*
X158898000Y-59873000D01*
X158898000Y-58648750D01*
X159152000Y-58648750D01*
X159152000Y-59873000D01*
X160213750Y-59873000D01*
X160372500Y-59714250D01*
X160375572Y-59125000D01*
X160363312Y-59000518D01*
X160327002Y-58880820D01*
X160268037Y-58770506D01*
X160188685Y-58673815D01*
X160091994Y-58594463D01*
X159981680Y-58535498D01*
X159861982Y-58499188D01*
X159737500Y-58486928D01*
X159310750Y-58490000D01*
X159152000Y-58648750D01*
X158898000Y-58648750D01*
X158739250Y-58490000D01*
X158312500Y-58486928D01*
X158188018Y-58499188D01*
X158068320Y-58535498D01*
X157958006Y-58594463D01*
X157861315Y-58673815D01*
X157781963Y-58770506D01*
X157722998Y-58880820D01*
X157686688Y-59000518D01*
X157674428Y-59125000D01*
X152518000Y-59125000D01*
X148730716Y-55337716D01*
X148699870Y-55300130D01*
X148549884Y-55177040D01*
X148378767Y-55085576D01*
X148349458Y-55076685D01*
X148269987Y-54957748D01*
X148042252Y-54730013D01*
X147774463Y-54551082D01*
X147476912Y-54427832D01*
X147161033Y-54365000D01*
X146838967Y-54365000D01*
X146523088Y-54427832D01*
X146225537Y-54551082D01*
X145957748Y-54730013D01*
X145730013Y-54957748D01*
X145551082Y-55225537D01*
X145427832Y-55523088D01*
X145365000Y-55838967D01*
X145365000Y-56161033D01*
X145427832Y-56476912D01*
X145551082Y-56774463D01*
X145730013Y-57042252D01*
X145957748Y-57269987D01*
X146225537Y-57448918D01*
X146523088Y-57572168D01*
X146838967Y-57635000D01*
X147161033Y-57635000D01*
X147476912Y-57572168D01*
X147774463Y-57448918D01*
X147943183Y-57336183D01*
X157480000Y-66873000D01*
X154266000Y-66873000D01*
X149730716Y-62337716D01*
X149699870Y-62300130D01*
X149549884Y-62177040D01*
X149378767Y-62085576D01*
X149193094Y-62029253D01*
X149048380Y-62015000D01*
X149000000Y-62010235D01*
X148951620Y-62015000D01*
X145308242Y-62015000D01*
X145269987Y-61957748D01*
X145042252Y-61730013D01*
X144774463Y-61551082D01*
X144476912Y-61427832D01*
X144161033Y-61365000D01*
X143838967Y-61365000D01*
X143523088Y-61427832D01*
X143225537Y-61551082D01*
X142957748Y-61730013D01*
X142730013Y-61957748D01*
X142551082Y-62225537D01*
X142427832Y-62523088D01*
X142365000Y-62838967D01*
X142365000Y-62972000D01*
X133621567Y-54228567D01*
X133635000Y-54161033D01*
X133635000Y-53838967D01*
X133572168Y-53523088D01*
X133448918Y-53225537D01*
X133269987Y-52957748D01*
X133042252Y-52730013D01*
X132774463Y-52551082D01*
X132476912Y-52427832D01*
X132161033Y-52365000D01*
X131838967Y-52365000D01*
X131523088Y-52427832D01*
X131225537Y-52551082D01*
X130957748Y-52730013D01*
X130730013Y-52957748D01*
X130551082Y-53225537D01*
X130427832Y-53523088D01*
X130365000Y-53838967D01*
X130365000Y-54161033D01*
X130427832Y-54476912D01*
X130551082Y-54774463D01*
X130730013Y-55042252D01*
X130957748Y-55269987D01*
X131225537Y-55448918D01*
X131523088Y-55572168D01*
X131838967Y-55635000D01*
X132161033Y-55635000D01*
X132228567Y-55621567D01*
X144869283Y-68262283D01*
X144873000Y-68266812D01*
X144873000Y-70185998D01*
X143864718Y-69177716D01*
X143833872Y-69140130D01*
X143683886Y-69017040D01*
X143512769Y-68925576D01*
X143327096Y-68869253D01*
X143182382Y-68855000D01*
X143134002Y-68850235D01*
X143085622Y-68855000D01*
X141115107Y-68855000D01*
X141021620Y-68761513D01*
X141094180Y-68739502D01*
X141204494Y-68680537D01*
X141301185Y-68601185D01*
X141380537Y-68504494D01*
X141439502Y-68394180D01*
X141475812Y-68274482D01*
X141488072Y-68150000D01*
X141488072Y-66450000D01*
X141475812Y-66325518D01*
X141439502Y-66205820D01*
X141380537Y-66095506D01*
X141301185Y-65998815D01*
X141204494Y-65919463D01*
X141094180Y-65860498D01*
X140974482Y-65824188D01*
X140850000Y-65811928D01*
X139150000Y-65811928D01*
X139025518Y-65824188D01*
X138905820Y-65860498D01*
X138795506Y-65919463D01*
X138698815Y-65998815D01*
X138619463Y-66095506D01*
X138560498Y-66205820D01*
X138527379Y-66315000D01*
X136708000Y-66315000D01*
X133621567Y-63228567D01*
X133635000Y-63161033D01*
X133635000Y-62838967D01*
X133572168Y-62523088D01*
X133448918Y-62225537D01*
X133269987Y-61957748D01*
X133042252Y-61730013D01*
X132774463Y-61551082D01*
X132476912Y-61427832D01*
X132161033Y-61365000D01*
X131838967Y-61365000D01*
X131523088Y-61427832D01*
X131225537Y-61551082D01*
X130957748Y-61730013D01*
X130730013Y-61957748D01*
X130551082Y-62225537D01*
X130427832Y-62523088D01*
X130365000Y-62838967D01*
X130365000Y-63161033D01*
X130427832Y-63476912D01*
X130551082Y-63774463D01*
X130730013Y-64042252D01*
X130957748Y-64269987D01*
X131225537Y-64448918D01*
X131348860Y-64500000D01*
X131225537Y-64551082D01*
X130957748Y-64730013D01*
X130730013Y-64957748D01*
X130551082Y-65225537D01*
X130427832Y-65523088D01*
X130365000Y-65838967D01*
X130365000Y-66161033D01*
X130427832Y-66476912D01*
X130551082Y-66774463D01*
X130730013Y-67042252D01*
X130957748Y-67269987D01*
X131225537Y-67448918D01*
X131523088Y-67572168D01*
X131838967Y-67635000D01*
X132161033Y-67635000D01*
X132228567Y-67621567D01*
X135109284Y-70502284D01*
X135140130Y-70539870D01*
X135290116Y-70662960D01*
X135461233Y-70754424D01*
X135646906Y-70810747D01*
X135839999Y-70829765D01*
X135888379Y-70825000D01*
X138884893Y-70825000D01*
X139053368Y-70993475D01*
X139227760Y-71110000D01*
X139053368Y-71226525D01*
X138846525Y-71433368D01*
X138684010Y-71676589D01*
X138572068Y-71946842D01*
X138515000Y-72233740D01*
X138515000Y-72526260D01*
X138572068Y-72813158D01*
X138684010Y-73083411D01*
X138846525Y-73326632D01*
X139053368Y-73533475D01*
X139227760Y-73650000D01*
X139053368Y-73766525D01*
X138846525Y-73973368D01*
X138684010Y-74216589D01*
X138572068Y-74486842D01*
X138515000Y-74773740D01*
X138515000Y-75066260D01*
X138572068Y-75353158D01*
X138684010Y-75623411D01*
X138846525Y-75866632D01*
X139053368Y-76073475D01*
X139235534Y-76195195D01*
X139118645Y-76264822D01*
X138902412Y-76459731D01*
X138728359Y-76693080D01*
X138603175Y-76955901D01*
X138558524Y-77103110D01*
X138679845Y-77333000D01*
X139873000Y-77333000D01*
X139873000Y-77313000D01*
X140127000Y-77313000D01*
X140127000Y-77333000D01*
X140147000Y-77333000D01*
X140147000Y-77587000D01*
X140127000Y-77587000D01*
X140127000Y-77607000D01*
X139873000Y-77607000D01*
X139873000Y-77587000D01*
X138679845Y-77587000D01*
X138558524Y-77816890D01*
X138603175Y-77964099D01*
X138728359Y-78226920D01*
X138902412Y-78460269D01*
X139118645Y-78655178D01*
X139235534Y-78724805D01*
X139053368Y-78846525D01*
X138884893Y-79015000D01*
X136408001Y-79015000D01*
X133985000Y-76592000D01*
X133985000Y-71048380D01*
X133989765Y-71000000D01*
X133970747Y-70806906D01*
X133914424Y-70621233D01*
X133913286Y-70619104D01*
X133822960Y-70450116D01*
X133699870Y-70300130D01*
X133662290Y-70269289D01*
X130350716Y-66957716D01*
X130319870Y-66920130D01*
X130169884Y-66797040D01*
X129998767Y-66705576D01*
X129813094Y-66649253D01*
X129668380Y-66635000D01*
X129620000Y-66630235D01*
X129571620Y-66635000D01*
X128115107Y-66635000D01*
X127946632Y-66466525D01*
X127772240Y-66350000D01*
X127946632Y-66233475D01*
X128153475Y-66026632D01*
X128315990Y-65783411D01*
X128427932Y-65513158D01*
X128485000Y-65226260D01*
X128485000Y-64933740D01*
X128427932Y-64646842D01*
X128315990Y-64376589D01*
X128153475Y-64133368D01*
X127946632Y-63926525D01*
X127764466Y-63804805D01*
X127881355Y-63735178D01*
X128097588Y-63540269D01*
X128271641Y-63306920D01*
X128396825Y-63044099D01*
X128441476Y-62896890D01*
X128320155Y-62667000D01*
X127127000Y-62667000D01*
X127127000Y-62687000D01*
X126873000Y-62687000D01*
X126873000Y-62667000D01*
X125679845Y-62667000D01*
X125558524Y-62896890D01*
X125603175Y-63044099D01*
X125728359Y-63306920D01*
X125902412Y-63540269D01*
X126118645Y-63735178D01*
X126235534Y-63804805D01*
X126053368Y-63926525D01*
X126034893Y-63945000D01*
X121124284Y-63945000D01*
X120919727Y-63808320D01*
X120909135Y-63803933D01*
X121095131Y-63692385D01*
X121303519Y-63503414D01*
X121471037Y-63277420D01*
X121591246Y-63023087D01*
X121631904Y-62889039D01*
X121509915Y-62667000D01*
X120367000Y-62667000D01*
X120367000Y-62687000D01*
X120113000Y-62687000D01*
X120113000Y-62667000D01*
X118970085Y-62667000D01*
X118848096Y-62889039D01*
X118888754Y-63023087D01*
X119008963Y-63277420D01*
X119176481Y-63503414D01*
X119384869Y-63692385D01*
X119570865Y-63803933D01*
X119560273Y-63808320D01*
X119325241Y-63965363D01*
X119125363Y-64165241D01*
X118968320Y-64400273D01*
X118860147Y-64661426D01*
X118805000Y-64938665D01*
X118805000Y-65221335D01*
X118860147Y-65498574D01*
X118968320Y-65759727D01*
X119125363Y-65994759D01*
X119325241Y-66194637D01*
X119557759Y-66350000D01*
X119325241Y-66505363D01*
X119125363Y-66705241D01*
X118968320Y-66940273D01*
X118860147Y-67201426D01*
X118805000Y-67478665D01*
X118805000Y-67761335D01*
X118860147Y-68038574D01*
X118968320Y-68299727D01*
X119125363Y-68534759D01*
X119325241Y-68734637D01*
X119557759Y-68890000D01*
X119325241Y-69045363D01*
X119125363Y-69245241D01*
X118968320Y-69480273D01*
X118860147Y-69741426D01*
X118805000Y-70018665D01*
X118805000Y-70301335D01*
X118860147Y-70578574D01*
X118968320Y-70839727D01*
X119125363Y-71074759D01*
X119325241Y-71274637D01*
X119557759Y-71430000D01*
X119325241Y-71585363D01*
X119125363Y-71785241D01*
X118968320Y-72020273D01*
X118860147Y-72281426D01*
X118805000Y-72558665D01*
X118805000Y-72841335D01*
X118860147Y-73118574D01*
X118968320Y-73379727D01*
X119125363Y-73614759D01*
X119325241Y-73814637D01*
X119557759Y-73970000D01*
X119325241Y-74125363D01*
X119125363Y-74325241D01*
X118968320Y-74560273D01*
X118860147Y-74821426D01*
X118805000Y-75098665D01*
X118805000Y-75381335D01*
X118860147Y-75658574D01*
X118968320Y-75919727D01*
X119125363Y-76154759D01*
X119325241Y-76354637D01*
X119557759Y-76510000D01*
X119325241Y-76665363D01*
X119125363Y-76865241D01*
X118968320Y-77100273D01*
X118860147Y-77361426D01*
X118805000Y-77638665D01*
X118805000Y-77921335D01*
X118860147Y-78198574D01*
X118968320Y-78459727D01*
X119125363Y-78694759D01*
X119325241Y-78894637D01*
X119557759Y-79050000D01*
X119325241Y-79205363D01*
X119125363Y-79405241D01*
X118968320Y-79640273D01*
X118860147Y-79901426D01*
X118805000Y-80178665D01*
X118805000Y-80461335D01*
X118860147Y-80738574D01*
X118968320Y-80999727D01*
X119125363Y-81234759D01*
X119325241Y-81434637D01*
X119557759Y-81590000D01*
X119325241Y-81745363D01*
X119125363Y-81945241D01*
X118968320Y-82180273D01*
X118860147Y-82441426D01*
X118805000Y-82718665D01*
X118805000Y-83001335D01*
X118860147Y-83278574D01*
X118968320Y-83539727D01*
X119125363Y-83774759D01*
X119325241Y-83974637D01*
X119557759Y-84130000D01*
X119325241Y-84285363D01*
X119125363Y-84485241D01*
X118968320Y-84720273D01*
X118860147Y-84981426D01*
X118805000Y-85258665D01*
X118805000Y-85541335D01*
X118860147Y-85818574D01*
X118968320Y-86079727D01*
X119125363Y-86314759D01*
X119325241Y-86514637D01*
X119557759Y-86670000D01*
X119325241Y-86825363D01*
X119125363Y-87025241D01*
X118968320Y-87260273D01*
X118860147Y-87521426D01*
X118805000Y-87798665D01*
X118805000Y-88081335D01*
X118860147Y-88358574D01*
X118968320Y-88619727D01*
X119125363Y-88854759D01*
X119325241Y-89054637D01*
X119557759Y-89210000D01*
X119325241Y-89365363D01*
X119125363Y-89565241D01*
X118968320Y-89800273D01*
X118860147Y-90061426D01*
X118805000Y-90338665D01*
X118805000Y-90621335D01*
X118860147Y-90898574D01*
X118968320Y-91159727D01*
X119125363Y-91394759D01*
X119325241Y-91594637D01*
X119557759Y-91750000D01*
X119325241Y-91905363D01*
X119125363Y-92105241D01*
X118968320Y-92340273D01*
X118860147Y-92601426D01*
X118805000Y-92878665D01*
X118805000Y-93161335D01*
X118860147Y-93438574D01*
X118968320Y-93699727D01*
X119125363Y-93934759D01*
X119325241Y-94134637D01*
X119557759Y-94290000D01*
X119325241Y-94445363D01*
X119125363Y-94645241D01*
X118968320Y-94880273D01*
X118860147Y-95141426D01*
X118805000Y-95418665D01*
X118805000Y-95701335D01*
X118860147Y-95978574D01*
X118968320Y-96239727D01*
X119094751Y-96428945D01*
X112257806Y-89592000D01*
X112257806Y-81561186D01*
X112262571Y-81512806D01*
X112243553Y-81319712D01*
X112228258Y-81269291D01*
X112187230Y-81134039D01*
X112095766Y-80962922D01*
X111985000Y-80827953D01*
X111985000Y-78048377D01*
X111989765Y-77999999D01*
X111982017Y-77921335D01*
X111970747Y-77806906D01*
X111914424Y-77621233D01*
X111822960Y-77450116D01*
X111699870Y-77300130D01*
X111662284Y-77269284D01*
X108970716Y-74577716D01*
X108939870Y-74540130D01*
X108789884Y-74417040D01*
X108618767Y-74325576D01*
X108433094Y-74269253D01*
X108288380Y-74255000D01*
X108240000Y-74250235D01*
X108191620Y-74255000D01*
X106044396Y-74255000D01*
X105914759Y-74125363D01*
X105682241Y-73970000D01*
X105914759Y-73814637D01*
X106114637Y-73614759D01*
X106271680Y-73379727D01*
X106379853Y-73118574D01*
X106435000Y-72841335D01*
X106435000Y-72558665D01*
X106379853Y-72281426D01*
X106271680Y-72020273D01*
X106114637Y-71785241D01*
X105914759Y-71585363D01*
X105682241Y-71430000D01*
X105914759Y-71274637D01*
X106114637Y-71074759D01*
X106271680Y-70839727D01*
X106379853Y-70578574D01*
X106435000Y-70301335D01*
X106435000Y-70018665D01*
X106379853Y-69741426D01*
X106271680Y-69480273D01*
X106114637Y-69245241D01*
X105914759Y-69045363D01*
X105679727Y-68888320D01*
X105669135Y-68883933D01*
X105855131Y-68772385D01*
X106063519Y-68583414D01*
X106231037Y-68357420D01*
X106351246Y-68103087D01*
X106391904Y-67969039D01*
X106269915Y-67747000D01*
X105127000Y-67747000D01*
X105127000Y-67767000D01*
X104873000Y-67767000D01*
X104873000Y-67747000D01*
X103730085Y-67747000D01*
X103608096Y-67969039D01*
X103648754Y-68103087D01*
X103768963Y-68357420D01*
X103936481Y-68583414D01*
X104144869Y-68772385D01*
X104330865Y-68883933D01*
X104320273Y-68888320D01*
X104115716Y-69025000D01*
X98965107Y-69025000D01*
X98946632Y-69006525D01*
X98764466Y-68884805D01*
X98881355Y-68815178D01*
X99097588Y-68620269D01*
X99271641Y-68386920D01*
X99396825Y-68124099D01*
X99441476Y-67976890D01*
X99320155Y-67747000D01*
X98127000Y-67747000D01*
X98127000Y-67767000D01*
X97873000Y-67767000D01*
X97873000Y-67747000D01*
X96679845Y-67747000D01*
X96558524Y-67976890D01*
X96603175Y-68124099D01*
X96728359Y-68386920D01*
X96902412Y-68620269D01*
X97118645Y-68815178D01*
X97235534Y-68884805D01*
X97053368Y-69006525D01*
X96846525Y-69213368D01*
X96684010Y-69456589D01*
X96572068Y-69726842D01*
X96515000Y-70013740D01*
X96515000Y-70306260D01*
X96572068Y-70593158D01*
X96684010Y-70863411D01*
X96846525Y-71106632D01*
X97053368Y-71313475D01*
X97227760Y-71430000D01*
X97053368Y-71546525D01*
X96846525Y-71753368D01*
X96684010Y-71996589D01*
X96572068Y-72266842D01*
X96515000Y-72553740D01*
X96515000Y-72846260D01*
X96572068Y-73133158D01*
X96684010Y-73403411D01*
X96846525Y-73646632D01*
X97053368Y-73853475D01*
X97227760Y-73970000D01*
X97053368Y-74086525D01*
X96846525Y-74293368D01*
X96684010Y-74536589D01*
X96572068Y-74806842D01*
X96515000Y-75093740D01*
X96515000Y-75386260D01*
X96572068Y-75673158D01*
X96684010Y-75943411D01*
X96846525Y-76186632D01*
X97053368Y-76393475D01*
X97227760Y-76510000D01*
X97053368Y-76626525D01*
X97036447Y-76643446D01*
X95621567Y-75228566D01*
X95635000Y-75161033D01*
X95635000Y-74838967D01*
X95572168Y-74523088D01*
X95448918Y-74225537D01*
X95269987Y-73957748D01*
X95042252Y-73730013D01*
X94774463Y-73551082D01*
X94476912Y-73427832D01*
X94161033Y-73365000D01*
X93838967Y-73365000D01*
X93523088Y-73427832D01*
X93225537Y-73551082D01*
X92957748Y-73730013D01*
X92730013Y-73957748D01*
X92685000Y-74025115D01*
X92685000Y-59150000D01*
X96511928Y-59150000D01*
X96511928Y-60850000D01*
X96524188Y-60974482D01*
X96560498Y-61094180D01*
X96619463Y-61204494D01*
X96698815Y-61301185D01*
X96795506Y-61380537D01*
X96905820Y-61439502D01*
X96978380Y-61461513D01*
X96846525Y-61593368D01*
X96684010Y-61836589D01*
X96572068Y-62106842D01*
X96515000Y-62393740D01*
X96515000Y-62686260D01*
X96572068Y-62973158D01*
X96684010Y-63243411D01*
X96846525Y-63486632D01*
X97053368Y-63693475D01*
X97227760Y-63810000D01*
X97053368Y-63926525D01*
X96846525Y-64133368D01*
X96684010Y-64376589D01*
X96572068Y-64646842D01*
X96515000Y-64933740D01*
X96515000Y-65226260D01*
X96572068Y-65513158D01*
X96684010Y-65783411D01*
X96846525Y-66026632D01*
X97053368Y-66233475D01*
X97235534Y-66355195D01*
X97118645Y-66424822D01*
X96902412Y-66619731D01*
X96728359Y-66853080D01*
X96603175Y-67115901D01*
X96558524Y-67263110D01*
X96679845Y-67493000D01*
X97873000Y-67493000D01*
X97873000Y-67473000D01*
X98127000Y-67473000D01*
X98127000Y-67493000D01*
X99320155Y-67493000D01*
X99441476Y-67263110D01*
X99396825Y-67115901D01*
X99271641Y-66853080D01*
X99097588Y-66619731D01*
X98881355Y-66424822D01*
X98764466Y-66355195D01*
X98946632Y-66233475D01*
X98965107Y-66215000D01*
X104115716Y-66215000D01*
X104320273Y-66351680D01*
X104330865Y-66356067D01*
X104144869Y-66467615D01*
X103936481Y-66656586D01*
X103768963Y-66882580D01*
X103648754Y-67136913D01*
X103608096Y-67270961D01*
X103730085Y-67493000D01*
X104873000Y-67493000D01*
X104873000Y-67473000D01*
X105127000Y-67473000D01*
X105127000Y-67493000D01*
X106269915Y-67493000D01*
X106391904Y-67270961D01*
X106351246Y-67136913D01*
X106231037Y-66882580D01*
X106063519Y-66656586D01*
X105855131Y-66467615D01*
X105669135Y-66356067D01*
X105679727Y-66351680D01*
X105914759Y-66194637D01*
X106114637Y-65994759D01*
X106271680Y-65759727D01*
X106379853Y-65498574D01*
X106435000Y-65221335D01*
X106435000Y-64938665D01*
X106379853Y-64661426D01*
X106271680Y-64400273D01*
X106114637Y-64165241D01*
X105914759Y-63965363D01*
X105682241Y-63810000D01*
X105914759Y-63654637D01*
X106114637Y-63454759D01*
X106271680Y-63219727D01*
X106379853Y-62958574D01*
X106435000Y-62681335D01*
X106435000Y-62498000D01*
X109074335Y-59858665D01*
X118805000Y-59858665D01*
X118805000Y-60141335D01*
X118860147Y-60418574D01*
X118968320Y-60679727D01*
X119125363Y-60914759D01*
X119325241Y-61114637D01*
X119560273Y-61271680D01*
X119570865Y-61276067D01*
X119384869Y-61387615D01*
X119176481Y-61576586D01*
X119008963Y-61802580D01*
X118888754Y-62056913D01*
X118848096Y-62190961D01*
X118970085Y-62413000D01*
X120113000Y-62413000D01*
X120113000Y-62393000D01*
X120367000Y-62393000D01*
X120367000Y-62413000D01*
X121509915Y-62413000D01*
X121631904Y-62190961D01*
X121591246Y-62056913D01*
X121471037Y-61802580D01*
X121303519Y-61576586D01*
X121095131Y-61387615D01*
X120909135Y-61276067D01*
X120919727Y-61271680D01*
X121124284Y-61135000D01*
X126034893Y-61135000D01*
X126053368Y-61153475D01*
X126235534Y-61275195D01*
X126118645Y-61344822D01*
X125902412Y-61539731D01*
X125728359Y-61773080D01*
X125603175Y-62035901D01*
X125558524Y-62183110D01*
X125679845Y-62413000D01*
X126873000Y-62413000D01*
X126873000Y-62393000D01*
X127127000Y-62393000D01*
X127127000Y-62413000D01*
X128320155Y-62413000D01*
X128441476Y-62183110D01*
X128396825Y-62035901D01*
X128271641Y-61773080D01*
X128097588Y-61539731D01*
X127881355Y-61344822D01*
X127764466Y-61275195D01*
X127946632Y-61153475D01*
X128153475Y-60946632D01*
X128315990Y-60703411D01*
X128427932Y-60433158D01*
X128485000Y-60146260D01*
X128485000Y-59853740D01*
X128427932Y-59566842D01*
X128315990Y-59296589D01*
X128153475Y-59053368D01*
X127946632Y-58846525D01*
X127703411Y-58684010D01*
X127433158Y-58572068D01*
X127146260Y-58515000D01*
X126853740Y-58515000D01*
X126566842Y-58572068D01*
X126296589Y-58684010D01*
X126053368Y-58846525D01*
X126034893Y-58865000D01*
X121375000Y-58865000D01*
X121375000Y-49690132D01*
X121430132Y-49635000D01*
X121621033Y-49635000D01*
X121936912Y-49572168D01*
X122234463Y-49448918D01*
X122502252Y-49269987D01*
X122636826Y-49135413D01*
X125584192Y-49135413D01*
X125679956Y-49399814D01*
X125969571Y-49540704D01*
X126281108Y-49622384D01*
X126602595Y-49641718D01*
X126921675Y-49597961D01*
X127226088Y-49492795D01*
X127400044Y-49399814D01*
X127495808Y-49135413D01*
X126540000Y-48179605D01*
X125584192Y-49135413D01*
X122636826Y-49135413D01*
X122729987Y-49042252D01*
X122908918Y-48774463D01*
X123032168Y-48476912D01*
X123095000Y-48161033D01*
X123095000Y-48062595D01*
X124898282Y-48062595D01*
X124942039Y-48381675D01*
X125047205Y-48686088D01*
X125140186Y-48860044D01*
X125404587Y-48955808D01*
X126360395Y-48000000D01*
X126719605Y-48000000D01*
X127675413Y-48955808D01*
X127939814Y-48860044D01*
X128080704Y-48570429D01*
X128162384Y-48258892D01*
X128181718Y-47937405D01*
X128137961Y-47618325D01*
X128032795Y-47313912D01*
X127939814Y-47139956D01*
X127675413Y-47044192D01*
X126719605Y-48000000D01*
X126360395Y-48000000D01*
X125404587Y-47044192D01*
X125140186Y-47139956D01*
X124999296Y-47429571D01*
X124917616Y-47741108D01*
X124898282Y-48062595D01*
X123095000Y-48062595D01*
X123095000Y-47838967D01*
X123032168Y-47523088D01*
X122908918Y-47225537D01*
X122729987Y-46957748D01*
X122636826Y-46864587D01*
X125584192Y-46864587D01*
X126540000Y-47820395D01*
X127495808Y-46864587D01*
X127484745Y-46834042D01*
X141315000Y-46834042D01*
X141315000Y-47165958D01*
X141379754Y-47491496D01*
X141506772Y-47798147D01*
X141691175Y-48074125D01*
X141925875Y-48308825D01*
X142201853Y-48493228D01*
X142508504Y-48620246D01*
X142834042Y-48685000D01*
X143165958Y-48685000D01*
X143491496Y-48620246D01*
X143798147Y-48493228D01*
X144074125Y-48308825D01*
X144308825Y-48074125D01*
X144493228Y-47798147D01*
X144620246Y-47491496D01*
X144685000Y-47165958D01*
X144685000Y-46834042D01*
X144620246Y-46508504D01*
X144493228Y-46201853D01*
X144308825Y-45925875D01*
X144074125Y-45691175D01*
X143798147Y-45506772D01*
X143491496Y-45379754D01*
X143165958Y-45315000D01*
X142834042Y-45315000D01*
X142508504Y-45379754D01*
X142201853Y-45506772D01*
X141925875Y-45691175D01*
X141691175Y-45925875D01*
X141506772Y-46201853D01*
X141379754Y-46508504D01*
X141315000Y-46834042D01*
X127484745Y-46834042D01*
X127400044Y-46600186D01*
X127110429Y-46459296D01*
X126798892Y-46377616D01*
X126477405Y-46358282D01*
X126158325Y-46402039D01*
X125853912Y-46507205D01*
X125679956Y-46600186D01*
X125584192Y-46864587D01*
X122636826Y-46864587D01*
X122502252Y-46730013D01*
X122234463Y-46551082D01*
X121936912Y-46427832D01*
X121621033Y-46365000D01*
X121298967Y-46365000D01*
X120983088Y-46427832D01*
X120685537Y-46551082D01*
X120417748Y-46730013D01*
X120190013Y-46957748D01*
X120011082Y-47225537D01*
X119887832Y-47523088D01*
X119825000Y-47838967D01*
X119825000Y-48029868D01*
X119476860Y-48378009D01*
X119433552Y-48413551D01*
X119291717Y-48586377D01*
X119273614Y-48620246D01*
X119186324Y-48783554D01*
X119121423Y-48997502D01*
X119099509Y-49220000D01*
X119105001Y-49275761D01*
X119105000Y-59115716D01*
X118968320Y-59320273D01*
X118860147Y-59581426D01*
X118805000Y-59858665D01*
X109074335Y-59858665D01*
X109948001Y-58985000D01*
X115691758Y-58985000D01*
X115730013Y-59042252D01*
X115957748Y-59269987D01*
X116225537Y-59448918D01*
X116523088Y-59572168D01*
X116838967Y-59635000D01*
X117161033Y-59635000D01*
X117476912Y-59572168D01*
X117774463Y-59448918D01*
X118042252Y-59269987D01*
X118269987Y-59042252D01*
X118448918Y-58774463D01*
X118572168Y-58476912D01*
X118635000Y-58161033D01*
X118635000Y-57838967D01*
X118572168Y-57523088D01*
X118448918Y-57225537D01*
X118269987Y-56957748D01*
X118042252Y-56730013D01*
X117774463Y-56551082D01*
X117476912Y-56427832D01*
X117161033Y-56365000D01*
X116838967Y-56365000D01*
X116523088Y-56427832D01*
X116225537Y-56551082D01*
X115957748Y-56730013D01*
X115730013Y-56957748D01*
X115691758Y-57015000D01*
X109588380Y-57015000D01*
X109540000Y-57010235D01*
X109491620Y-57015000D01*
X109346906Y-57029253D01*
X109161233Y-57085576D01*
X108990116Y-57177040D01*
X108840130Y-57300130D01*
X108809289Y-57337710D01*
X108502928Y-57644071D01*
X108572168Y-57476912D01*
X108635000Y-57161033D01*
X108635000Y-56838967D01*
X108572168Y-56523088D01*
X108448918Y-56225537D01*
X108269987Y-55957748D01*
X108042252Y-55730013D01*
X107774463Y-55551082D01*
X107476912Y-55427832D01*
X107161033Y-55365000D01*
X106838967Y-55365000D01*
X106523088Y-55427832D01*
X106225537Y-55551082D01*
X105957748Y-55730013D01*
X105730013Y-55957748D01*
X105551082Y-56225537D01*
X105427832Y-56523088D01*
X105365000Y-56838967D01*
X105365000Y-57161033D01*
X105378433Y-57228567D01*
X104337716Y-58269284D01*
X104300130Y-58300130D01*
X104177040Y-58450116D01*
X104112679Y-58570528D01*
X104075518Y-58574188D01*
X103955820Y-58610498D01*
X103845506Y-58669463D01*
X103748815Y-58748815D01*
X103669463Y-58845506D01*
X103659043Y-58865000D01*
X99417683Y-58865000D01*
X99380537Y-58795506D01*
X99301185Y-58698815D01*
X99204494Y-58619463D01*
X99094180Y-58560498D01*
X98974482Y-58524188D01*
X98850000Y-58511928D01*
X97150000Y-58511928D01*
X97025518Y-58524188D01*
X96905820Y-58560498D01*
X96795506Y-58619463D01*
X96698815Y-58698815D01*
X96619463Y-58795506D01*
X96560498Y-58905820D01*
X96524188Y-59025518D01*
X96511928Y-59150000D01*
X92685000Y-59150000D01*
X92685000Y-46834042D01*
X94315000Y-46834042D01*
X94315000Y-47165958D01*
X94379754Y-47491496D01*
X94506772Y-47798147D01*
X94691175Y-48074125D01*
X94925875Y-48308825D01*
X95201853Y-48493228D01*
X95508504Y-48620246D01*
X95834042Y-48685000D01*
X96165958Y-48685000D01*
X96491496Y-48620246D01*
X96798147Y-48493228D01*
X97074125Y-48308825D01*
X97308825Y-48074125D01*
X97493228Y-47798147D01*
X97620246Y-47491496D01*
X97685000Y-47165958D01*
X97685000Y-46834042D01*
X97620246Y-46508504D01*
X97493228Y-46201853D01*
X97308825Y-45925875D01*
X97074125Y-45691175D01*
X96798147Y-45506772D01*
X96491496Y-45379754D01*
X96165958Y-45315000D01*
X95834042Y-45315000D01*
X95508504Y-45379754D01*
X95201853Y-45506772D01*
X94925875Y-45691175D01*
X94691175Y-45925875D01*
X94506772Y-46201853D01*
X94379754Y-46508504D01*
X94315000Y-46834042D01*
X92685000Y-46834042D01*
X92685000Y-42685000D01*
X145735175Y-42685000D01*
X164873000Y-60083024D01*
M02*
