G04 #@! TF.GenerationSoftware,KiCad,Pcbnew,5.1.5-52549c5~84~ubuntu19.04.1*
G04 #@! TF.CreationDate,2019-12-02T22:34:05+01:00*
G04 #@! TF.ProjectId,XbeeTestBench,58626565-5465-4737-9442-656e63682e6b,rev?*
G04 #@! TF.SameCoordinates,Original*
G04 #@! TF.FileFunction,Legend,Top*
G04 #@! TF.FilePolarity,Positive*
%FSLAX46Y46*%
G04 Gerber Fmt 4.6, Leading zero omitted, Abs format (unit mm)*
G04 Created by KiCad (PCBNEW 5.1.5-52549c5~84~ubuntu19.04.1) date 2019-12-02 22:34:05*
%MOMM*%
%LPD*%
G04 APERTURE LIST*
%ADD10C,0.150000*%
%ADD11C,0.100000*%
%ADD12C,0.120000*%
G04 APERTURE END LIST*
D10*
X124000000Y-51810000D02*
X127302000Y-51810000D01*
X124000000Y-51810000D02*
X119936000Y-51810000D01*
X118666000Y-48000000D02*
X118666000Y-51810000D01*
X118666000Y-48000000D02*
X118666000Y-44952000D01*
X118666000Y-51810000D02*
X119936000Y-51810000D01*
X129334000Y-51810000D02*
X129334000Y-44952000D01*
X129334000Y-48000000D02*
X129334000Y-51810000D01*
X129334000Y-51810000D02*
X127302000Y-51810000D01*
X121968000Y-44190000D02*
X124000000Y-44190000D01*
X124000000Y-44190000D02*
X118666000Y-44190000D01*
X124000000Y-44190000D02*
X129334000Y-44190000D01*
X129334000Y-44952000D02*
X129334000Y-44190000D01*
X118666000Y-44190000D02*
X118666000Y-44952000D01*
D11*
X145300000Y-92350000D02*
X145300000Y-91850000D01*
X145300000Y-92350000D02*
X145800000Y-92350000D01*
X145300000Y-67650000D02*
X145300000Y-68150000D01*
X145300000Y-67650000D02*
X145800000Y-67650000D01*
X165500000Y-67600000D02*
X165000000Y-67600000D01*
X165500000Y-67600000D02*
X165900000Y-68000000D01*
X165500000Y-92400000D02*
X165900000Y-92000000D01*
X165500000Y-92400000D02*
X165000000Y-92400000D01*
X173100000Y-75200000D02*
X172700000Y-74800000D01*
X173100000Y-75200000D02*
X173100000Y-75700000D01*
X173100000Y-84800000D02*
X173100000Y-84300000D01*
X173100000Y-84800000D02*
X172700000Y-85200000D01*
X156000000Y-67600000D02*
X152200000Y-67600000D01*
X156000000Y-92400000D02*
X152200000Y-92400000D01*
D12*
X128330000Y-96890000D02*
X127000000Y-96890000D01*
X128330000Y-95560000D02*
X128330000Y-96890000D01*
X128330000Y-94290000D02*
X125670000Y-94290000D01*
X125670000Y-94290000D02*
X125670000Y-58670000D01*
X128330000Y-94290000D02*
X128330000Y-58670000D01*
X128330000Y-58670000D02*
X125670000Y-58670000D01*
X96670000Y-58670000D02*
X98000000Y-58670000D01*
X96670000Y-60000000D02*
X96670000Y-58670000D01*
X96670000Y-61270000D02*
X99330000Y-61270000D01*
X99330000Y-61270000D02*
X99330000Y-96890000D01*
X96670000Y-61270000D02*
X96670000Y-96890000D01*
X96670000Y-96890000D02*
X99330000Y-96890000D01*
X138670000Y-65970000D02*
X140000000Y-65970000D01*
X138670000Y-67300000D02*
X138670000Y-65970000D01*
X138670000Y-68570000D02*
X141330000Y-68570000D01*
X141330000Y-68570000D02*
X141330000Y-81330000D01*
X138670000Y-68570000D02*
X138670000Y-81330000D01*
X138670000Y-81330000D02*
X141330000Y-81330000D01*
X121640000Y-56060000D02*
X103600000Y-56060000D01*
X121640000Y-99500000D02*
X121640000Y-56060000D01*
X103600000Y-99500000D02*
X121640000Y-99500000D01*
X106270000Y-96830000D02*
X103600000Y-96830000D01*
X106270000Y-61270000D02*
X106270000Y-96830000D01*
X106270000Y-61270000D02*
X103600000Y-61270000D01*
X118970000Y-96830000D02*
X121640000Y-96830000D01*
X118970000Y-58730000D02*
X118970000Y-96830000D01*
X118970000Y-58730000D02*
X121640000Y-58730000D01*
X103600000Y-56060000D02*
X103600000Y-58730000D01*
X103600000Y-61270000D02*
X103600000Y-99500000D01*
X106270000Y-58730000D02*
X103600000Y-58730000D01*
X106270000Y-61270000D02*
X106270000Y-58730000D01*
D10*
X155666666Y-95252380D02*
X155333333Y-94776190D01*
X155095238Y-95252380D02*
X155095238Y-94252380D01*
X155476190Y-94252380D01*
X155571428Y-94300000D01*
X155619047Y-94347619D01*
X155666666Y-94442857D01*
X155666666Y-94585714D01*
X155619047Y-94680952D01*
X155571428Y-94728571D01*
X155476190Y-94776190D01*
X155095238Y-94776190D01*
X156095238Y-94728571D02*
X156428571Y-94728571D01*
X156571428Y-95252380D02*
X156095238Y-95252380D01*
X156095238Y-94252380D01*
X156571428Y-94252380D01*
X157333333Y-94728571D02*
X157000000Y-94728571D01*
X157000000Y-95252380D02*
X157000000Y-94252380D01*
X157476190Y-94252380D01*
X158000000Y-94252380D02*
X158000000Y-94490476D01*
X157761904Y-94395238D02*
X158000000Y-94490476D01*
X158238095Y-94395238D01*
X157857142Y-94680952D02*
X158000000Y-94490476D01*
X158142857Y-94680952D01*
X158761904Y-94252380D02*
X158761904Y-94490476D01*
X158523809Y-94395238D02*
X158761904Y-94490476D01*
X159000000Y-94395238D01*
X158619047Y-94680952D02*
X158761904Y-94490476D01*
X158904761Y-94680952D01*
X94666666Y-44252380D02*
X94333333Y-43776190D01*
X94095238Y-44252380D02*
X94095238Y-43252380D01*
X94476190Y-43252380D01*
X94571428Y-43300000D01*
X94619047Y-43347619D01*
X94666666Y-43442857D01*
X94666666Y-43585714D01*
X94619047Y-43680952D01*
X94571428Y-43728571D01*
X94476190Y-43776190D01*
X94095238Y-43776190D01*
X95095238Y-43728571D02*
X95428571Y-43728571D01*
X95571428Y-44252380D02*
X95095238Y-44252380D01*
X95095238Y-43252380D01*
X95571428Y-43252380D01*
X96333333Y-43728571D02*
X96000000Y-43728571D01*
X96000000Y-44252380D02*
X96000000Y-43252380D01*
X96476190Y-43252380D01*
X97000000Y-43252380D02*
X97000000Y-43490476D01*
X96761904Y-43395238D02*
X97000000Y-43490476D01*
X97238095Y-43395238D01*
X96857142Y-43680952D02*
X97000000Y-43490476D01*
X97142857Y-43680952D01*
X97761904Y-43252380D02*
X97761904Y-43490476D01*
X97523809Y-43395238D02*
X97761904Y-43490476D01*
X98000000Y-43395238D01*
X97619047Y-43680952D02*
X97761904Y-43490476D01*
X97904761Y-43680952D01*
X141666666Y-44252380D02*
X141333333Y-43776190D01*
X141095238Y-44252380D02*
X141095238Y-43252380D01*
X141476190Y-43252380D01*
X141571428Y-43300000D01*
X141619047Y-43347619D01*
X141666666Y-43442857D01*
X141666666Y-43585714D01*
X141619047Y-43680952D01*
X141571428Y-43728571D01*
X141476190Y-43776190D01*
X141095238Y-43776190D01*
X142095238Y-43728571D02*
X142428571Y-43728571D01*
X142571428Y-44252380D02*
X142095238Y-44252380D01*
X142095238Y-43252380D01*
X142571428Y-43252380D01*
X143333333Y-43728571D02*
X143000000Y-43728571D01*
X143000000Y-44252380D02*
X143000000Y-43252380D01*
X143476190Y-43252380D01*
X144000000Y-43252380D02*
X144000000Y-43490476D01*
X143761904Y-43395238D02*
X144000000Y-43490476D01*
X144238095Y-43395238D01*
X143857142Y-43680952D02*
X144000000Y-43490476D01*
X144142857Y-43680952D01*
X144761904Y-43252380D02*
X144761904Y-43490476D01*
X144523809Y-43395238D02*
X144761904Y-43490476D01*
X145000000Y-43395238D01*
X144619047Y-43680952D02*
X144761904Y-43490476D01*
X144904761Y-43680952D01*
X126968666Y-52024380D02*
X126968666Y-52738666D01*
X126921047Y-52881523D01*
X126825809Y-52976761D01*
X126682952Y-53024380D01*
X126587714Y-53024380D01*
X127968666Y-53024380D02*
X127397238Y-53024380D01*
X127682952Y-53024380D02*
X127682952Y-52024380D01*
X127587714Y-52167238D01*
X127492476Y-52262476D01*
X127397238Y-52310095D01*
X173942380Y-80761904D02*
X174751904Y-80761904D01*
X174847142Y-80714285D01*
X174894761Y-80666666D01*
X174942380Y-80571428D01*
X174942380Y-80380952D01*
X174894761Y-80285714D01*
X174847142Y-80238095D01*
X174751904Y-80190476D01*
X173942380Y-80190476D01*
X174942380Y-79190476D02*
X174942380Y-79761904D01*
X174942380Y-79476190D02*
X173942380Y-79476190D01*
X174085238Y-79571428D01*
X174180476Y-79666666D01*
X174228095Y-79761904D01*
X126666666Y-97342380D02*
X126666666Y-98056666D01*
X126619047Y-98199523D01*
X126523809Y-98294761D01*
X126380952Y-98342380D01*
X126285714Y-98342380D01*
X127571428Y-97675714D02*
X127571428Y-98342380D01*
X127333333Y-97294761D02*
X127095238Y-98009047D01*
X127714285Y-98009047D01*
X97666666Y-57122380D02*
X97666666Y-57836666D01*
X97619047Y-57979523D01*
X97523809Y-58074761D01*
X97380952Y-58122380D01*
X97285714Y-58122380D01*
X98047619Y-57122380D02*
X98666666Y-57122380D01*
X98333333Y-57503333D01*
X98476190Y-57503333D01*
X98571428Y-57550952D01*
X98619047Y-57598571D01*
X98666666Y-57693809D01*
X98666666Y-57931904D01*
X98619047Y-58027142D01*
X98571428Y-58074761D01*
X98476190Y-58122380D01*
X98190476Y-58122380D01*
X98095238Y-58074761D01*
X98047619Y-58027142D01*
X139666666Y-64422380D02*
X139666666Y-65136666D01*
X139619047Y-65279523D01*
X139523809Y-65374761D01*
X139380952Y-65422380D01*
X139285714Y-65422380D01*
X140095238Y-64517619D02*
X140142857Y-64470000D01*
X140238095Y-64422380D01*
X140476190Y-64422380D01*
X140571428Y-64470000D01*
X140619047Y-64517619D01*
X140666666Y-64612857D01*
X140666666Y-64708095D01*
X140619047Y-64850952D01*
X140047619Y-65422380D01*
X140666666Y-65422380D01*
X111905714Y-55086666D02*
X112381904Y-55086666D01*
X111810476Y-55372380D02*
X112143809Y-54372380D01*
X112477142Y-55372380D01*
X113334285Y-55372380D02*
X112762857Y-55372380D01*
X113048571Y-55372380D02*
X113048571Y-54372380D01*
X112953333Y-54515238D01*
X112858095Y-54610476D01*
X112762857Y-54658095D01*
M02*
