G04 #@! TF.GenerationSoftware,KiCad,Pcbnew,5.1.5-52549c5~84~ubuntu19.04.1*
G04 #@! TF.CreationDate,2019-12-02T22:34:06+01:00*
G04 #@! TF.ProjectId,XbeeTestBench,58626565-5465-4737-9442-656e63682e6b,rev?*
G04 #@! TF.SameCoordinates,Original*
G04 #@! TF.FileFunction,Soldermask,Top*
G04 #@! TF.FilePolarity,Negative*
%FSLAX46Y46*%
G04 Gerber Fmt 4.6, Leading zero omitted, Abs format (unit mm)*
G04 Created by KiCad (PCBNEW 5.1.5-52549c5~84~ubuntu19.04.1) date 2019-12-02 22:34:06*
%MOMM*%
%LPD*%
G04 APERTURE LIST*
%ADD10C,0.100000*%
G04 APERTURE END LIST*
D10*
G36*
X157214795Y-96920156D02*
G01*
X157321150Y-96941311D01*
X157421334Y-96982809D01*
X157521520Y-97024307D01*
X157701844Y-97144795D01*
X157855205Y-97298156D01*
X157975693Y-97478480D01*
X158058689Y-97678851D01*
X158101000Y-97891560D01*
X158101000Y-98108440D01*
X158058689Y-98321149D01*
X157975693Y-98521520D01*
X157855205Y-98701844D01*
X157701844Y-98855205D01*
X157521520Y-98975693D01*
X157321150Y-99058689D01*
X157214794Y-99079845D01*
X157108440Y-99101000D01*
X156891560Y-99101000D01*
X156785206Y-99079845D01*
X156678850Y-99058689D01*
X156478480Y-98975693D01*
X156298156Y-98855205D01*
X156144795Y-98701844D01*
X156024307Y-98521520D01*
X155941311Y-98321149D01*
X155899000Y-98108440D01*
X155899000Y-97891560D01*
X155941311Y-97678851D01*
X156024307Y-97478480D01*
X156144795Y-97298156D01*
X156298156Y-97144795D01*
X156478480Y-97024307D01*
X156578666Y-96982809D01*
X156678850Y-96941311D01*
X156785205Y-96920156D01*
X156891560Y-96899000D01*
X157108440Y-96899000D01*
X157214795Y-96920156D01*
G37*
G36*
X127901000Y-96461000D02*
G01*
X126099000Y-96461000D01*
X126099000Y-94659000D01*
X127901000Y-94659000D01*
X127901000Y-96461000D01*
G37*
G36*
X98113512Y-94663927D02*
G01*
X98262812Y-94693624D01*
X98426784Y-94761544D01*
X98574354Y-94860147D01*
X98699853Y-94985646D01*
X98798456Y-95133216D01*
X98866376Y-95297188D01*
X98901000Y-95471259D01*
X98901000Y-95648741D01*
X98866376Y-95822812D01*
X98798456Y-95986784D01*
X98699853Y-96134354D01*
X98574354Y-96259853D01*
X98426784Y-96358456D01*
X98262812Y-96426376D01*
X98113512Y-96456073D01*
X98088742Y-96461000D01*
X97911258Y-96461000D01*
X97886488Y-96456073D01*
X97737188Y-96426376D01*
X97573216Y-96358456D01*
X97425646Y-96259853D01*
X97300147Y-96134354D01*
X97201544Y-95986784D01*
X97133624Y-95822812D01*
X97099000Y-95648741D01*
X97099000Y-95471259D01*
X97133624Y-95297188D01*
X97201544Y-95133216D01*
X97300147Y-94985646D01*
X97425646Y-94860147D01*
X97573216Y-94761544D01*
X97737188Y-94693624D01*
X97886488Y-94663927D01*
X97911258Y-94659000D01*
X98088742Y-94659000D01*
X98113512Y-94663927D01*
G37*
G36*
X120488228Y-94741703D02*
G01*
X120643100Y-94805853D01*
X120782481Y-94898985D01*
X120901015Y-95017519D01*
X120994147Y-95156900D01*
X121058297Y-95311772D01*
X121091000Y-95476184D01*
X121091000Y-95643816D01*
X121058297Y-95808228D01*
X120994147Y-95963100D01*
X120901015Y-96102481D01*
X120782481Y-96221015D01*
X120643100Y-96314147D01*
X120488228Y-96378297D01*
X120323816Y-96411000D01*
X120156184Y-96411000D01*
X119991772Y-96378297D01*
X119836900Y-96314147D01*
X119697519Y-96221015D01*
X119578985Y-96102481D01*
X119485853Y-95963100D01*
X119421703Y-95808228D01*
X119389000Y-95643816D01*
X119389000Y-95476184D01*
X119421703Y-95311772D01*
X119485853Y-95156900D01*
X119578985Y-95017519D01*
X119697519Y-94898985D01*
X119836900Y-94805853D01*
X119991772Y-94741703D01*
X120156184Y-94709000D01*
X120323816Y-94709000D01*
X120488228Y-94741703D01*
G37*
G36*
X105248228Y-94741703D02*
G01*
X105403100Y-94805853D01*
X105542481Y-94898985D01*
X105661015Y-95017519D01*
X105754147Y-95156900D01*
X105818297Y-95311772D01*
X105851000Y-95476184D01*
X105851000Y-95643816D01*
X105818297Y-95808228D01*
X105754147Y-95963100D01*
X105661015Y-96102481D01*
X105542481Y-96221015D01*
X105403100Y-96314147D01*
X105248228Y-96378297D01*
X105083816Y-96411000D01*
X104916184Y-96411000D01*
X104751772Y-96378297D01*
X104596900Y-96314147D01*
X104457519Y-96221015D01*
X104338985Y-96102481D01*
X104245853Y-95963100D01*
X104181703Y-95808228D01*
X104149000Y-95643816D01*
X104149000Y-95476184D01*
X104181703Y-95311772D01*
X104245853Y-95156900D01*
X104338985Y-95017519D01*
X104457519Y-94898985D01*
X104596900Y-94805853D01*
X104751772Y-94741703D01*
X104916184Y-94709000D01*
X105083816Y-94709000D01*
X105248228Y-94741703D01*
G37*
G36*
X127113512Y-92123927D02*
G01*
X127262812Y-92153624D01*
X127426784Y-92221544D01*
X127574354Y-92320147D01*
X127699853Y-92445646D01*
X127798456Y-92593216D01*
X127866376Y-92757188D01*
X127901000Y-92931259D01*
X127901000Y-93108741D01*
X127866376Y-93282812D01*
X127798456Y-93446784D01*
X127699853Y-93594354D01*
X127574354Y-93719853D01*
X127426784Y-93818456D01*
X127262812Y-93886376D01*
X127113512Y-93916073D01*
X127088742Y-93921000D01*
X126911258Y-93921000D01*
X126886488Y-93916073D01*
X126737188Y-93886376D01*
X126573216Y-93818456D01*
X126425646Y-93719853D01*
X126300147Y-93594354D01*
X126201544Y-93446784D01*
X126133624Y-93282812D01*
X126099000Y-93108741D01*
X126099000Y-92931259D01*
X126133624Y-92757188D01*
X126201544Y-92593216D01*
X126300147Y-92445646D01*
X126425646Y-92320147D01*
X126573216Y-92221544D01*
X126737188Y-92153624D01*
X126886488Y-92123927D01*
X126911258Y-92119000D01*
X127088742Y-92119000D01*
X127113512Y-92123927D01*
G37*
G36*
X98113512Y-92123927D02*
G01*
X98262812Y-92153624D01*
X98426784Y-92221544D01*
X98574354Y-92320147D01*
X98699853Y-92445646D01*
X98798456Y-92593216D01*
X98866376Y-92757188D01*
X98901000Y-92931259D01*
X98901000Y-93108741D01*
X98866376Y-93282812D01*
X98798456Y-93446784D01*
X98699853Y-93594354D01*
X98574354Y-93719853D01*
X98426784Y-93818456D01*
X98262812Y-93886376D01*
X98113512Y-93916073D01*
X98088742Y-93921000D01*
X97911258Y-93921000D01*
X97886488Y-93916073D01*
X97737188Y-93886376D01*
X97573216Y-93818456D01*
X97425646Y-93719853D01*
X97300147Y-93594354D01*
X97201544Y-93446784D01*
X97133624Y-93282812D01*
X97099000Y-93108741D01*
X97099000Y-92931259D01*
X97133624Y-92757188D01*
X97201544Y-92593216D01*
X97300147Y-92445646D01*
X97425646Y-92320147D01*
X97573216Y-92221544D01*
X97737188Y-92153624D01*
X97886488Y-92123927D01*
X97911258Y-92119000D01*
X98088742Y-92119000D01*
X98113512Y-92123927D01*
G37*
G36*
X120488228Y-92201703D02*
G01*
X120643100Y-92265853D01*
X120782481Y-92358985D01*
X120901015Y-92477519D01*
X120994147Y-92616900D01*
X121058297Y-92771772D01*
X121091000Y-92936184D01*
X121091000Y-93103816D01*
X121058297Y-93268228D01*
X120994147Y-93423100D01*
X120901015Y-93562481D01*
X120782481Y-93681015D01*
X120643100Y-93774147D01*
X120488228Y-93838297D01*
X120323816Y-93871000D01*
X120156184Y-93871000D01*
X119991772Y-93838297D01*
X119836900Y-93774147D01*
X119697519Y-93681015D01*
X119578985Y-93562481D01*
X119485853Y-93423100D01*
X119421703Y-93268228D01*
X119389000Y-93103816D01*
X119389000Y-92936184D01*
X119421703Y-92771772D01*
X119485853Y-92616900D01*
X119578985Y-92477519D01*
X119697519Y-92358985D01*
X119836900Y-92265853D01*
X119991772Y-92201703D01*
X120156184Y-92169000D01*
X120323816Y-92169000D01*
X120488228Y-92201703D01*
G37*
G36*
X105248228Y-92201703D02*
G01*
X105403100Y-92265853D01*
X105542481Y-92358985D01*
X105661015Y-92477519D01*
X105754147Y-92616900D01*
X105818297Y-92771772D01*
X105851000Y-92936184D01*
X105851000Y-93103816D01*
X105818297Y-93268228D01*
X105754147Y-93423100D01*
X105661015Y-93562481D01*
X105542481Y-93681015D01*
X105403100Y-93774147D01*
X105248228Y-93838297D01*
X105083816Y-93871000D01*
X104916184Y-93871000D01*
X104751772Y-93838297D01*
X104596900Y-93774147D01*
X104457519Y-93681015D01*
X104338985Y-93562481D01*
X104245853Y-93423100D01*
X104181703Y-93268228D01*
X104149000Y-93103816D01*
X104149000Y-92936184D01*
X104181703Y-92771772D01*
X104245853Y-92616900D01*
X104338985Y-92477519D01*
X104457519Y-92358985D01*
X104596900Y-92265853D01*
X104751772Y-92201703D01*
X104916184Y-92169000D01*
X105083816Y-92169000D01*
X105248228Y-92201703D01*
G37*
G36*
X147113512Y-90103927D02*
G01*
X147262812Y-90133624D01*
X147426784Y-90201544D01*
X147574354Y-90300147D01*
X147699853Y-90425646D01*
X147798456Y-90573216D01*
X147866376Y-90737188D01*
X147877405Y-90792638D01*
X147884516Y-90816078D01*
X147896067Y-90837689D01*
X147911613Y-90856631D01*
X147930555Y-90872176D01*
X147952165Y-90883727D01*
X147975614Y-90890840D01*
X148000000Y-90893242D01*
X148024387Y-90890840D01*
X148047835Y-90883727D01*
X148069446Y-90872176D01*
X148088388Y-90856630D01*
X148103933Y-90837688D01*
X148115484Y-90816078D01*
X148122595Y-90792638D01*
X148133624Y-90737188D01*
X148201544Y-90573216D01*
X148300147Y-90425646D01*
X148425646Y-90300147D01*
X148573216Y-90201544D01*
X148737188Y-90133624D01*
X148886488Y-90103927D01*
X148911258Y-90099000D01*
X149088742Y-90099000D01*
X149113512Y-90103927D01*
X149262812Y-90133624D01*
X149426784Y-90201544D01*
X149574354Y-90300147D01*
X149699853Y-90425646D01*
X149798456Y-90573216D01*
X149866376Y-90737188D01*
X149877405Y-90792638D01*
X149884516Y-90816078D01*
X149896067Y-90837689D01*
X149911613Y-90856631D01*
X149930555Y-90872176D01*
X149952165Y-90883727D01*
X149975614Y-90890840D01*
X150000000Y-90893242D01*
X150024387Y-90890840D01*
X150047835Y-90883727D01*
X150069446Y-90872176D01*
X150088388Y-90856630D01*
X150103933Y-90837688D01*
X150115484Y-90816078D01*
X150122595Y-90792638D01*
X150133624Y-90737188D01*
X150201544Y-90573216D01*
X150300147Y-90425646D01*
X150425646Y-90300147D01*
X150573216Y-90201544D01*
X150737188Y-90133624D01*
X150886488Y-90103927D01*
X150911258Y-90099000D01*
X151088742Y-90099000D01*
X151113512Y-90103927D01*
X151262812Y-90133624D01*
X151426784Y-90201544D01*
X151574354Y-90300147D01*
X151699853Y-90425646D01*
X151798456Y-90573216D01*
X151866376Y-90737188D01*
X151877405Y-90792638D01*
X151884516Y-90816078D01*
X151896067Y-90837689D01*
X151911613Y-90856631D01*
X151930555Y-90872176D01*
X151952165Y-90883727D01*
X151975614Y-90890840D01*
X152000000Y-90893242D01*
X152024387Y-90890840D01*
X152047835Y-90883727D01*
X152069446Y-90872176D01*
X152088388Y-90856630D01*
X152103933Y-90837688D01*
X152115484Y-90816078D01*
X152122595Y-90792638D01*
X152133624Y-90737188D01*
X152201544Y-90573216D01*
X152300147Y-90425646D01*
X152425646Y-90300147D01*
X152573216Y-90201544D01*
X152737188Y-90133624D01*
X152886488Y-90103927D01*
X152911258Y-90099000D01*
X153088742Y-90099000D01*
X153113512Y-90103927D01*
X153262812Y-90133624D01*
X153426784Y-90201544D01*
X153574354Y-90300147D01*
X153699853Y-90425646D01*
X153798456Y-90573216D01*
X153866376Y-90737188D01*
X153877405Y-90792638D01*
X153884516Y-90816078D01*
X153896067Y-90837689D01*
X153911613Y-90856631D01*
X153930555Y-90872176D01*
X153952165Y-90883727D01*
X153975614Y-90890840D01*
X154000000Y-90893242D01*
X154024387Y-90890840D01*
X154047835Y-90883727D01*
X154069446Y-90872176D01*
X154088388Y-90856630D01*
X154103933Y-90837688D01*
X154115484Y-90816078D01*
X154122595Y-90792638D01*
X154133624Y-90737188D01*
X154201544Y-90573216D01*
X154300147Y-90425646D01*
X154425646Y-90300147D01*
X154573216Y-90201544D01*
X154737188Y-90133624D01*
X154886488Y-90103927D01*
X154911258Y-90099000D01*
X155088742Y-90099000D01*
X155113512Y-90103927D01*
X155262812Y-90133624D01*
X155426784Y-90201544D01*
X155574354Y-90300147D01*
X155699853Y-90425646D01*
X155798456Y-90573216D01*
X155866376Y-90737188D01*
X155877405Y-90792638D01*
X155884516Y-90816078D01*
X155896067Y-90837689D01*
X155911613Y-90856631D01*
X155930555Y-90872176D01*
X155952165Y-90883727D01*
X155975614Y-90890840D01*
X156000000Y-90893242D01*
X156024387Y-90890840D01*
X156047835Y-90883727D01*
X156069446Y-90872176D01*
X156088388Y-90856630D01*
X156103933Y-90837688D01*
X156115484Y-90816078D01*
X156122595Y-90792638D01*
X156133624Y-90737188D01*
X156201544Y-90573216D01*
X156300147Y-90425646D01*
X156425646Y-90300147D01*
X156573216Y-90201544D01*
X156737188Y-90133624D01*
X156886488Y-90103927D01*
X156911258Y-90099000D01*
X157088742Y-90099000D01*
X157113512Y-90103927D01*
X157262812Y-90133624D01*
X157426784Y-90201544D01*
X157574354Y-90300147D01*
X157699853Y-90425646D01*
X157798456Y-90573216D01*
X157866376Y-90737188D01*
X157877405Y-90792638D01*
X157884516Y-90816078D01*
X157896067Y-90837689D01*
X157911613Y-90856631D01*
X157930555Y-90872176D01*
X157952165Y-90883727D01*
X157975614Y-90890840D01*
X158000000Y-90893242D01*
X158024387Y-90890840D01*
X158047835Y-90883727D01*
X158069446Y-90872176D01*
X158088388Y-90856630D01*
X158103933Y-90837688D01*
X158115484Y-90816078D01*
X158122595Y-90792638D01*
X158133624Y-90737188D01*
X158201544Y-90573216D01*
X158300147Y-90425646D01*
X158425646Y-90300147D01*
X158573216Y-90201544D01*
X158737188Y-90133624D01*
X158886488Y-90103927D01*
X158911258Y-90099000D01*
X159088742Y-90099000D01*
X159113512Y-90103927D01*
X159262812Y-90133624D01*
X159426784Y-90201544D01*
X159574354Y-90300147D01*
X159699853Y-90425646D01*
X159798456Y-90573216D01*
X159866376Y-90737188D01*
X159877405Y-90792638D01*
X159884516Y-90816078D01*
X159896067Y-90837689D01*
X159911613Y-90856631D01*
X159930555Y-90872176D01*
X159952165Y-90883727D01*
X159975614Y-90890840D01*
X160000000Y-90893242D01*
X160024387Y-90890840D01*
X160047835Y-90883727D01*
X160069446Y-90872176D01*
X160088388Y-90856630D01*
X160103933Y-90837688D01*
X160115484Y-90816078D01*
X160122595Y-90792638D01*
X160133624Y-90737188D01*
X160201544Y-90573216D01*
X160300147Y-90425646D01*
X160425646Y-90300147D01*
X160573216Y-90201544D01*
X160737188Y-90133624D01*
X160886488Y-90103927D01*
X160911258Y-90099000D01*
X161088742Y-90099000D01*
X161113512Y-90103927D01*
X161262812Y-90133624D01*
X161426784Y-90201544D01*
X161574354Y-90300147D01*
X161699853Y-90425646D01*
X161798456Y-90573216D01*
X161866376Y-90737188D01*
X161877405Y-90792638D01*
X161884516Y-90816078D01*
X161896067Y-90837689D01*
X161911613Y-90856631D01*
X161930555Y-90872176D01*
X161952165Y-90883727D01*
X161975614Y-90890840D01*
X162000000Y-90893242D01*
X162024387Y-90890840D01*
X162047835Y-90883727D01*
X162069446Y-90872176D01*
X162088388Y-90856630D01*
X162103933Y-90837688D01*
X162115484Y-90816078D01*
X162122595Y-90792638D01*
X162133624Y-90737188D01*
X162201544Y-90573216D01*
X162300147Y-90425646D01*
X162425646Y-90300147D01*
X162573216Y-90201544D01*
X162737188Y-90133624D01*
X162886488Y-90103927D01*
X162911258Y-90099000D01*
X163088742Y-90099000D01*
X163113512Y-90103927D01*
X163262812Y-90133624D01*
X163426784Y-90201544D01*
X163574354Y-90300147D01*
X163699853Y-90425646D01*
X163798456Y-90573216D01*
X163866376Y-90737188D01*
X163877405Y-90792638D01*
X163884516Y-90816078D01*
X163896067Y-90837689D01*
X163911613Y-90856631D01*
X163930555Y-90872176D01*
X163952165Y-90883727D01*
X163975614Y-90890840D01*
X164000000Y-90893242D01*
X164024387Y-90890840D01*
X164047835Y-90883727D01*
X164069446Y-90872176D01*
X164088388Y-90856630D01*
X164103933Y-90837688D01*
X164115484Y-90816078D01*
X164122595Y-90792638D01*
X164133624Y-90737188D01*
X164201544Y-90573216D01*
X164300147Y-90425646D01*
X164425646Y-90300147D01*
X164573216Y-90201544D01*
X164737188Y-90133624D01*
X164886488Y-90103927D01*
X164911258Y-90099000D01*
X165088742Y-90099000D01*
X165113512Y-90103927D01*
X165262812Y-90133624D01*
X165426784Y-90201544D01*
X165574354Y-90300147D01*
X165699853Y-90425646D01*
X165798456Y-90573216D01*
X165866376Y-90737188D01*
X165886366Y-90837688D01*
X165900110Y-90906782D01*
X165901000Y-90911259D01*
X165901000Y-91088741D01*
X165866376Y-91262812D01*
X165798456Y-91426784D01*
X165699853Y-91574354D01*
X165574354Y-91699853D01*
X165426784Y-91798456D01*
X165262812Y-91866376D01*
X165113512Y-91896073D01*
X165088742Y-91901000D01*
X164911258Y-91901000D01*
X164886488Y-91896073D01*
X164737188Y-91866376D01*
X164573216Y-91798456D01*
X164425646Y-91699853D01*
X164300147Y-91574354D01*
X164201544Y-91426784D01*
X164133624Y-91262812D01*
X164122595Y-91207362D01*
X164115484Y-91183922D01*
X164103933Y-91162311D01*
X164088387Y-91143369D01*
X164069445Y-91127824D01*
X164047835Y-91116273D01*
X164024386Y-91109160D01*
X164000000Y-91106758D01*
X163975613Y-91109160D01*
X163952165Y-91116273D01*
X163930554Y-91127824D01*
X163911612Y-91143370D01*
X163896067Y-91162312D01*
X163884516Y-91183922D01*
X163877405Y-91207362D01*
X163866376Y-91262812D01*
X163798456Y-91426784D01*
X163699853Y-91574354D01*
X163574354Y-91699853D01*
X163426784Y-91798456D01*
X163262812Y-91866376D01*
X163113512Y-91896073D01*
X163088742Y-91901000D01*
X162911258Y-91901000D01*
X162886488Y-91896073D01*
X162737188Y-91866376D01*
X162573216Y-91798456D01*
X162425646Y-91699853D01*
X162300147Y-91574354D01*
X162201544Y-91426784D01*
X162133624Y-91262812D01*
X162122595Y-91207362D01*
X162115484Y-91183922D01*
X162103933Y-91162311D01*
X162088387Y-91143369D01*
X162069445Y-91127824D01*
X162047835Y-91116273D01*
X162024386Y-91109160D01*
X162000000Y-91106758D01*
X161975613Y-91109160D01*
X161952165Y-91116273D01*
X161930554Y-91127824D01*
X161911612Y-91143370D01*
X161896067Y-91162312D01*
X161884516Y-91183922D01*
X161877405Y-91207362D01*
X161866376Y-91262812D01*
X161798456Y-91426784D01*
X161699853Y-91574354D01*
X161574354Y-91699853D01*
X161426784Y-91798456D01*
X161262812Y-91866376D01*
X161113512Y-91896073D01*
X161088742Y-91901000D01*
X160911258Y-91901000D01*
X160886488Y-91896073D01*
X160737188Y-91866376D01*
X160573216Y-91798456D01*
X160425646Y-91699853D01*
X160300147Y-91574354D01*
X160201544Y-91426784D01*
X160133624Y-91262812D01*
X160122595Y-91207362D01*
X160115484Y-91183922D01*
X160103933Y-91162311D01*
X160088387Y-91143369D01*
X160069445Y-91127824D01*
X160047835Y-91116273D01*
X160024386Y-91109160D01*
X160000000Y-91106758D01*
X159975613Y-91109160D01*
X159952165Y-91116273D01*
X159930554Y-91127824D01*
X159911612Y-91143370D01*
X159896067Y-91162312D01*
X159884516Y-91183922D01*
X159877405Y-91207362D01*
X159866376Y-91262812D01*
X159798456Y-91426784D01*
X159699853Y-91574354D01*
X159574354Y-91699853D01*
X159426784Y-91798456D01*
X159262812Y-91866376D01*
X159113512Y-91896073D01*
X159088742Y-91901000D01*
X158911258Y-91901000D01*
X158886488Y-91896073D01*
X158737188Y-91866376D01*
X158573216Y-91798456D01*
X158425646Y-91699853D01*
X158300147Y-91574354D01*
X158201544Y-91426784D01*
X158133624Y-91262812D01*
X158122595Y-91207362D01*
X158115484Y-91183922D01*
X158103933Y-91162311D01*
X158088387Y-91143369D01*
X158069445Y-91127824D01*
X158047835Y-91116273D01*
X158024386Y-91109160D01*
X158000000Y-91106758D01*
X157975613Y-91109160D01*
X157952165Y-91116273D01*
X157930554Y-91127824D01*
X157911612Y-91143370D01*
X157896067Y-91162312D01*
X157884516Y-91183922D01*
X157877405Y-91207362D01*
X157866376Y-91262812D01*
X157798456Y-91426784D01*
X157699853Y-91574354D01*
X157574354Y-91699853D01*
X157426784Y-91798456D01*
X157262812Y-91866376D01*
X157113512Y-91896073D01*
X157088742Y-91901000D01*
X156911258Y-91901000D01*
X156886488Y-91896073D01*
X156737188Y-91866376D01*
X156573216Y-91798456D01*
X156425646Y-91699853D01*
X156300147Y-91574354D01*
X156201544Y-91426784D01*
X156133624Y-91262812D01*
X156122595Y-91207362D01*
X156115484Y-91183922D01*
X156103933Y-91162311D01*
X156088387Y-91143369D01*
X156069445Y-91127824D01*
X156047835Y-91116273D01*
X156024386Y-91109160D01*
X156000000Y-91106758D01*
X155975613Y-91109160D01*
X155952165Y-91116273D01*
X155930554Y-91127824D01*
X155911612Y-91143370D01*
X155896067Y-91162312D01*
X155884516Y-91183922D01*
X155877405Y-91207362D01*
X155866376Y-91262812D01*
X155798456Y-91426784D01*
X155699853Y-91574354D01*
X155574354Y-91699853D01*
X155426784Y-91798456D01*
X155262812Y-91866376D01*
X155113512Y-91896073D01*
X155088742Y-91901000D01*
X154911258Y-91901000D01*
X154886488Y-91896073D01*
X154737188Y-91866376D01*
X154573216Y-91798456D01*
X154425646Y-91699853D01*
X154300147Y-91574354D01*
X154201544Y-91426784D01*
X154133624Y-91262812D01*
X154122595Y-91207362D01*
X154115484Y-91183922D01*
X154103933Y-91162311D01*
X154088387Y-91143369D01*
X154069445Y-91127824D01*
X154047835Y-91116273D01*
X154024386Y-91109160D01*
X154000000Y-91106758D01*
X153975613Y-91109160D01*
X153952165Y-91116273D01*
X153930554Y-91127824D01*
X153911612Y-91143370D01*
X153896067Y-91162312D01*
X153884516Y-91183922D01*
X153877405Y-91207362D01*
X153866376Y-91262812D01*
X153798456Y-91426784D01*
X153699853Y-91574354D01*
X153574354Y-91699853D01*
X153426784Y-91798456D01*
X153262812Y-91866376D01*
X153113512Y-91896073D01*
X153088742Y-91901000D01*
X152911258Y-91901000D01*
X152886488Y-91896073D01*
X152737188Y-91866376D01*
X152573216Y-91798456D01*
X152425646Y-91699853D01*
X152300147Y-91574354D01*
X152201544Y-91426784D01*
X152133624Y-91262812D01*
X152122595Y-91207362D01*
X152115484Y-91183922D01*
X152103933Y-91162311D01*
X152088387Y-91143369D01*
X152069445Y-91127824D01*
X152047835Y-91116273D01*
X152024386Y-91109160D01*
X152000000Y-91106758D01*
X151975613Y-91109160D01*
X151952165Y-91116273D01*
X151930554Y-91127824D01*
X151911612Y-91143370D01*
X151896067Y-91162312D01*
X151884516Y-91183922D01*
X151877405Y-91207362D01*
X151866376Y-91262812D01*
X151798456Y-91426784D01*
X151699853Y-91574354D01*
X151574354Y-91699853D01*
X151426784Y-91798456D01*
X151262812Y-91866376D01*
X151113512Y-91896073D01*
X151088742Y-91901000D01*
X150911258Y-91901000D01*
X150886488Y-91896073D01*
X150737188Y-91866376D01*
X150573216Y-91798456D01*
X150425646Y-91699853D01*
X150300147Y-91574354D01*
X150201544Y-91426784D01*
X150133624Y-91262812D01*
X150122595Y-91207362D01*
X150115484Y-91183922D01*
X150103933Y-91162311D01*
X150088387Y-91143369D01*
X150069445Y-91127824D01*
X150047835Y-91116273D01*
X150024386Y-91109160D01*
X150000000Y-91106758D01*
X149975613Y-91109160D01*
X149952165Y-91116273D01*
X149930554Y-91127824D01*
X149911612Y-91143370D01*
X149896067Y-91162312D01*
X149884516Y-91183922D01*
X149877405Y-91207362D01*
X149866376Y-91262812D01*
X149798456Y-91426784D01*
X149699853Y-91574354D01*
X149574354Y-91699853D01*
X149426784Y-91798456D01*
X149262812Y-91866376D01*
X149113512Y-91896073D01*
X149088742Y-91901000D01*
X148911258Y-91901000D01*
X148886488Y-91896073D01*
X148737188Y-91866376D01*
X148573216Y-91798456D01*
X148425646Y-91699853D01*
X148300147Y-91574354D01*
X148201544Y-91426784D01*
X148133624Y-91262812D01*
X148122595Y-91207362D01*
X148115484Y-91183922D01*
X148103933Y-91162311D01*
X148088387Y-91143369D01*
X148069445Y-91127824D01*
X148047835Y-91116273D01*
X148024386Y-91109160D01*
X148000000Y-91106758D01*
X147975613Y-91109160D01*
X147952165Y-91116273D01*
X147930554Y-91127824D01*
X147911612Y-91143370D01*
X147896067Y-91162312D01*
X147884516Y-91183922D01*
X147877405Y-91207362D01*
X147866376Y-91262812D01*
X147798456Y-91426784D01*
X147699853Y-91574354D01*
X147574354Y-91699853D01*
X147426784Y-91798456D01*
X147262812Y-91866376D01*
X147113512Y-91896073D01*
X147088742Y-91901000D01*
X146911258Y-91901000D01*
X146886488Y-91896073D01*
X146737188Y-91866376D01*
X146573216Y-91798456D01*
X146425646Y-91699853D01*
X146300147Y-91574354D01*
X146201544Y-91426784D01*
X146133624Y-91262812D01*
X146099000Y-91088741D01*
X146099000Y-90911259D01*
X146099891Y-90906782D01*
X146113634Y-90837688D01*
X146133624Y-90737188D01*
X146201544Y-90573216D01*
X146300147Y-90425646D01*
X146425646Y-90300147D01*
X146573216Y-90201544D01*
X146737188Y-90133624D01*
X146886488Y-90103927D01*
X146911258Y-90099000D01*
X147088742Y-90099000D01*
X147113512Y-90103927D01*
G37*
G36*
X98113512Y-89583927D02*
G01*
X98262812Y-89613624D01*
X98426784Y-89681544D01*
X98574354Y-89780147D01*
X98699853Y-89905646D01*
X98798456Y-90053216D01*
X98866376Y-90217188D01*
X98882877Y-90300147D01*
X98901000Y-90391258D01*
X98901000Y-90568742D01*
X98896073Y-90593512D01*
X98866376Y-90742812D01*
X98798456Y-90906784D01*
X98699853Y-91054354D01*
X98574354Y-91179853D01*
X98426784Y-91278456D01*
X98262812Y-91346376D01*
X98113512Y-91376073D01*
X98088742Y-91381000D01*
X97911258Y-91381000D01*
X97886488Y-91376073D01*
X97737188Y-91346376D01*
X97573216Y-91278456D01*
X97425646Y-91179853D01*
X97300147Y-91054354D01*
X97201544Y-90906784D01*
X97133624Y-90742812D01*
X97103927Y-90593512D01*
X97099000Y-90568742D01*
X97099000Y-90391258D01*
X97117123Y-90300147D01*
X97133624Y-90217188D01*
X97201544Y-90053216D01*
X97300147Y-89905646D01*
X97425646Y-89780147D01*
X97573216Y-89681544D01*
X97737188Y-89613624D01*
X97886488Y-89583927D01*
X97911258Y-89579000D01*
X98088742Y-89579000D01*
X98113512Y-89583927D01*
G37*
G36*
X127113512Y-89583927D02*
G01*
X127262812Y-89613624D01*
X127426784Y-89681544D01*
X127574354Y-89780147D01*
X127699853Y-89905646D01*
X127798456Y-90053216D01*
X127866376Y-90217188D01*
X127882877Y-90300147D01*
X127901000Y-90391258D01*
X127901000Y-90568742D01*
X127896073Y-90593512D01*
X127866376Y-90742812D01*
X127798456Y-90906784D01*
X127699853Y-91054354D01*
X127574354Y-91179853D01*
X127426784Y-91278456D01*
X127262812Y-91346376D01*
X127113512Y-91376073D01*
X127088742Y-91381000D01*
X126911258Y-91381000D01*
X126886488Y-91376073D01*
X126737188Y-91346376D01*
X126573216Y-91278456D01*
X126425646Y-91179853D01*
X126300147Y-91054354D01*
X126201544Y-90906784D01*
X126133624Y-90742812D01*
X126103927Y-90593512D01*
X126099000Y-90568742D01*
X126099000Y-90391258D01*
X126117123Y-90300147D01*
X126133624Y-90217188D01*
X126201544Y-90053216D01*
X126300147Y-89905646D01*
X126425646Y-89780147D01*
X126573216Y-89681544D01*
X126737188Y-89613624D01*
X126886488Y-89583927D01*
X126911258Y-89579000D01*
X127088742Y-89579000D01*
X127113512Y-89583927D01*
G37*
G36*
X120488228Y-89661703D02*
G01*
X120643100Y-89725853D01*
X120782481Y-89818985D01*
X120901015Y-89937519D01*
X120994147Y-90076900D01*
X121058297Y-90231772D01*
X121091000Y-90396184D01*
X121091000Y-90563816D01*
X121058297Y-90728228D01*
X120994147Y-90883100D01*
X120901015Y-91022481D01*
X120782481Y-91141015D01*
X120643100Y-91234147D01*
X120488228Y-91298297D01*
X120323816Y-91331000D01*
X120156184Y-91331000D01*
X119991772Y-91298297D01*
X119836900Y-91234147D01*
X119697519Y-91141015D01*
X119578985Y-91022481D01*
X119485853Y-90883100D01*
X119421703Y-90728228D01*
X119389000Y-90563816D01*
X119389000Y-90396184D01*
X119421703Y-90231772D01*
X119485853Y-90076900D01*
X119578985Y-89937519D01*
X119697519Y-89818985D01*
X119836900Y-89725853D01*
X119991772Y-89661703D01*
X120156184Y-89629000D01*
X120323816Y-89629000D01*
X120488228Y-89661703D01*
G37*
G36*
X105248228Y-89661703D02*
G01*
X105403100Y-89725853D01*
X105542481Y-89818985D01*
X105661015Y-89937519D01*
X105754147Y-90076900D01*
X105818297Y-90231772D01*
X105851000Y-90396184D01*
X105851000Y-90563816D01*
X105818297Y-90728228D01*
X105754147Y-90883100D01*
X105661015Y-91022481D01*
X105542481Y-91141015D01*
X105403100Y-91234147D01*
X105248228Y-91298297D01*
X105083816Y-91331000D01*
X104916184Y-91331000D01*
X104751772Y-91298297D01*
X104596900Y-91234147D01*
X104457519Y-91141015D01*
X104338985Y-91022481D01*
X104245853Y-90883100D01*
X104181703Y-90728228D01*
X104149000Y-90563816D01*
X104149000Y-90396184D01*
X104181703Y-90231772D01*
X104245853Y-90076900D01*
X104338985Y-89937519D01*
X104457519Y-89818985D01*
X104596900Y-89725853D01*
X104751772Y-89661703D01*
X104916184Y-89629000D01*
X105083816Y-89629000D01*
X105248228Y-89661703D01*
G37*
G36*
X127113512Y-87043927D02*
G01*
X127262812Y-87073624D01*
X127426784Y-87141544D01*
X127574354Y-87240147D01*
X127699853Y-87365646D01*
X127798456Y-87513216D01*
X127866376Y-87677188D01*
X127901000Y-87851259D01*
X127901000Y-88028741D01*
X127866376Y-88202812D01*
X127798456Y-88366784D01*
X127699853Y-88514354D01*
X127574354Y-88639853D01*
X127426784Y-88738456D01*
X127262812Y-88806376D01*
X127113512Y-88836073D01*
X127088742Y-88841000D01*
X126911258Y-88841000D01*
X126886488Y-88836073D01*
X126737188Y-88806376D01*
X126573216Y-88738456D01*
X126425646Y-88639853D01*
X126300147Y-88514354D01*
X126201544Y-88366784D01*
X126133624Y-88202812D01*
X126099000Y-88028741D01*
X126099000Y-87851259D01*
X126133624Y-87677188D01*
X126201544Y-87513216D01*
X126300147Y-87365646D01*
X126425646Y-87240147D01*
X126573216Y-87141544D01*
X126737188Y-87073624D01*
X126886488Y-87043927D01*
X126911258Y-87039000D01*
X127088742Y-87039000D01*
X127113512Y-87043927D01*
G37*
G36*
X98113512Y-87043927D02*
G01*
X98262812Y-87073624D01*
X98426784Y-87141544D01*
X98574354Y-87240147D01*
X98699853Y-87365646D01*
X98798456Y-87513216D01*
X98866376Y-87677188D01*
X98901000Y-87851259D01*
X98901000Y-88028741D01*
X98866376Y-88202812D01*
X98798456Y-88366784D01*
X98699853Y-88514354D01*
X98574354Y-88639853D01*
X98426784Y-88738456D01*
X98262812Y-88806376D01*
X98113512Y-88836073D01*
X98088742Y-88841000D01*
X97911258Y-88841000D01*
X97886488Y-88836073D01*
X97737188Y-88806376D01*
X97573216Y-88738456D01*
X97425646Y-88639853D01*
X97300147Y-88514354D01*
X97201544Y-88366784D01*
X97133624Y-88202812D01*
X97099000Y-88028741D01*
X97099000Y-87851259D01*
X97133624Y-87677188D01*
X97201544Y-87513216D01*
X97300147Y-87365646D01*
X97425646Y-87240147D01*
X97573216Y-87141544D01*
X97737188Y-87073624D01*
X97886488Y-87043927D01*
X97911258Y-87039000D01*
X98088742Y-87039000D01*
X98113512Y-87043927D01*
G37*
G36*
X120488228Y-87121703D02*
G01*
X120643100Y-87185853D01*
X120782481Y-87278985D01*
X120901015Y-87397519D01*
X120994147Y-87536900D01*
X121058297Y-87691772D01*
X121091000Y-87856184D01*
X121091000Y-88023816D01*
X121058297Y-88188228D01*
X120994147Y-88343100D01*
X120901015Y-88482481D01*
X120782481Y-88601015D01*
X120643100Y-88694147D01*
X120488228Y-88758297D01*
X120323816Y-88791000D01*
X120156184Y-88791000D01*
X119991772Y-88758297D01*
X119836900Y-88694147D01*
X119697519Y-88601015D01*
X119578985Y-88482481D01*
X119485853Y-88343100D01*
X119421703Y-88188228D01*
X119389000Y-88023816D01*
X119389000Y-87856184D01*
X119421703Y-87691772D01*
X119485853Y-87536900D01*
X119578985Y-87397519D01*
X119697519Y-87278985D01*
X119836900Y-87185853D01*
X119991772Y-87121703D01*
X120156184Y-87089000D01*
X120323816Y-87089000D01*
X120488228Y-87121703D01*
G37*
G36*
X105248228Y-87121703D02*
G01*
X105403100Y-87185853D01*
X105542481Y-87278985D01*
X105661015Y-87397519D01*
X105754147Y-87536900D01*
X105818297Y-87691772D01*
X105851000Y-87856184D01*
X105851000Y-88023816D01*
X105818297Y-88188228D01*
X105754147Y-88343100D01*
X105661015Y-88482481D01*
X105542481Y-88601015D01*
X105403100Y-88694147D01*
X105248228Y-88758297D01*
X105083816Y-88791000D01*
X104916184Y-88791000D01*
X104751772Y-88758297D01*
X104596900Y-88694147D01*
X104457519Y-88601015D01*
X104338985Y-88482481D01*
X104245853Y-88343100D01*
X104181703Y-88188228D01*
X104149000Y-88023816D01*
X104149000Y-87856184D01*
X104181703Y-87691772D01*
X104245853Y-87536900D01*
X104338985Y-87397519D01*
X104457519Y-87278985D01*
X104596900Y-87185853D01*
X104751772Y-87121703D01*
X104916184Y-87089000D01*
X105083816Y-87089000D01*
X105248228Y-87121703D01*
G37*
G36*
X127113512Y-84503927D02*
G01*
X127262812Y-84533624D01*
X127426784Y-84601544D01*
X127574354Y-84700147D01*
X127699853Y-84825646D01*
X127798456Y-84973216D01*
X127866376Y-85137188D01*
X127901000Y-85311259D01*
X127901000Y-85488741D01*
X127866376Y-85662812D01*
X127798456Y-85826784D01*
X127699853Y-85974354D01*
X127574354Y-86099853D01*
X127426784Y-86198456D01*
X127262812Y-86266376D01*
X127113512Y-86296073D01*
X127088742Y-86301000D01*
X126911258Y-86301000D01*
X126886488Y-86296073D01*
X126737188Y-86266376D01*
X126573216Y-86198456D01*
X126425646Y-86099853D01*
X126300147Y-85974354D01*
X126201544Y-85826784D01*
X126133624Y-85662812D01*
X126099000Y-85488741D01*
X126099000Y-85311259D01*
X126133624Y-85137188D01*
X126201544Y-84973216D01*
X126300147Y-84825646D01*
X126425646Y-84700147D01*
X126573216Y-84601544D01*
X126737188Y-84533624D01*
X126886488Y-84503927D01*
X126911258Y-84499000D01*
X127088742Y-84499000D01*
X127113512Y-84503927D01*
G37*
G36*
X98113512Y-84503927D02*
G01*
X98262812Y-84533624D01*
X98426784Y-84601544D01*
X98574354Y-84700147D01*
X98699853Y-84825646D01*
X98798456Y-84973216D01*
X98866376Y-85137188D01*
X98901000Y-85311259D01*
X98901000Y-85488741D01*
X98866376Y-85662812D01*
X98798456Y-85826784D01*
X98699853Y-85974354D01*
X98574354Y-86099853D01*
X98426784Y-86198456D01*
X98262812Y-86266376D01*
X98113512Y-86296073D01*
X98088742Y-86301000D01*
X97911258Y-86301000D01*
X97886488Y-86296073D01*
X97737188Y-86266376D01*
X97573216Y-86198456D01*
X97425646Y-86099853D01*
X97300147Y-85974354D01*
X97201544Y-85826784D01*
X97133624Y-85662812D01*
X97099000Y-85488741D01*
X97099000Y-85311259D01*
X97133624Y-85137188D01*
X97201544Y-84973216D01*
X97300147Y-84825646D01*
X97425646Y-84700147D01*
X97573216Y-84601544D01*
X97737188Y-84533624D01*
X97886488Y-84503927D01*
X97911258Y-84499000D01*
X98088742Y-84499000D01*
X98113512Y-84503927D01*
G37*
G36*
X120488228Y-84581703D02*
G01*
X120643100Y-84645853D01*
X120782481Y-84738985D01*
X120901015Y-84857519D01*
X120994147Y-84996900D01*
X121058297Y-85151772D01*
X121091000Y-85316184D01*
X121091000Y-85483816D01*
X121058297Y-85648228D01*
X120994147Y-85803100D01*
X120901015Y-85942481D01*
X120782481Y-86061015D01*
X120643100Y-86154147D01*
X120488228Y-86218297D01*
X120323816Y-86251000D01*
X120156184Y-86251000D01*
X119991772Y-86218297D01*
X119836900Y-86154147D01*
X119697519Y-86061015D01*
X119578985Y-85942481D01*
X119485853Y-85803100D01*
X119421703Y-85648228D01*
X119389000Y-85483816D01*
X119389000Y-85316184D01*
X119421703Y-85151772D01*
X119485853Y-84996900D01*
X119578985Y-84857519D01*
X119697519Y-84738985D01*
X119836900Y-84645853D01*
X119991772Y-84581703D01*
X120156184Y-84549000D01*
X120323816Y-84549000D01*
X120488228Y-84581703D01*
G37*
G36*
X105248228Y-84581703D02*
G01*
X105403100Y-84645853D01*
X105542481Y-84738985D01*
X105661015Y-84857519D01*
X105754147Y-84996900D01*
X105818297Y-85151772D01*
X105851000Y-85316184D01*
X105851000Y-85483816D01*
X105818297Y-85648228D01*
X105754147Y-85803100D01*
X105661015Y-85942481D01*
X105542481Y-86061015D01*
X105403100Y-86154147D01*
X105248228Y-86218297D01*
X105083816Y-86251000D01*
X104916184Y-86251000D01*
X104751772Y-86218297D01*
X104596900Y-86154147D01*
X104457519Y-86061015D01*
X104338985Y-85942481D01*
X104245853Y-85803100D01*
X104181703Y-85648228D01*
X104149000Y-85483816D01*
X104149000Y-85316184D01*
X104181703Y-85151772D01*
X104245853Y-84996900D01*
X104338985Y-84857519D01*
X104457519Y-84738985D01*
X104596900Y-84645853D01*
X104751772Y-84581703D01*
X104916184Y-84549000D01*
X105083816Y-84549000D01*
X105248228Y-84581703D01*
G37*
G36*
X127113512Y-81963927D02*
G01*
X127262812Y-81993624D01*
X127426784Y-82061544D01*
X127574354Y-82160147D01*
X127699853Y-82285646D01*
X127798456Y-82433216D01*
X127866376Y-82597188D01*
X127901000Y-82771259D01*
X127901000Y-82948741D01*
X127866376Y-83122812D01*
X127798456Y-83286784D01*
X127699853Y-83434354D01*
X127574354Y-83559853D01*
X127426784Y-83658456D01*
X127262812Y-83726376D01*
X127113512Y-83756073D01*
X127088742Y-83761000D01*
X126911258Y-83761000D01*
X126886488Y-83756073D01*
X126737188Y-83726376D01*
X126573216Y-83658456D01*
X126425646Y-83559853D01*
X126300147Y-83434354D01*
X126201544Y-83286784D01*
X126133624Y-83122812D01*
X126099000Y-82948741D01*
X126099000Y-82771259D01*
X126133624Y-82597188D01*
X126201544Y-82433216D01*
X126300147Y-82285646D01*
X126425646Y-82160147D01*
X126573216Y-82061544D01*
X126737188Y-81993624D01*
X126886488Y-81963927D01*
X126911258Y-81959000D01*
X127088742Y-81959000D01*
X127113512Y-81963927D01*
G37*
G36*
X98113512Y-81963927D02*
G01*
X98262812Y-81993624D01*
X98426784Y-82061544D01*
X98574354Y-82160147D01*
X98699853Y-82285646D01*
X98798456Y-82433216D01*
X98866376Y-82597188D01*
X98901000Y-82771259D01*
X98901000Y-82948741D01*
X98866376Y-83122812D01*
X98798456Y-83286784D01*
X98699853Y-83434354D01*
X98574354Y-83559853D01*
X98426784Y-83658456D01*
X98262812Y-83726376D01*
X98113512Y-83756073D01*
X98088742Y-83761000D01*
X97911258Y-83761000D01*
X97886488Y-83756073D01*
X97737188Y-83726376D01*
X97573216Y-83658456D01*
X97425646Y-83559853D01*
X97300147Y-83434354D01*
X97201544Y-83286784D01*
X97133624Y-83122812D01*
X97099000Y-82948741D01*
X97099000Y-82771259D01*
X97133624Y-82597188D01*
X97201544Y-82433216D01*
X97300147Y-82285646D01*
X97425646Y-82160147D01*
X97573216Y-82061544D01*
X97737188Y-81993624D01*
X97886488Y-81963927D01*
X97911258Y-81959000D01*
X98088742Y-81959000D01*
X98113512Y-81963927D01*
G37*
G36*
X120488228Y-82041703D02*
G01*
X120643100Y-82105853D01*
X120782481Y-82198985D01*
X120901015Y-82317519D01*
X120994147Y-82456900D01*
X121058297Y-82611772D01*
X121091000Y-82776184D01*
X121091000Y-82943816D01*
X121058297Y-83108228D01*
X120994147Y-83263100D01*
X120901015Y-83402481D01*
X120782481Y-83521015D01*
X120643100Y-83614147D01*
X120488228Y-83678297D01*
X120323816Y-83711000D01*
X120156184Y-83711000D01*
X119991772Y-83678297D01*
X119836900Y-83614147D01*
X119697519Y-83521015D01*
X119578985Y-83402481D01*
X119485853Y-83263100D01*
X119421703Y-83108228D01*
X119389000Y-82943816D01*
X119389000Y-82776184D01*
X119421703Y-82611772D01*
X119485853Y-82456900D01*
X119578985Y-82317519D01*
X119697519Y-82198985D01*
X119836900Y-82105853D01*
X119991772Y-82041703D01*
X120156184Y-82009000D01*
X120323816Y-82009000D01*
X120488228Y-82041703D01*
G37*
G36*
X105248228Y-82041703D02*
G01*
X105403100Y-82105853D01*
X105542481Y-82198985D01*
X105661015Y-82317519D01*
X105754147Y-82456900D01*
X105818297Y-82611772D01*
X105851000Y-82776184D01*
X105851000Y-82943816D01*
X105818297Y-83108228D01*
X105754147Y-83263100D01*
X105661015Y-83402481D01*
X105542481Y-83521015D01*
X105403100Y-83614147D01*
X105248228Y-83678297D01*
X105083816Y-83711000D01*
X104916184Y-83711000D01*
X104751772Y-83678297D01*
X104596900Y-83614147D01*
X104457519Y-83521015D01*
X104338985Y-83402481D01*
X104245853Y-83263100D01*
X104181703Y-83108228D01*
X104149000Y-82943816D01*
X104149000Y-82776184D01*
X104181703Y-82611772D01*
X104245853Y-82456900D01*
X104338985Y-82317519D01*
X104457519Y-82198985D01*
X104596900Y-82105853D01*
X104751772Y-82041703D01*
X104916184Y-82009000D01*
X105083816Y-82009000D01*
X105248228Y-82041703D01*
G37*
G36*
X127113512Y-79423927D02*
G01*
X127262812Y-79453624D01*
X127426784Y-79521544D01*
X127574354Y-79620147D01*
X127699853Y-79745646D01*
X127798456Y-79893216D01*
X127866376Y-80057188D01*
X127901000Y-80231259D01*
X127901000Y-80408741D01*
X127866376Y-80582812D01*
X127798456Y-80746784D01*
X127699853Y-80894354D01*
X127574354Y-81019853D01*
X127426784Y-81118456D01*
X127262812Y-81186376D01*
X127113512Y-81216073D01*
X127088742Y-81221000D01*
X126911258Y-81221000D01*
X126886488Y-81216073D01*
X126737188Y-81186376D01*
X126573216Y-81118456D01*
X126425646Y-81019853D01*
X126300147Y-80894354D01*
X126201544Y-80746784D01*
X126133624Y-80582812D01*
X126099000Y-80408741D01*
X126099000Y-80231259D01*
X126133624Y-80057188D01*
X126201544Y-79893216D01*
X126300147Y-79745646D01*
X126425646Y-79620147D01*
X126573216Y-79521544D01*
X126737188Y-79453624D01*
X126886488Y-79423927D01*
X126911258Y-79419000D01*
X127088742Y-79419000D01*
X127113512Y-79423927D01*
G37*
G36*
X98113512Y-79423927D02*
G01*
X98262812Y-79453624D01*
X98426784Y-79521544D01*
X98574354Y-79620147D01*
X98699853Y-79745646D01*
X98798456Y-79893216D01*
X98866376Y-80057188D01*
X98901000Y-80231259D01*
X98901000Y-80408741D01*
X98866376Y-80582812D01*
X98798456Y-80746784D01*
X98699853Y-80894354D01*
X98574354Y-81019853D01*
X98426784Y-81118456D01*
X98262812Y-81186376D01*
X98113512Y-81216073D01*
X98088742Y-81221000D01*
X97911258Y-81221000D01*
X97886488Y-81216073D01*
X97737188Y-81186376D01*
X97573216Y-81118456D01*
X97425646Y-81019853D01*
X97300147Y-80894354D01*
X97201544Y-80746784D01*
X97133624Y-80582812D01*
X97099000Y-80408741D01*
X97099000Y-80231259D01*
X97133624Y-80057188D01*
X97201544Y-79893216D01*
X97300147Y-79745646D01*
X97425646Y-79620147D01*
X97573216Y-79521544D01*
X97737188Y-79453624D01*
X97886488Y-79423927D01*
X97911258Y-79419000D01*
X98088742Y-79419000D01*
X98113512Y-79423927D01*
G37*
G36*
X105248228Y-79501703D02*
G01*
X105403100Y-79565853D01*
X105542481Y-79658985D01*
X105661015Y-79777519D01*
X105754147Y-79916900D01*
X105818297Y-80071772D01*
X105851000Y-80236184D01*
X105851000Y-80403816D01*
X105818297Y-80568228D01*
X105754147Y-80723100D01*
X105661015Y-80862481D01*
X105542481Y-80981015D01*
X105403100Y-81074147D01*
X105248228Y-81138297D01*
X105083816Y-81171000D01*
X104916184Y-81171000D01*
X104751772Y-81138297D01*
X104596900Y-81074147D01*
X104457519Y-80981015D01*
X104338985Y-80862481D01*
X104245853Y-80723100D01*
X104181703Y-80568228D01*
X104149000Y-80403816D01*
X104149000Y-80236184D01*
X104181703Y-80071772D01*
X104245853Y-79916900D01*
X104338985Y-79777519D01*
X104457519Y-79658985D01*
X104596900Y-79565853D01*
X104751772Y-79501703D01*
X104916184Y-79469000D01*
X105083816Y-79469000D01*
X105248228Y-79501703D01*
G37*
G36*
X120488228Y-79501703D02*
G01*
X120643100Y-79565853D01*
X120782481Y-79658985D01*
X120901015Y-79777519D01*
X120994147Y-79916900D01*
X121058297Y-80071772D01*
X121091000Y-80236184D01*
X121091000Y-80403816D01*
X121058297Y-80568228D01*
X120994147Y-80723100D01*
X120901015Y-80862481D01*
X120782481Y-80981015D01*
X120643100Y-81074147D01*
X120488228Y-81138297D01*
X120323816Y-81171000D01*
X120156184Y-81171000D01*
X119991772Y-81138297D01*
X119836900Y-81074147D01*
X119697519Y-80981015D01*
X119578985Y-80862481D01*
X119485853Y-80723100D01*
X119421703Y-80568228D01*
X119389000Y-80403816D01*
X119389000Y-80236184D01*
X119421703Y-80071772D01*
X119485853Y-79916900D01*
X119578985Y-79777519D01*
X119697519Y-79658985D01*
X119836900Y-79565853D01*
X119991772Y-79501703D01*
X120156184Y-79469000D01*
X120323816Y-79469000D01*
X120488228Y-79501703D01*
G37*
G36*
X140113512Y-79103927D02*
G01*
X140262812Y-79133624D01*
X140426784Y-79201544D01*
X140574354Y-79300147D01*
X140699853Y-79425646D01*
X140798456Y-79573216D01*
X140866376Y-79737188D01*
X140901000Y-79911259D01*
X140901000Y-80088741D01*
X140866376Y-80262812D01*
X140798456Y-80426784D01*
X140699853Y-80574354D01*
X140574354Y-80699853D01*
X140426784Y-80798456D01*
X140262812Y-80866376D01*
X140113512Y-80896073D01*
X140088742Y-80901000D01*
X139911258Y-80901000D01*
X139886488Y-80896073D01*
X139737188Y-80866376D01*
X139573216Y-80798456D01*
X139425646Y-80699853D01*
X139300147Y-80574354D01*
X139201544Y-80426784D01*
X139133624Y-80262812D01*
X139099000Y-80088741D01*
X139099000Y-79911259D01*
X139133624Y-79737188D01*
X139201544Y-79573216D01*
X139300147Y-79425646D01*
X139425646Y-79300147D01*
X139573216Y-79201544D01*
X139737188Y-79133624D01*
X139886488Y-79103927D01*
X139911258Y-79099000D01*
X140088742Y-79099000D01*
X140113512Y-79103927D01*
G37*
G36*
X98113512Y-76883927D02*
G01*
X98262812Y-76913624D01*
X98426784Y-76981544D01*
X98574354Y-77080147D01*
X98699853Y-77205646D01*
X98798456Y-77353216D01*
X98866376Y-77517188D01*
X98901000Y-77691259D01*
X98901000Y-77868741D01*
X98866376Y-78042812D01*
X98798456Y-78206784D01*
X98699853Y-78354354D01*
X98574354Y-78479853D01*
X98426784Y-78578456D01*
X98262812Y-78646376D01*
X98113512Y-78676073D01*
X98088742Y-78681000D01*
X97911258Y-78681000D01*
X97886488Y-78676073D01*
X97737188Y-78646376D01*
X97573216Y-78578456D01*
X97425646Y-78479853D01*
X97300147Y-78354354D01*
X97201544Y-78206784D01*
X97133624Y-78042812D01*
X97099000Y-77868741D01*
X97099000Y-77691259D01*
X97133624Y-77517188D01*
X97201544Y-77353216D01*
X97300147Y-77205646D01*
X97425646Y-77080147D01*
X97573216Y-76981544D01*
X97737188Y-76913624D01*
X97886488Y-76883927D01*
X97911258Y-76879000D01*
X98088742Y-76879000D01*
X98113512Y-76883927D01*
G37*
G36*
X127113512Y-76883927D02*
G01*
X127262812Y-76913624D01*
X127426784Y-76981544D01*
X127574354Y-77080147D01*
X127699853Y-77205646D01*
X127798456Y-77353216D01*
X127866376Y-77517188D01*
X127901000Y-77691259D01*
X127901000Y-77868741D01*
X127866376Y-78042812D01*
X127798456Y-78206784D01*
X127699853Y-78354354D01*
X127574354Y-78479853D01*
X127426784Y-78578456D01*
X127262812Y-78646376D01*
X127113512Y-78676073D01*
X127088742Y-78681000D01*
X126911258Y-78681000D01*
X126886488Y-78676073D01*
X126737188Y-78646376D01*
X126573216Y-78578456D01*
X126425646Y-78479853D01*
X126300147Y-78354354D01*
X126201544Y-78206784D01*
X126133624Y-78042812D01*
X126099000Y-77868741D01*
X126099000Y-77691259D01*
X126133624Y-77517188D01*
X126201544Y-77353216D01*
X126300147Y-77205646D01*
X126425646Y-77080147D01*
X126573216Y-76981544D01*
X126737188Y-76913624D01*
X126886488Y-76883927D01*
X126911258Y-76879000D01*
X127088742Y-76879000D01*
X127113512Y-76883927D01*
G37*
G36*
X120488228Y-76961703D02*
G01*
X120643100Y-77025853D01*
X120782481Y-77118985D01*
X120901015Y-77237519D01*
X120994147Y-77376900D01*
X121058297Y-77531772D01*
X121091000Y-77696184D01*
X121091000Y-77863816D01*
X121058297Y-78028228D01*
X120994147Y-78183100D01*
X120901015Y-78322481D01*
X120782481Y-78441015D01*
X120643100Y-78534147D01*
X120488228Y-78598297D01*
X120323816Y-78631000D01*
X120156184Y-78631000D01*
X119991772Y-78598297D01*
X119836900Y-78534147D01*
X119697519Y-78441015D01*
X119578985Y-78322481D01*
X119485853Y-78183100D01*
X119421703Y-78028228D01*
X119389000Y-77863816D01*
X119389000Y-77696184D01*
X119421703Y-77531772D01*
X119485853Y-77376900D01*
X119578985Y-77237519D01*
X119697519Y-77118985D01*
X119836900Y-77025853D01*
X119991772Y-76961703D01*
X120156184Y-76929000D01*
X120323816Y-76929000D01*
X120488228Y-76961703D01*
G37*
G36*
X105248228Y-76961703D02*
G01*
X105403100Y-77025853D01*
X105542481Y-77118985D01*
X105661015Y-77237519D01*
X105754147Y-77376900D01*
X105818297Y-77531772D01*
X105851000Y-77696184D01*
X105851000Y-77863816D01*
X105818297Y-78028228D01*
X105754147Y-78183100D01*
X105661015Y-78322481D01*
X105542481Y-78441015D01*
X105403100Y-78534147D01*
X105248228Y-78598297D01*
X105083816Y-78631000D01*
X104916184Y-78631000D01*
X104751772Y-78598297D01*
X104596900Y-78534147D01*
X104457519Y-78441015D01*
X104338985Y-78322481D01*
X104245853Y-78183100D01*
X104181703Y-78028228D01*
X104149000Y-77863816D01*
X104149000Y-77696184D01*
X104181703Y-77531772D01*
X104245853Y-77376900D01*
X104338985Y-77237519D01*
X104457519Y-77118985D01*
X104596900Y-77025853D01*
X104751772Y-76961703D01*
X104916184Y-76929000D01*
X105083816Y-76929000D01*
X105248228Y-76961703D01*
G37*
G36*
X140113512Y-76563927D02*
G01*
X140262812Y-76593624D01*
X140426784Y-76661544D01*
X140574354Y-76760147D01*
X140699853Y-76885646D01*
X140798456Y-77033216D01*
X140866376Y-77197188D01*
X140901000Y-77371259D01*
X140901000Y-77548741D01*
X140866376Y-77722812D01*
X140798456Y-77886784D01*
X140699853Y-78034354D01*
X140574354Y-78159853D01*
X140426784Y-78258456D01*
X140262812Y-78326376D01*
X140113512Y-78356073D01*
X140088742Y-78361000D01*
X139911258Y-78361000D01*
X139886488Y-78356073D01*
X139737188Y-78326376D01*
X139573216Y-78258456D01*
X139425646Y-78159853D01*
X139300147Y-78034354D01*
X139201544Y-77886784D01*
X139133624Y-77722812D01*
X139099000Y-77548741D01*
X139099000Y-77371259D01*
X139133624Y-77197188D01*
X139201544Y-77033216D01*
X139300147Y-76885646D01*
X139425646Y-76760147D01*
X139573216Y-76661544D01*
X139737188Y-76593624D01*
X139886488Y-76563927D01*
X139911258Y-76559000D01*
X140088742Y-76559000D01*
X140113512Y-76563927D01*
G37*
G36*
X98113512Y-74343927D02*
G01*
X98262812Y-74373624D01*
X98426784Y-74441544D01*
X98574354Y-74540147D01*
X98699853Y-74665646D01*
X98798456Y-74813216D01*
X98866376Y-74977188D01*
X98901000Y-75151259D01*
X98901000Y-75328741D01*
X98866376Y-75502812D01*
X98798456Y-75666784D01*
X98699853Y-75814354D01*
X98574354Y-75939853D01*
X98426784Y-76038456D01*
X98262812Y-76106376D01*
X98113512Y-76136073D01*
X98088742Y-76141000D01*
X97911258Y-76141000D01*
X97886488Y-76136073D01*
X97737188Y-76106376D01*
X97573216Y-76038456D01*
X97425646Y-75939853D01*
X97300147Y-75814354D01*
X97201544Y-75666784D01*
X97133624Y-75502812D01*
X97099000Y-75328741D01*
X97099000Y-75151259D01*
X97133624Y-74977188D01*
X97201544Y-74813216D01*
X97300147Y-74665646D01*
X97425646Y-74540147D01*
X97573216Y-74441544D01*
X97737188Y-74373624D01*
X97886488Y-74343927D01*
X97911258Y-74339000D01*
X98088742Y-74339000D01*
X98113512Y-74343927D01*
G37*
G36*
X127113512Y-74343927D02*
G01*
X127262812Y-74373624D01*
X127426784Y-74441544D01*
X127574354Y-74540147D01*
X127699853Y-74665646D01*
X127798456Y-74813216D01*
X127866376Y-74977188D01*
X127901000Y-75151259D01*
X127901000Y-75328741D01*
X127866376Y-75502812D01*
X127798456Y-75666784D01*
X127699853Y-75814354D01*
X127574354Y-75939853D01*
X127426784Y-76038456D01*
X127262812Y-76106376D01*
X127113512Y-76136073D01*
X127088742Y-76141000D01*
X126911258Y-76141000D01*
X126886488Y-76136073D01*
X126737188Y-76106376D01*
X126573216Y-76038456D01*
X126425646Y-75939853D01*
X126300147Y-75814354D01*
X126201544Y-75666784D01*
X126133624Y-75502812D01*
X126099000Y-75328741D01*
X126099000Y-75151259D01*
X126133624Y-74977188D01*
X126201544Y-74813216D01*
X126300147Y-74665646D01*
X126425646Y-74540147D01*
X126573216Y-74441544D01*
X126737188Y-74373624D01*
X126886488Y-74343927D01*
X126911258Y-74339000D01*
X127088742Y-74339000D01*
X127113512Y-74343927D01*
G37*
G36*
X120488228Y-74421703D02*
G01*
X120643100Y-74485853D01*
X120782481Y-74578985D01*
X120901015Y-74697519D01*
X120994147Y-74836900D01*
X121058297Y-74991772D01*
X121091000Y-75156184D01*
X121091000Y-75323816D01*
X121058297Y-75488228D01*
X120994147Y-75643100D01*
X120901015Y-75782481D01*
X120782481Y-75901015D01*
X120643100Y-75994147D01*
X120488228Y-76058297D01*
X120323816Y-76091000D01*
X120156184Y-76091000D01*
X119991772Y-76058297D01*
X119836900Y-75994147D01*
X119697519Y-75901015D01*
X119578985Y-75782481D01*
X119485853Y-75643100D01*
X119421703Y-75488228D01*
X119389000Y-75323816D01*
X119389000Y-75156184D01*
X119421703Y-74991772D01*
X119485853Y-74836900D01*
X119578985Y-74697519D01*
X119697519Y-74578985D01*
X119836900Y-74485853D01*
X119991772Y-74421703D01*
X120156184Y-74389000D01*
X120323816Y-74389000D01*
X120488228Y-74421703D01*
G37*
G36*
X105248228Y-74421703D02*
G01*
X105403100Y-74485853D01*
X105542481Y-74578985D01*
X105661015Y-74697519D01*
X105754147Y-74836900D01*
X105818297Y-74991772D01*
X105851000Y-75156184D01*
X105851000Y-75323816D01*
X105818297Y-75488228D01*
X105754147Y-75643100D01*
X105661015Y-75782481D01*
X105542481Y-75901015D01*
X105403100Y-75994147D01*
X105248228Y-76058297D01*
X105083816Y-76091000D01*
X104916184Y-76091000D01*
X104751772Y-76058297D01*
X104596900Y-75994147D01*
X104457519Y-75901015D01*
X104338985Y-75782481D01*
X104245853Y-75643100D01*
X104181703Y-75488228D01*
X104149000Y-75323816D01*
X104149000Y-75156184D01*
X104181703Y-74991772D01*
X104245853Y-74836900D01*
X104338985Y-74697519D01*
X104457519Y-74578985D01*
X104596900Y-74485853D01*
X104751772Y-74421703D01*
X104916184Y-74389000D01*
X105083816Y-74389000D01*
X105248228Y-74421703D01*
G37*
G36*
X140113512Y-74023927D02*
G01*
X140262812Y-74053624D01*
X140426784Y-74121544D01*
X140574354Y-74220147D01*
X140699853Y-74345646D01*
X140798456Y-74493216D01*
X140866376Y-74657188D01*
X140901000Y-74831259D01*
X140901000Y-75008741D01*
X140866376Y-75182812D01*
X140798456Y-75346784D01*
X140699853Y-75494354D01*
X140574354Y-75619853D01*
X140426784Y-75718456D01*
X140262812Y-75786376D01*
X140113512Y-75816073D01*
X140088742Y-75821000D01*
X139911258Y-75821000D01*
X139886488Y-75816073D01*
X139737188Y-75786376D01*
X139573216Y-75718456D01*
X139425646Y-75619853D01*
X139300147Y-75494354D01*
X139201544Y-75346784D01*
X139133624Y-75182812D01*
X139099000Y-75008741D01*
X139099000Y-74831259D01*
X139133624Y-74657188D01*
X139201544Y-74493216D01*
X139300147Y-74345646D01*
X139425646Y-74220147D01*
X139573216Y-74121544D01*
X139737188Y-74053624D01*
X139886488Y-74023927D01*
X139911258Y-74019000D01*
X140088742Y-74019000D01*
X140113512Y-74023927D01*
G37*
G36*
X98113512Y-71803927D02*
G01*
X98262812Y-71833624D01*
X98426784Y-71901544D01*
X98574354Y-72000147D01*
X98699853Y-72125646D01*
X98798456Y-72273216D01*
X98866376Y-72437188D01*
X98901000Y-72611259D01*
X98901000Y-72788741D01*
X98866376Y-72962812D01*
X98798456Y-73126784D01*
X98699853Y-73274354D01*
X98574354Y-73399853D01*
X98426784Y-73498456D01*
X98262812Y-73566376D01*
X98113512Y-73596073D01*
X98088742Y-73601000D01*
X97911258Y-73601000D01*
X97886488Y-73596073D01*
X97737188Y-73566376D01*
X97573216Y-73498456D01*
X97425646Y-73399853D01*
X97300147Y-73274354D01*
X97201544Y-73126784D01*
X97133624Y-72962812D01*
X97099000Y-72788741D01*
X97099000Y-72611259D01*
X97133624Y-72437188D01*
X97201544Y-72273216D01*
X97300147Y-72125646D01*
X97425646Y-72000147D01*
X97573216Y-71901544D01*
X97737188Y-71833624D01*
X97886488Y-71803927D01*
X97911258Y-71799000D01*
X98088742Y-71799000D01*
X98113512Y-71803927D01*
G37*
G36*
X127113512Y-71803927D02*
G01*
X127262812Y-71833624D01*
X127426784Y-71901544D01*
X127574354Y-72000147D01*
X127699853Y-72125646D01*
X127798456Y-72273216D01*
X127866376Y-72437188D01*
X127901000Y-72611259D01*
X127901000Y-72788741D01*
X127866376Y-72962812D01*
X127798456Y-73126784D01*
X127699853Y-73274354D01*
X127574354Y-73399853D01*
X127426784Y-73498456D01*
X127262812Y-73566376D01*
X127113512Y-73596073D01*
X127088742Y-73601000D01*
X126911258Y-73601000D01*
X126886488Y-73596073D01*
X126737188Y-73566376D01*
X126573216Y-73498456D01*
X126425646Y-73399853D01*
X126300147Y-73274354D01*
X126201544Y-73126784D01*
X126133624Y-72962812D01*
X126099000Y-72788741D01*
X126099000Y-72611259D01*
X126133624Y-72437188D01*
X126201544Y-72273216D01*
X126300147Y-72125646D01*
X126425646Y-72000147D01*
X126573216Y-71901544D01*
X126737188Y-71833624D01*
X126886488Y-71803927D01*
X126911258Y-71799000D01*
X127088742Y-71799000D01*
X127113512Y-71803927D01*
G37*
G36*
X105248228Y-71881703D02*
G01*
X105403100Y-71945853D01*
X105542481Y-72038985D01*
X105661015Y-72157519D01*
X105754147Y-72296900D01*
X105818297Y-72451772D01*
X105851000Y-72616184D01*
X105851000Y-72783816D01*
X105818297Y-72948228D01*
X105754147Y-73103100D01*
X105661015Y-73242481D01*
X105542481Y-73361015D01*
X105403100Y-73454147D01*
X105248228Y-73518297D01*
X105083816Y-73551000D01*
X104916184Y-73551000D01*
X104751772Y-73518297D01*
X104596900Y-73454147D01*
X104457519Y-73361015D01*
X104338985Y-73242481D01*
X104245853Y-73103100D01*
X104181703Y-72948228D01*
X104149000Y-72783816D01*
X104149000Y-72616184D01*
X104181703Y-72451772D01*
X104245853Y-72296900D01*
X104338985Y-72157519D01*
X104457519Y-72038985D01*
X104596900Y-71945853D01*
X104751772Y-71881703D01*
X104916184Y-71849000D01*
X105083816Y-71849000D01*
X105248228Y-71881703D01*
G37*
G36*
X120488228Y-71881703D02*
G01*
X120643100Y-71945853D01*
X120782481Y-72038985D01*
X120901015Y-72157519D01*
X120994147Y-72296900D01*
X121058297Y-72451772D01*
X121091000Y-72616184D01*
X121091000Y-72783816D01*
X121058297Y-72948228D01*
X120994147Y-73103100D01*
X120901015Y-73242481D01*
X120782481Y-73361015D01*
X120643100Y-73454147D01*
X120488228Y-73518297D01*
X120323816Y-73551000D01*
X120156184Y-73551000D01*
X119991772Y-73518297D01*
X119836900Y-73454147D01*
X119697519Y-73361015D01*
X119578985Y-73242481D01*
X119485853Y-73103100D01*
X119421703Y-72948228D01*
X119389000Y-72783816D01*
X119389000Y-72616184D01*
X119421703Y-72451772D01*
X119485853Y-72296900D01*
X119578985Y-72157519D01*
X119697519Y-72038985D01*
X119836900Y-71945853D01*
X119991772Y-71881703D01*
X120156184Y-71849000D01*
X120323816Y-71849000D01*
X120488228Y-71881703D01*
G37*
G36*
X140113512Y-71483927D02*
G01*
X140262812Y-71513624D01*
X140426784Y-71581544D01*
X140574354Y-71680147D01*
X140699853Y-71805646D01*
X140798456Y-71953216D01*
X140866376Y-72117188D01*
X140901000Y-72291259D01*
X140901000Y-72468741D01*
X140866376Y-72642812D01*
X140798456Y-72806784D01*
X140699853Y-72954354D01*
X140574354Y-73079853D01*
X140426784Y-73178456D01*
X140262812Y-73246376D01*
X140113512Y-73276073D01*
X140088742Y-73281000D01*
X139911258Y-73281000D01*
X139886488Y-73276073D01*
X139737188Y-73246376D01*
X139573216Y-73178456D01*
X139425646Y-73079853D01*
X139300147Y-72954354D01*
X139201544Y-72806784D01*
X139133624Y-72642812D01*
X139099000Y-72468741D01*
X139099000Y-72291259D01*
X139133624Y-72117188D01*
X139201544Y-71953216D01*
X139300147Y-71805646D01*
X139425646Y-71680147D01*
X139573216Y-71581544D01*
X139737188Y-71513624D01*
X139886488Y-71483927D01*
X139911258Y-71479000D01*
X140088742Y-71479000D01*
X140113512Y-71483927D01*
G37*
G36*
X98107901Y-69262811D02*
G01*
X98262812Y-69293624D01*
X98426784Y-69361544D01*
X98574354Y-69460147D01*
X98699853Y-69585646D01*
X98798456Y-69733216D01*
X98866376Y-69897188D01*
X98901000Y-70071259D01*
X98901000Y-70248741D01*
X98866376Y-70422812D01*
X98798456Y-70586784D01*
X98699853Y-70734354D01*
X98574354Y-70859853D01*
X98426784Y-70958456D01*
X98262812Y-71026376D01*
X98113512Y-71056073D01*
X98088742Y-71061000D01*
X97911258Y-71061000D01*
X97886488Y-71056073D01*
X97737188Y-71026376D01*
X97573216Y-70958456D01*
X97425646Y-70859853D01*
X97300147Y-70734354D01*
X97201544Y-70586784D01*
X97133624Y-70422812D01*
X97099000Y-70248741D01*
X97099000Y-70071259D01*
X97133624Y-69897188D01*
X97201544Y-69733216D01*
X97300147Y-69585646D01*
X97425646Y-69460147D01*
X97573216Y-69361544D01*
X97737188Y-69293624D01*
X97892099Y-69262811D01*
X97911258Y-69259000D01*
X98088742Y-69259000D01*
X98107901Y-69262811D01*
G37*
G36*
X127107901Y-69262811D02*
G01*
X127262812Y-69293624D01*
X127426784Y-69361544D01*
X127574354Y-69460147D01*
X127699853Y-69585646D01*
X127798456Y-69733216D01*
X127866376Y-69897188D01*
X127901000Y-70071259D01*
X127901000Y-70248741D01*
X127866376Y-70422812D01*
X127798456Y-70586784D01*
X127699853Y-70734354D01*
X127574354Y-70859853D01*
X127426784Y-70958456D01*
X127262812Y-71026376D01*
X127113512Y-71056073D01*
X127088742Y-71061000D01*
X126911258Y-71061000D01*
X126886488Y-71056073D01*
X126737188Y-71026376D01*
X126573216Y-70958456D01*
X126425646Y-70859853D01*
X126300147Y-70734354D01*
X126201544Y-70586784D01*
X126133624Y-70422812D01*
X126099000Y-70248741D01*
X126099000Y-70071259D01*
X126133624Y-69897188D01*
X126201544Y-69733216D01*
X126300147Y-69585646D01*
X126425646Y-69460147D01*
X126573216Y-69361544D01*
X126737188Y-69293624D01*
X126892099Y-69262811D01*
X126911258Y-69259000D01*
X127088742Y-69259000D01*
X127107901Y-69262811D01*
G37*
G36*
X120488228Y-69341703D02*
G01*
X120643100Y-69405853D01*
X120782481Y-69498985D01*
X120901015Y-69617519D01*
X120994147Y-69756900D01*
X121058297Y-69911772D01*
X121091000Y-70076184D01*
X121091000Y-70243816D01*
X121058297Y-70408228D01*
X120994147Y-70563100D01*
X120901015Y-70702481D01*
X120782481Y-70821015D01*
X120643100Y-70914147D01*
X120488228Y-70978297D01*
X120323816Y-71011000D01*
X120156184Y-71011000D01*
X119991772Y-70978297D01*
X119836900Y-70914147D01*
X119697519Y-70821015D01*
X119578985Y-70702481D01*
X119485853Y-70563100D01*
X119421703Y-70408228D01*
X119389000Y-70243816D01*
X119389000Y-70076184D01*
X119421703Y-69911772D01*
X119485853Y-69756900D01*
X119578985Y-69617519D01*
X119697519Y-69498985D01*
X119836900Y-69405853D01*
X119991772Y-69341703D01*
X120156184Y-69309000D01*
X120323816Y-69309000D01*
X120488228Y-69341703D01*
G37*
G36*
X105248228Y-69341703D02*
G01*
X105403100Y-69405853D01*
X105542481Y-69498985D01*
X105661015Y-69617519D01*
X105754147Y-69756900D01*
X105818297Y-69911772D01*
X105851000Y-70076184D01*
X105851000Y-70243816D01*
X105818297Y-70408228D01*
X105754147Y-70563100D01*
X105661015Y-70702481D01*
X105542481Y-70821015D01*
X105403100Y-70914147D01*
X105248228Y-70978297D01*
X105083816Y-71011000D01*
X104916184Y-71011000D01*
X104751772Y-70978297D01*
X104596900Y-70914147D01*
X104457519Y-70821015D01*
X104338985Y-70702481D01*
X104245853Y-70563100D01*
X104181703Y-70408228D01*
X104149000Y-70243816D01*
X104149000Y-70076184D01*
X104181703Y-69911772D01*
X104245853Y-69756900D01*
X104338985Y-69617519D01*
X104457519Y-69498985D01*
X104596900Y-69405853D01*
X104751772Y-69341703D01*
X104916184Y-69309000D01*
X105083816Y-69309000D01*
X105248228Y-69341703D01*
G37*
G36*
X140113512Y-68943927D02*
G01*
X140262812Y-68973624D01*
X140426784Y-69041544D01*
X140574354Y-69140147D01*
X140699853Y-69265646D01*
X140798456Y-69413216D01*
X140866376Y-69577188D01*
X140901000Y-69751259D01*
X140901000Y-69928741D01*
X140866376Y-70102812D01*
X140798456Y-70266784D01*
X140699853Y-70414354D01*
X140574354Y-70539853D01*
X140426784Y-70638456D01*
X140262812Y-70706376D01*
X140113512Y-70736073D01*
X140088742Y-70741000D01*
X139911258Y-70741000D01*
X139886488Y-70736073D01*
X139737188Y-70706376D01*
X139573216Y-70638456D01*
X139425646Y-70539853D01*
X139300147Y-70414354D01*
X139201544Y-70266784D01*
X139133624Y-70102812D01*
X139099000Y-69928741D01*
X139099000Y-69751259D01*
X139133624Y-69577188D01*
X139201544Y-69413216D01*
X139300147Y-69265646D01*
X139425646Y-69140147D01*
X139573216Y-69041544D01*
X139737188Y-68973624D01*
X139886488Y-68943927D01*
X139911258Y-68939000D01*
X140088742Y-68939000D01*
X140113512Y-68943927D01*
G37*
G36*
X147113512Y-68103927D02*
G01*
X147262812Y-68133624D01*
X147426784Y-68201544D01*
X147574354Y-68300147D01*
X147699853Y-68425646D01*
X147798456Y-68573216D01*
X147866376Y-68737188D01*
X147877405Y-68792638D01*
X147884516Y-68816078D01*
X147896067Y-68837689D01*
X147911613Y-68856631D01*
X147930555Y-68872176D01*
X147952165Y-68883727D01*
X147975614Y-68890840D01*
X148000000Y-68893242D01*
X148024387Y-68890840D01*
X148047835Y-68883727D01*
X148069446Y-68872176D01*
X148088388Y-68856630D01*
X148103933Y-68837688D01*
X148115484Y-68816078D01*
X148122595Y-68792638D01*
X148133624Y-68737188D01*
X148201544Y-68573216D01*
X148300147Y-68425646D01*
X148425646Y-68300147D01*
X148573216Y-68201544D01*
X148737188Y-68133624D01*
X148886488Y-68103927D01*
X148911258Y-68099000D01*
X149088742Y-68099000D01*
X149113512Y-68103927D01*
X149262812Y-68133624D01*
X149426784Y-68201544D01*
X149574354Y-68300147D01*
X149699853Y-68425646D01*
X149798456Y-68573216D01*
X149866376Y-68737188D01*
X149877405Y-68792638D01*
X149884516Y-68816078D01*
X149896067Y-68837689D01*
X149911613Y-68856631D01*
X149930555Y-68872176D01*
X149952165Y-68883727D01*
X149975614Y-68890840D01*
X150000000Y-68893242D01*
X150024387Y-68890840D01*
X150047835Y-68883727D01*
X150069446Y-68872176D01*
X150088388Y-68856630D01*
X150103933Y-68837688D01*
X150115484Y-68816078D01*
X150122595Y-68792638D01*
X150133624Y-68737188D01*
X150201544Y-68573216D01*
X150300147Y-68425646D01*
X150425646Y-68300147D01*
X150573216Y-68201544D01*
X150737188Y-68133624D01*
X150886488Y-68103927D01*
X150911258Y-68099000D01*
X151088742Y-68099000D01*
X151113512Y-68103927D01*
X151262812Y-68133624D01*
X151426784Y-68201544D01*
X151574354Y-68300147D01*
X151699853Y-68425646D01*
X151798456Y-68573216D01*
X151866376Y-68737188D01*
X151877405Y-68792638D01*
X151884516Y-68816078D01*
X151896067Y-68837689D01*
X151911613Y-68856631D01*
X151930555Y-68872176D01*
X151952165Y-68883727D01*
X151975614Y-68890840D01*
X152000000Y-68893242D01*
X152024387Y-68890840D01*
X152047835Y-68883727D01*
X152069446Y-68872176D01*
X152088388Y-68856630D01*
X152103933Y-68837688D01*
X152115484Y-68816078D01*
X152122595Y-68792638D01*
X152133624Y-68737188D01*
X152201544Y-68573216D01*
X152300147Y-68425646D01*
X152425646Y-68300147D01*
X152573216Y-68201544D01*
X152737188Y-68133624D01*
X152886488Y-68103927D01*
X152911258Y-68099000D01*
X153088742Y-68099000D01*
X153113512Y-68103927D01*
X153262812Y-68133624D01*
X153426784Y-68201544D01*
X153574354Y-68300147D01*
X153699853Y-68425646D01*
X153798456Y-68573216D01*
X153866376Y-68737188D01*
X153877405Y-68792638D01*
X153884516Y-68816078D01*
X153896067Y-68837689D01*
X153911613Y-68856631D01*
X153930555Y-68872176D01*
X153952165Y-68883727D01*
X153975614Y-68890840D01*
X154000000Y-68893242D01*
X154024387Y-68890840D01*
X154047835Y-68883727D01*
X154069446Y-68872176D01*
X154088388Y-68856630D01*
X154103933Y-68837688D01*
X154115484Y-68816078D01*
X154122595Y-68792638D01*
X154133624Y-68737188D01*
X154201544Y-68573216D01*
X154300147Y-68425646D01*
X154425646Y-68300147D01*
X154573216Y-68201544D01*
X154737188Y-68133624D01*
X154886488Y-68103927D01*
X154911258Y-68099000D01*
X155088742Y-68099000D01*
X155113512Y-68103927D01*
X155262812Y-68133624D01*
X155426784Y-68201544D01*
X155574354Y-68300147D01*
X155699853Y-68425646D01*
X155798456Y-68573216D01*
X155866376Y-68737188D01*
X155877405Y-68792638D01*
X155884516Y-68816078D01*
X155896067Y-68837689D01*
X155911613Y-68856631D01*
X155930555Y-68872176D01*
X155952165Y-68883727D01*
X155975614Y-68890840D01*
X156000000Y-68893242D01*
X156024387Y-68890840D01*
X156047835Y-68883727D01*
X156069446Y-68872176D01*
X156088388Y-68856630D01*
X156103933Y-68837688D01*
X156115484Y-68816078D01*
X156122595Y-68792638D01*
X156133624Y-68737188D01*
X156201544Y-68573216D01*
X156300147Y-68425646D01*
X156425646Y-68300147D01*
X156573216Y-68201544D01*
X156737188Y-68133624D01*
X156886488Y-68103927D01*
X156911258Y-68099000D01*
X157088742Y-68099000D01*
X157113512Y-68103927D01*
X157262812Y-68133624D01*
X157426784Y-68201544D01*
X157574354Y-68300147D01*
X157699853Y-68425646D01*
X157798456Y-68573216D01*
X157866376Y-68737188D01*
X157877405Y-68792638D01*
X157884516Y-68816078D01*
X157896067Y-68837689D01*
X157911613Y-68856631D01*
X157930555Y-68872176D01*
X157952165Y-68883727D01*
X157975614Y-68890840D01*
X158000000Y-68893242D01*
X158024387Y-68890840D01*
X158047835Y-68883727D01*
X158069446Y-68872176D01*
X158088388Y-68856630D01*
X158103933Y-68837688D01*
X158115484Y-68816078D01*
X158122595Y-68792638D01*
X158133624Y-68737188D01*
X158201544Y-68573216D01*
X158300147Y-68425646D01*
X158425646Y-68300147D01*
X158573216Y-68201544D01*
X158737188Y-68133624D01*
X158886488Y-68103927D01*
X158911258Y-68099000D01*
X159088742Y-68099000D01*
X159113512Y-68103927D01*
X159262812Y-68133624D01*
X159426784Y-68201544D01*
X159574354Y-68300147D01*
X159699853Y-68425646D01*
X159798456Y-68573216D01*
X159866376Y-68737188D01*
X159877405Y-68792638D01*
X159884516Y-68816078D01*
X159896067Y-68837689D01*
X159911613Y-68856631D01*
X159930555Y-68872176D01*
X159952165Y-68883727D01*
X159975614Y-68890840D01*
X160000000Y-68893242D01*
X160024387Y-68890840D01*
X160047835Y-68883727D01*
X160069446Y-68872176D01*
X160088388Y-68856630D01*
X160103933Y-68837688D01*
X160115484Y-68816078D01*
X160122595Y-68792638D01*
X160133624Y-68737188D01*
X160201544Y-68573216D01*
X160300147Y-68425646D01*
X160425646Y-68300147D01*
X160573216Y-68201544D01*
X160737188Y-68133624D01*
X160886488Y-68103927D01*
X160911258Y-68099000D01*
X161088742Y-68099000D01*
X161113512Y-68103927D01*
X161262812Y-68133624D01*
X161426784Y-68201544D01*
X161574354Y-68300147D01*
X161699853Y-68425646D01*
X161798456Y-68573216D01*
X161866376Y-68737188D01*
X161877405Y-68792638D01*
X161884516Y-68816078D01*
X161896067Y-68837689D01*
X161911613Y-68856631D01*
X161930555Y-68872176D01*
X161952165Y-68883727D01*
X161975614Y-68890840D01*
X162000000Y-68893242D01*
X162024387Y-68890840D01*
X162047835Y-68883727D01*
X162069446Y-68872176D01*
X162088388Y-68856630D01*
X162103933Y-68837688D01*
X162115484Y-68816078D01*
X162122595Y-68792638D01*
X162133624Y-68737188D01*
X162201544Y-68573216D01*
X162300147Y-68425646D01*
X162425646Y-68300147D01*
X162573216Y-68201544D01*
X162737188Y-68133624D01*
X162886488Y-68103927D01*
X162911258Y-68099000D01*
X163088742Y-68099000D01*
X163113512Y-68103927D01*
X163262812Y-68133624D01*
X163426784Y-68201544D01*
X163574354Y-68300147D01*
X163699853Y-68425646D01*
X163798456Y-68573216D01*
X163866376Y-68737188D01*
X163877405Y-68792638D01*
X163884516Y-68816078D01*
X163896067Y-68837689D01*
X163911613Y-68856631D01*
X163930555Y-68872176D01*
X163952165Y-68883727D01*
X163975614Y-68890840D01*
X164000000Y-68893242D01*
X164024387Y-68890840D01*
X164047835Y-68883727D01*
X164069446Y-68872176D01*
X164088388Y-68856630D01*
X164103933Y-68837688D01*
X164115484Y-68816078D01*
X164122595Y-68792638D01*
X164133624Y-68737188D01*
X164201544Y-68573216D01*
X164300147Y-68425646D01*
X164425646Y-68300147D01*
X164573216Y-68201544D01*
X164737188Y-68133624D01*
X164886488Y-68103927D01*
X164911258Y-68099000D01*
X165088742Y-68099000D01*
X165113512Y-68103927D01*
X165262812Y-68133624D01*
X165426784Y-68201544D01*
X165574354Y-68300147D01*
X165699853Y-68425646D01*
X165798456Y-68573216D01*
X165866376Y-68737188D01*
X165901000Y-68911259D01*
X165901000Y-69088741D01*
X165866376Y-69262812D01*
X165798456Y-69426784D01*
X165699853Y-69574354D01*
X165574354Y-69699853D01*
X165426784Y-69798456D01*
X165262812Y-69866376D01*
X165113512Y-69896073D01*
X165088742Y-69901000D01*
X164911258Y-69901000D01*
X164886488Y-69896073D01*
X164737188Y-69866376D01*
X164573216Y-69798456D01*
X164425646Y-69699853D01*
X164300147Y-69574354D01*
X164201544Y-69426784D01*
X164133624Y-69262812D01*
X164122595Y-69207362D01*
X164115484Y-69183922D01*
X164103933Y-69162311D01*
X164088387Y-69143369D01*
X164069445Y-69127824D01*
X164047835Y-69116273D01*
X164024386Y-69109160D01*
X164000000Y-69106758D01*
X163975613Y-69109160D01*
X163952165Y-69116273D01*
X163930554Y-69127824D01*
X163911612Y-69143370D01*
X163896067Y-69162312D01*
X163884516Y-69183922D01*
X163877405Y-69207362D01*
X163866376Y-69262812D01*
X163798456Y-69426784D01*
X163699853Y-69574354D01*
X163574354Y-69699853D01*
X163426784Y-69798456D01*
X163262812Y-69866376D01*
X163113512Y-69896073D01*
X163088742Y-69901000D01*
X162911258Y-69901000D01*
X162886488Y-69896073D01*
X162737188Y-69866376D01*
X162573216Y-69798456D01*
X162425646Y-69699853D01*
X162300147Y-69574354D01*
X162201544Y-69426784D01*
X162133624Y-69262812D01*
X162122595Y-69207362D01*
X162115484Y-69183922D01*
X162103933Y-69162311D01*
X162088387Y-69143369D01*
X162069445Y-69127824D01*
X162047835Y-69116273D01*
X162024386Y-69109160D01*
X162000000Y-69106758D01*
X161975613Y-69109160D01*
X161952165Y-69116273D01*
X161930554Y-69127824D01*
X161911612Y-69143370D01*
X161896067Y-69162312D01*
X161884516Y-69183922D01*
X161877405Y-69207362D01*
X161866376Y-69262812D01*
X161798456Y-69426784D01*
X161699853Y-69574354D01*
X161574354Y-69699853D01*
X161426784Y-69798456D01*
X161262812Y-69866376D01*
X161113512Y-69896073D01*
X161088742Y-69901000D01*
X160911258Y-69901000D01*
X160886488Y-69896073D01*
X160737188Y-69866376D01*
X160573216Y-69798456D01*
X160425646Y-69699853D01*
X160300147Y-69574354D01*
X160201544Y-69426784D01*
X160133624Y-69262812D01*
X160122595Y-69207362D01*
X160115484Y-69183922D01*
X160103933Y-69162311D01*
X160088387Y-69143369D01*
X160069445Y-69127824D01*
X160047835Y-69116273D01*
X160024386Y-69109160D01*
X160000000Y-69106758D01*
X159975613Y-69109160D01*
X159952165Y-69116273D01*
X159930554Y-69127824D01*
X159911612Y-69143370D01*
X159896067Y-69162312D01*
X159884516Y-69183922D01*
X159877405Y-69207362D01*
X159866376Y-69262812D01*
X159798456Y-69426784D01*
X159699853Y-69574354D01*
X159574354Y-69699853D01*
X159426784Y-69798456D01*
X159262812Y-69866376D01*
X159113512Y-69896073D01*
X159088742Y-69901000D01*
X158911258Y-69901000D01*
X158886488Y-69896073D01*
X158737188Y-69866376D01*
X158573216Y-69798456D01*
X158425646Y-69699853D01*
X158300147Y-69574354D01*
X158201544Y-69426784D01*
X158133624Y-69262812D01*
X158122595Y-69207362D01*
X158115484Y-69183922D01*
X158103933Y-69162311D01*
X158088387Y-69143369D01*
X158069445Y-69127824D01*
X158047835Y-69116273D01*
X158024386Y-69109160D01*
X158000000Y-69106758D01*
X157975613Y-69109160D01*
X157952165Y-69116273D01*
X157930554Y-69127824D01*
X157911612Y-69143370D01*
X157896067Y-69162312D01*
X157884516Y-69183922D01*
X157877405Y-69207362D01*
X157866376Y-69262812D01*
X157798456Y-69426784D01*
X157699853Y-69574354D01*
X157574354Y-69699853D01*
X157426784Y-69798456D01*
X157262812Y-69866376D01*
X157113512Y-69896073D01*
X157088742Y-69901000D01*
X156911258Y-69901000D01*
X156886488Y-69896073D01*
X156737188Y-69866376D01*
X156573216Y-69798456D01*
X156425646Y-69699853D01*
X156300147Y-69574354D01*
X156201544Y-69426784D01*
X156133624Y-69262812D01*
X156122595Y-69207362D01*
X156115484Y-69183922D01*
X156103933Y-69162311D01*
X156088387Y-69143369D01*
X156069445Y-69127824D01*
X156047835Y-69116273D01*
X156024386Y-69109160D01*
X156000000Y-69106758D01*
X155975613Y-69109160D01*
X155952165Y-69116273D01*
X155930554Y-69127824D01*
X155911612Y-69143370D01*
X155896067Y-69162312D01*
X155884516Y-69183922D01*
X155877405Y-69207362D01*
X155866376Y-69262812D01*
X155798456Y-69426784D01*
X155699853Y-69574354D01*
X155574354Y-69699853D01*
X155426784Y-69798456D01*
X155262812Y-69866376D01*
X155113512Y-69896073D01*
X155088742Y-69901000D01*
X154911258Y-69901000D01*
X154886488Y-69896073D01*
X154737188Y-69866376D01*
X154573216Y-69798456D01*
X154425646Y-69699853D01*
X154300147Y-69574354D01*
X154201544Y-69426784D01*
X154133624Y-69262812D01*
X154122595Y-69207362D01*
X154115484Y-69183922D01*
X154103933Y-69162311D01*
X154088387Y-69143369D01*
X154069445Y-69127824D01*
X154047835Y-69116273D01*
X154024386Y-69109160D01*
X154000000Y-69106758D01*
X153975613Y-69109160D01*
X153952165Y-69116273D01*
X153930554Y-69127824D01*
X153911612Y-69143370D01*
X153896067Y-69162312D01*
X153884516Y-69183922D01*
X153877405Y-69207362D01*
X153866376Y-69262812D01*
X153798456Y-69426784D01*
X153699853Y-69574354D01*
X153574354Y-69699853D01*
X153426784Y-69798456D01*
X153262812Y-69866376D01*
X153113512Y-69896073D01*
X153088742Y-69901000D01*
X152911258Y-69901000D01*
X152886488Y-69896073D01*
X152737188Y-69866376D01*
X152573216Y-69798456D01*
X152425646Y-69699853D01*
X152300147Y-69574354D01*
X152201544Y-69426784D01*
X152133624Y-69262812D01*
X152122595Y-69207362D01*
X152115484Y-69183922D01*
X152103933Y-69162311D01*
X152088387Y-69143369D01*
X152069445Y-69127824D01*
X152047835Y-69116273D01*
X152024386Y-69109160D01*
X152000000Y-69106758D01*
X151975613Y-69109160D01*
X151952165Y-69116273D01*
X151930554Y-69127824D01*
X151911612Y-69143370D01*
X151896067Y-69162312D01*
X151884516Y-69183922D01*
X151877405Y-69207362D01*
X151866376Y-69262812D01*
X151798456Y-69426784D01*
X151699853Y-69574354D01*
X151574354Y-69699853D01*
X151426784Y-69798456D01*
X151262812Y-69866376D01*
X151113512Y-69896073D01*
X151088742Y-69901000D01*
X150911258Y-69901000D01*
X150886488Y-69896073D01*
X150737188Y-69866376D01*
X150573216Y-69798456D01*
X150425646Y-69699853D01*
X150300147Y-69574354D01*
X150201544Y-69426784D01*
X150133624Y-69262812D01*
X150122595Y-69207362D01*
X150115484Y-69183922D01*
X150103933Y-69162311D01*
X150088387Y-69143369D01*
X150069445Y-69127824D01*
X150047835Y-69116273D01*
X150024386Y-69109160D01*
X150000000Y-69106758D01*
X149975613Y-69109160D01*
X149952165Y-69116273D01*
X149930554Y-69127824D01*
X149911612Y-69143370D01*
X149896067Y-69162312D01*
X149884516Y-69183922D01*
X149877405Y-69207362D01*
X149866376Y-69262812D01*
X149798456Y-69426784D01*
X149699853Y-69574354D01*
X149574354Y-69699853D01*
X149426784Y-69798456D01*
X149262812Y-69866376D01*
X149113512Y-69896073D01*
X149088742Y-69901000D01*
X148911258Y-69901000D01*
X148886488Y-69896073D01*
X148737188Y-69866376D01*
X148573216Y-69798456D01*
X148425646Y-69699853D01*
X148300147Y-69574354D01*
X148201544Y-69426784D01*
X148133624Y-69262812D01*
X148122595Y-69207362D01*
X148115484Y-69183922D01*
X148103933Y-69162311D01*
X148088387Y-69143369D01*
X148069445Y-69127824D01*
X148047835Y-69116273D01*
X148024386Y-69109160D01*
X148000000Y-69106758D01*
X147975613Y-69109160D01*
X147952165Y-69116273D01*
X147930554Y-69127824D01*
X147911612Y-69143370D01*
X147896067Y-69162312D01*
X147884516Y-69183922D01*
X147877405Y-69207362D01*
X147866376Y-69262812D01*
X147798456Y-69426784D01*
X147699853Y-69574354D01*
X147574354Y-69699853D01*
X147426784Y-69798456D01*
X147262812Y-69866376D01*
X147113512Y-69896073D01*
X147088742Y-69901000D01*
X146911258Y-69901000D01*
X146886488Y-69896073D01*
X146737188Y-69866376D01*
X146573216Y-69798456D01*
X146425646Y-69699853D01*
X146300147Y-69574354D01*
X146201544Y-69426784D01*
X146133624Y-69262812D01*
X146099000Y-69088741D01*
X146099000Y-68911259D01*
X146133624Y-68737188D01*
X146201544Y-68573216D01*
X146300147Y-68425646D01*
X146425646Y-68300147D01*
X146573216Y-68201544D01*
X146737188Y-68133624D01*
X146886488Y-68103927D01*
X146911258Y-68099000D01*
X147088742Y-68099000D01*
X147113512Y-68103927D01*
G37*
G36*
X98113512Y-66723927D02*
G01*
X98262812Y-66753624D01*
X98426784Y-66821544D01*
X98574354Y-66920147D01*
X98699853Y-67045646D01*
X98798456Y-67193216D01*
X98866376Y-67357188D01*
X98901000Y-67531259D01*
X98901000Y-67708741D01*
X98866376Y-67882812D01*
X98798456Y-68046784D01*
X98699853Y-68194354D01*
X98574354Y-68319853D01*
X98426784Y-68418456D01*
X98262812Y-68486376D01*
X98113512Y-68516073D01*
X98088742Y-68521000D01*
X97911258Y-68521000D01*
X97886488Y-68516073D01*
X97737188Y-68486376D01*
X97573216Y-68418456D01*
X97425646Y-68319853D01*
X97300147Y-68194354D01*
X97201544Y-68046784D01*
X97133624Y-67882812D01*
X97099000Y-67708741D01*
X97099000Y-67531259D01*
X97133624Y-67357188D01*
X97201544Y-67193216D01*
X97300147Y-67045646D01*
X97425646Y-66920147D01*
X97573216Y-66821544D01*
X97737188Y-66753624D01*
X97886488Y-66723927D01*
X97911258Y-66719000D01*
X98088742Y-66719000D01*
X98113512Y-66723927D01*
G37*
G36*
X127113512Y-66723927D02*
G01*
X127262812Y-66753624D01*
X127426784Y-66821544D01*
X127574354Y-66920147D01*
X127699853Y-67045646D01*
X127798456Y-67193216D01*
X127866376Y-67357188D01*
X127901000Y-67531259D01*
X127901000Y-67708741D01*
X127866376Y-67882812D01*
X127798456Y-68046784D01*
X127699853Y-68194354D01*
X127574354Y-68319853D01*
X127426784Y-68418456D01*
X127262812Y-68486376D01*
X127113512Y-68516073D01*
X127088742Y-68521000D01*
X126911258Y-68521000D01*
X126886488Y-68516073D01*
X126737188Y-68486376D01*
X126573216Y-68418456D01*
X126425646Y-68319853D01*
X126300147Y-68194354D01*
X126201544Y-68046784D01*
X126133624Y-67882812D01*
X126099000Y-67708741D01*
X126099000Y-67531259D01*
X126133624Y-67357188D01*
X126201544Y-67193216D01*
X126300147Y-67045646D01*
X126425646Y-66920147D01*
X126573216Y-66821544D01*
X126737188Y-66753624D01*
X126886488Y-66723927D01*
X126911258Y-66719000D01*
X127088742Y-66719000D01*
X127113512Y-66723927D01*
G37*
G36*
X120488228Y-66801703D02*
G01*
X120643100Y-66865853D01*
X120782481Y-66958985D01*
X120901015Y-67077519D01*
X120994147Y-67216900D01*
X121058297Y-67371772D01*
X121091000Y-67536184D01*
X121091000Y-67703816D01*
X121058297Y-67868228D01*
X120994147Y-68023100D01*
X120901015Y-68162481D01*
X120782481Y-68281015D01*
X120643100Y-68374147D01*
X120488228Y-68438297D01*
X120323816Y-68471000D01*
X120156184Y-68471000D01*
X119991772Y-68438297D01*
X119836900Y-68374147D01*
X119697519Y-68281015D01*
X119578985Y-68162481D01*
X119485853Y-68023100D01*
X119421703Y-67868228D01*
X119389000Y-67703816D01*
X119389000Y-67536184D01*
X119421703Y-67371772D01*
X119485853Y-67216900D01*
X119578985Y-67077519D01*
X119697519Y-66958985D01*
X119836900Y-66865853D01*
X119991772Y-66801703D01*
X120156184Y-66769000D01*
X120323816Y-66769000D01*
X120488228Y-66801703D01*
G37*
G36*
X105248228Y-66801703D02*
G01*
X105403100Y-66865853D01*
X105542481Y-66958985D01*
X105661015Y-67077519D01*
X105754147Y-67216900D01*
X105818297Y-67371772D01*
X105851000Y-67536184D01*
X105851000Y-67703816D01*
X105818297Y-67868228D01*
X105754147Y-68023100D01*
X105661015Y-68162481D01*
X105542481Y-68281015D01*
X105403100Y-68374147D01*
X105248228Y-68438297D01*
X105083816Y-68471000D01*
X104916184Y-68471000D01*
X104751772Y-68438297D01*
X104596900Y-68374147D01*
X104457519Y-68281015D01*
X104338985Y-68162481D01*
X104245853Y-68023100D01*
X104181703Y-67868228D01*
X104149000Y-67703816D01*
X104149000Y-67536184D01*
X104181703Y-67371772D01*
X104245853Y-67216900D01*
X104338985Y-67077519D01*
X104457519Y-66958985D01*
X104596900Y-66865853D01*
X104751772Y-66801703D01*
X104916184Y-66769000D01*
X105083816Y-66769000D01*
X105248228Y-66801703D01*
G37*
G36*
X140901000Y-68201000D02*
G01*
X139099000Y-68201000D01*
X139099000Y-66399000D01*
X140901000Y-66399000D01*
X140901000Y-68201000D01*
G37*
G36*
X98113512Y-64183927D02*
G01*
X98262812Y-64213624D01*
X98426784Y-64281544D01*
X98574354Y-64380147D01*
X98699853Y-64505646D01*
X98798456Y-64653216D01*
X98866376Y-64817188D01*
X98901000Y-64991259D01*
X98901000Y-65168741D01*
X98866376Y-65342812D01*
X98798456Y-65506784D01*
X98699853Y-65654354D01*
X98574354Y-65779853D01*
X98426784Y-65878456D01*
X98262812Y-65946376D01*
X98113512Y-65976073D01*
X98088742Y-65981000D01*
X97911258Y-65981000D01*
X97886488Y-65976073D01*
X97737188Y-65946376D01*
X97573216Y-65878456D01*
X97425646Y-65779853D01*
X97300147Y-65654354D01*
X97201544Y-65506784D01*
X97133624Y-65342812D01*
X97099000Y-65168741D01*
X97099000Y-64991259D01*
X97133624Y-64817188D01*
X97201544Y-64653216D01*
X97300147Y-64505646D01*
X97425646Y-64380147D01*
X97573216Y-64281544D01*
X97737188Y-64213624D01*
X97886488Y-64183927D01*
X97911258Y-64179000D01*
X98088742Y-64179000D01*
X98113512Y-64183927D01*
G37*
G36*
X127113512Y-64183927D02*
G01*
X127262812Y-64213624D01*
X127426784Y-64281544D01*
X127574354Y-64380147D01*
X127699853Y-64505646D01*
X127798456Y-64653216D01*
X127866376Y-64817188D01*
X127901000Y-64991259D01*
X127901000Y-65168741D01*
X127866376Y-65342812D01*
X127798456Y-65506784D01*
X127699853Y-65654354D01*
X127574354Y-65779853D01*
X127426784Y-65878456D01*
X127262812Y-65946376D01*
X127113512Y-65976073D01*
X127088742Y-65981000D01*
X126911258Y-65981000D01*
X126886488Y-65976073D01*
X126737188Y-65946376D01*
X126573216Y-65878456D01*
X126425646Y-65779853D01*
X126300147Y-65654354D01*
X126201544Y-65506784D01*
X126133624Y-65342812D01*
X126099000Y-65168741D01*
X126099000Y-64991259D01*
X126133624Y-64817188D01*
X126201544Y-64653216D01*
X126300147Y-64505646D01*
X126425646Y-64380147D01*
X126573216Y-64281544D01*
X126737188Y-64213624D01*
X126886488Y-64183927D01*
X126911258Y-64179000D01*
X127088742Y-64179000D01*
X127113512Y-64183927D01*
G37*
G36*
X105248228Y-64261703D02*
G01*
X105403100Y-64325853D01*
X105542481Y-64418985D01*
X105661015Y-64537519D01*
X105754147Y-64676900D01*
X105818297Y-64831772D01*
X105851000Y-64996184D01*
X105851000Y-65163816D01*
X105818297Y-65328228D01*
X105754147Y-65483100D01*
X105661015Y-65622481D01*
X105542481Y-65741015D01*
X105403100Y-65834147D01*
X105248228Y-65898297D01*
X105083816Y-65931000D01*
X104916184Y-65931000D01*
X104751772Y-65898297D01*
X104596900Y-65834147D01*
X104457519Y-65741015D01*
X104338985Y-65622481D01*
X104245853Y-65483100D01*
X104181703Y-65328228D01*
X104149000Y-65163816D01*
X104149000Y-64996184D01*
X104181703Y-64831772D01*
X104245853Y-64676900D01*
X104338985Y-64537519D01*
X104457519Y-64418985D01*
X104596900Y-64325853D01*
X104751772Y-64261703D01*
X104916184Y-64229000D01*
X105083816Y-64229000D01*
X105248228Y-64261703D01*
G37*
G36*
X120488228Y-64261703D02*
G01*
X120643100Y-64325853D01*
X120782481Y-64418985D01*
X120901015Y-64537519D01*
X120994147Y-64676900D01*
X121058297Y-64831772D01*
X121091000Y-64996184D01*
X121091000Y-65163816D01*
X121058297Y-65328228D01*
X120994147Y-65483100D01*
X120901015Y-65622481D01*
X120782481Y-65741015D01*
X120643100Y-65834147D01*
X120488228Y-65898297D01*
X120323816Y-65931000D01*
X120156184Y-65931000D01*
X119991772Y-65898297D01*
X119836900Y-65834147D01*
X119697519Y-65741015D01*
X119578985Y-65622481D01*
X119485853Y-65483100D01*
X119421703Y-65328228D01*
X119389000Y-65163816D01*
X119389000Y-64996184D01*
X119421703Y-64831772D01*
X119485853Y-64676900D01*
X119578985Y-64537519D01*
X119697519Y-64418985D01*
X119836900Y-64325853D01*
X119991772Y-64261703D01*
X120156184Y-64229000D01*
X120323816Y-64229000D01*
X120488228Y-64261703D01*
G37*
G36*
X98113512Y-61643927D02*
G01*
X98262812Y-61673624D01*
X98426784Y-61741544D01*
X98574354Y-61840147D01*
X98699853Y-61965646D01*
X98798456Y-62113216D01*
X98866376Y-62277188D01*
X98901000Y-62451259D01*
X98901000Y-62628741D01*
X98866376Y-62802812D01*
X98798456Y-62966784D01*
X98699853Y-63114354D01*
X98574354Y-63239853D01*
X98426784Y-63338456D01*
X98262812Y-63406376D01*
X98113512Y-63436073D01*
X98088742Y-63441000D01*
X97911258Y-63441000D01*
X97886488Y-63436073D01*
X97737188Y-63406376D01*
X97573216Y-63338456D01*
X97425646Y-63239853D01*
X97300147Y-63114354D01*
X97201544Y-62966784D01*
X97133624Y-62802812D01*
X97099000Y-62628741D01*
X97099000Y-62451259D01*
X97133624Y-62277188D01*
X97201544Y-62113216D01*
X97300147Y-61965646D01*
X97425646Y-61840147D01*
X97573216Y-61741544D01*
X97737188Y-61673624D01*
X97886488Y-61643927D01*
X97911258Y-61639000D01*
X98088742Y-61639000D01*
X98113512Y-61643927D01*
G37*
G36*
X127113512Y-61643927D02*
G01*
X127262812Y-61673624D01*
X127426784Y-61741544D01*
X127574354Y-61840147D01*
X127699853Y-61965646D01*
X127798456Y-62113216D01*
X127866376Y-62277188D01*
X127901000Y-62451259D01*
X127901000Y-62628741D01*
X127866376Y-62802812D01*
X127798456Y-62966784D01*
X127699853Y-63114354D01*
X127574354Y-63239853D01*
X127426784Y-63338456D01*
X127262812Y-63406376D01*
X127113512Y-63436073D01*
X127088742Y-63441000D01*
X126911258Y-63441000D01*
X126886488Y-63436073D01*
X126737188Y-63406376D01*
X126573216Y-63338456D01*
X126425646Y-63239853D01*
X126300147Y-63114354D01*
X126201544Y-62966784D01*
X126133624Y-62802812D01*
X126099000Y-62628741D01*
X126099000Y-62451259D01*
X126133624Y-62277188D01*
X126201544Y-62113216D01*
X126300147Y-61965646D01*
X126425646Y-61840147D01*
X126573216Y-61741544D01*
X126737188Y-61673624D01*
X126886488Y-61643927D01*
X126911258Y-61639000D01*
X127088742Y-61639000D01*
X127113512Y-61643927D01*
G37*
G36*
X105248228Y-61721703D02*
G01*
X105403100Y-61785853D01*
X105542481Y-61878985D01*
X105661015Y-61997519D01*
X105754147Y-62136900D01*
X105818297Y-62291772D01*
X105851000Y-62456184D01*
X105851000Y-62623816D01*
X105818297Y-62788228D01*
X105754147Y-62943100D01*
X105661015Y-63082481D01*
X105542481Y-63201015D01*
X105403100Y-63294147D01*
X105248228Y-63358297D01*
X105083816Y-63391000D01*
X104916184Y-63391000D01*
X104751772Y-63358297D01*
X104596900Y-63294147D01*
X104457519Y-63201015D01*
X104338985Y-63082481D01*
X104245853Y-62943100D01*
X104181703Y-62788228D01*
X104149000Y-62623816D01*
X104149000Y-62456184D01*
X104181703Y-62291772D01*
X104245853Y-62136900D01*
X104338985Y-61997519D01*
X104457519Y-61878985D01*
X104596900Y-61785853D01*
X104751772Y-61721703D01*
X104916184Y-61689000D01*
X105083816Y-61689000D01*
X105248228Y-61721703D01*
G37*
G36*
X120488228Y-61721703D02*
G01*
X120643100Y-61785853D01*
X120782481Y-61878985D01*
X120901015Y-61997519D01*
X120994147Y-62136900D01*
X121058297Y-62291772D01*
X121091000Y-62456184D01*
X121091000Y-62623816D01*
X121058297Y-62788228D01*
X120994147Y-62943100D01*
X120901015Y-63082481D01*
X120782481Y-63201015D01*
X120643100Y-63294147D01*
X120488228Y-63358297D01*
X120323816Y-63391000D01*
X120156184Y-63391000D01*
X119991772Y-63358297D01*
X119836900Y-63294147D01*
X119697519Y-63201015D01*
X119578985Y-63082481D01*
X119485853Y-62943100D01*
X119421703Y-62788228D01*
X119389000Y-62623816D01*
X119389000Y-62456184D01*
X119421703Y-62291772D01*
X119485853Y-62136900D01*
X119578985Y-61997519D01*
X119697519Y-61878985D01*
X119836900Y-61785853D01*
X119991772Y-61721703D01*
X120156184Y-61689000D01*
X120323816Y-61689000D01*
X120488228Y-61721703D01*
G37*
G36*
X98901000Y-60901000D02*
G01*
X97099000Y-60901000D01*
X97099000Y-59099000D01*
X98901000Y-59099000D01*
X98901000Y-60901000D01*
G37*
G36*
X127113512Y-59103927D02*
G01*
X127262812Y-59133624D01*
X127426784Y-59201544D01*
X127574354Y-59300147D01*
X127699853Y-59425646D01*
X127798456Y-59573216D01*
X127866376Y-59737188D01*
X127901000Y-59911259D01*
X127901000Y-60088741D01*
X127866376Y-60262812D01*
X127798456Y-60426784D01*
X127699853Y-60574354D01*
X127574354Y-60699853D01*
X127426784Y-60798456D01*
X127262812Y-60866376D01*
X127113512Y-60896073D01*
X127088742Y-60901000D01*
X126911258Y-60901000D01*
X126886488Y-60896073D01*
X126737188Y-60866376D01*
X126573216Y-60798456D01*
X126425646Y-60699853D01*
X126300147Y-60574354D01*
X126201544Y-60426784D01*
X126133624Y-60262812D01*
X126099000Y-60088741D01*
X126099000Y-59911259D01*
X126133624Y-59737188D01*
X126201544Y-59573216D01*
X126300147Y-59425646D01*
X126425646Y-59300147D01*
X126573216Y-59201544D01*
X126737188Y-59133624D01*
X126886488Y-59103927D01*
X126911258Y-59099000D01*
X127088742Y-59099000D01*
X127113512Y-59103927D01*
G37*
G36*
X120488228Y-59181703D02*
G01*
X120643100Y-59245853D01*
X120782481Y-59338985D01*
X120901015Y-59457519D01*
X120994147Y-59596900D01*
X121058297Y-59751772D01*
X121091000Y-59916184D01*
X121091000Y-60083816D01*
X121058297Y-60248228D01*
X120994147Y-60403100D01*
X120901015Y-60542481D01*
X120782481Y-60661015D01*
X120643100Y-60754147D01*
X120488228Y-60818297D01*
X120323816Y-60851000D01*
X120156184Y-60851000D01*
X119991772Y-60818297D01*
X119836900Y-60754147D01*
X119697519Y-60661015D01*
X119578985Y-60542481D01*
X119485853Y-60403100D01*
X119421703Y-60248228D01*
X119389000Y-60083816D01*
X119389000Y-59916184D01*
X119421703Y-59751772D01*
X119485853Y-59596900D01*
X119578985Y-59457519D01*
X119697519Y-59338985D01*
X119836900Y-59245853D01*
X119991772Y-59181703D01*
X120156184Y-59149000D01*
X120323816Y-59149000D01*
X120488228Y-59181703D01*
G37*
G36*
X105851000Y-60851000D02*
G01*
X104149000Y-60851000D01*
X104149000Y-59149000D01*
X105851000Y-59149000D01*
X105851000Y-60851000D01*
G37*
G36*
X121766564Y-46989389D02*
G01*
X121957833Y-47068615D01*
X121957835Y-47068616D01*
X122129973Y-47183635D01*
X122276365Y-47330027D01*
X122391385Y-47502167D01*
X122470611Y-47693436D01*
X122511000Y-47896484D01*
X122511000Y-48103516D01*
X122470611Y-48306564D01*
X122391385Y-48497833D01*
X122391384Y-48497835D01*
X122276365Y-48669973D01*
X122129973Y-48816365D01*
X121957835Y-48931384D01*
X121957834Y-48931385D01*
X121957833Y-48931385D01*
X121766564Y-49010611D01*
X121563516Y-49051000D01*
X121356484Y-49051000D01*
X121153436Y-49010611D01*
X120962167Y-48931385D01*
X120962166Y-48931385D01*
X120962165Y-48931384D01*
X120790027Y-48816365D01*
X120643635Y-48669973D01*
X120528616Y-48497835D01*
X120528615Y-48497833D01*
X120449389Y-48306564D01*
X120409000Y-48103516D01*
X120409000Y-47896484D01*
X120449389Y-47693436D01*
X120528615Y-47502167D01*
X120643635Y-47330027D01*
X120790027Y-47183635D01*
X120962165Y-47068616D01*
X120962167Y-47068615D01*
X121153436Y-46989389D01*
X121356484Y-46949000D01*
X121563516Y-46949000D01*
X121766564Y-46989389D01*
G37*
G36*
X126846564Y-46989389D02*
G01*
X127037833Y-47068615D01*
X127037835Y-47068616D01*
X127209973Y-47183635D01*
X127356365Y-47330027D01*
X127471385Y-47502167D01*
X127550611Y-47693436D01*
X127591000Y-47896484D01*
X127591000Y-48103516D01*
X127550611Y-48306564D01*
X127471385Y-48497833D01*
X127471384Y-48497835D01*
X127356365Y-48669973D01*
X127209973Y-48816365D01*
X127037835Y-48931384D01*
X127037834Y-48931385D01*
X127037833Y-48931385D01*
X126846564Y-49010611D01*
X126643516Y-49051000D01*
X126436484Y-49051000D01*
X126233436Y-49010611D01*
X126042167Y-48931385D01*
X126042166Y-48931385D01*
X126042165Y-48931384D01*
X125870027Y-48816365D01*
X125723635Y-48669973D01*
X125608616Y-48497835D01*
X125608615Y-48497833D01*
X125529389Y-48306564D01*
X125489000Y-48103516D01*
X125489000Y-47896484D01*
X125529389Y-47693436D01*
X125608615Y-47502167D01*
X125723635Y-47330027D01*
X125870027Y-47183635D01*
X126042165Y-47068616D01*
X126042167Y-47068615D01*
X126233436Y-46989389D01*
X126436484Y-46949000D01*
X126643516Y-46949000D01*
X126846564Y-46989389D01*
G37*
G36*
X143214794Y-45920155D02*
G01*
X143321150Y-45941311D01*
X143421334Y-45982809D01*
X143521520Y-46024307D01*
X143701844Y-46144795D01*
X143855205Y-46298156D01*
X143975693Y-46478480D01*
X144058689Y-46678851D01*
X144101000Y-46891560D01*
X144101000Y-47108440D01*
X144058689Y-47321149D01*
X143975693Y-47521520D01*
X143855205Y-47701844D01*
X143701844Y-47855205D01*
X143521520Y-47975693D01*
X143321150Y-48058689D01*
X143214794Y-48079845D01*
X143108440Y-48101000D01*
X142891560Y-48101000D01*
X142785206Y-48079845D01*
X142678850Y-48058689D01*
X142478480Y-47975693D01*
X142298156Y-47855205D01*
X142144795Y-47701844D01*
X142024307Y-47521520D01*
X141941311Y-47321149D01*
X141899000Y-47108440D01*
X141899000Y-46891560D01*
X141941311Y-46678851D01*
X142024307Y-46478480D01*
X142144795Y-46298156D01*
X142298156Y-46144795D01*
X142478480Y-46024307D01*
X142578666Y-45982809D01*
X142678850Y-45941311D01*
X142785205Y-45920156D01*
X142891560Y-45899000D01*
X143108440Y-45899000D01*
X143214794Y-45920155D01*
G37*
G36*
X96214794Y-45920155D02*
G01*
X96321150Y-45941311D01*
X96421334Y-45982809D01*
X96521520Y-46024307D01*
X96701844Y-46144795D01*
X96855205Y-46298156D01*
X96975693Y-46478480D01*
X97058689Y-46678851D01*
X97101000Y-46891560D01*
X97101000Y-47108440D01*
X97058689Y-47321149D01*
X96975693Y-47521520D01*
X96855205Y-47701844D01*
X96701844Y-47855205D01*
X96521520Y-47975693D01*
X96321150Y-48058689D01*
X96214794Y-48079845D01*
X96108440Y-48101000D01*
X95891560Y-48101000D01*
X95785206Y-48079845D01*
X95678850Y-48058689D01*
X95478480Y-47975693D01*
X95298156Y-47855205D01*
X95144795Y-47701844D01*
X95024307Y-47521520D01*
X94941311Y-47321149D01*
X94899000Y-47108440D01*
X94899000Y-46891560D01*
X94941311Y-46678851D01*
X95024307Y-46478480D01*
X95144795Y-46298156D01*
X95298156Y-46144795D01*
X95478480Y-46024307D01*
X95578666Y-45982809D01*
X95678850Y-45941311D01*
X95785205Y-45920156D01*
X95891560Y-45899000D01*
X96108440Y-45899000D01*
X96214794Y-45920155D01*
G37*
M02*
