G04 #@! TF.GenerationSoftware,KiCad,Pcbnew,5.1.5-52549c5~84~ubuntu19.04.1*
G04 #@! TF.CreationDate,2019-12-02T22:34:05+01:00*
G04 #@! TF.ProjectId,XbeeTestBench,58626565-5465-4737-9442-656e63682e6b,rev?*
G04 #@! TF.SameCoordinates,Original*
G04 #@! TF.FileFunction,Paste,Bot*
G04 #@! TF.FilePolarity,Positive*
%FSLAX46Y46*%
G04 Gerber Fmt 4.6, Leading zero omitted, Abs format (unit mm)*
G04 Created by KiCad (PCBNEW 5.1.5-52549c5~84~ubuntu19.04.1) date 2019-12-02 22:34:05*
%MOMM*%
%LPD*%
G04 APERTURE LIST*
%ADD10C,0.100000*%
G04 APERTURE END LIST*
D10*
G36*
X162487004Y-59126204D02*
G01*
X162511273Y-59129804D01*
X162535071Y-59135765D01*
X162558171Y-59144030D01*
X162580349Y-59154520D01*
X162601393Y-59167133D01*
X162621098Y-59181747D01*
X162639277Y-59198223D01*
X162655753Y-59216402D01*
X162670367Y-59236107D01*
X162682980Y-59257151D01*
X162693470Y-59279329D01*
X162701735Y-59302429D01*
X162707696Y-59326227D01*
X162711296Y-59350496D01*
X162712500Y-59375000D01*
X162712500Y-60625000D01*
X162711296Y-60649504D01*
X162707696Y-60673773D01*
X162701735Y-60697571D01*
X162693470Y-60720671D01*
X162682980Y-60742849D01*
X162670367Y-60763893D01*
X162655753Y-60783598D01*
X162639277Y-60801777D01*
X162621098Y-60818253D01*
X162601393Y-60832867D01*
X162580349Y-60845480D01*
X162558171Y-60855970D01*
X162535071Y-60864235D01*
X162511273Y-60870196D01*
X162487004Y-60873796D01*
X162462500Y-60875000D01*
X161537500Y-60875000D01*
X161512996Y-60873796D01*
X161488727Y-60870196D01*
X161464929Y-60864235D01*
X161441829Y-60855970D01*
X161419651Y-60845480D01*
X161398607Y-60832867D01*
X161378902Y-60818253D01*
X161360723Y-60801777D01*
X161344247Y-60783598D01*
X161329633Y-60763893D01*
X161317020Y-60742849D01*
X161306530Y-60720671D01*
X161298265Y-60697571D01*
X161292304Y-60673773D01*
X161288704Y-60649504D01*
X161287500Y-60625000D01*
X161287500Y-59375000D01*
X161288704Y-59350496D01*
X161292304Y-59326227D01*
X161298265Y-59302429D01*
X161306530Y-59279329D01*
X161317020Y-59257151D01*
X161329633Y-59236107D01*
X161344247Y-59216402D01*
X161360723Y-59198223D01*
X161378902Y-59181747D01*
X161398607Y-59167133D01*
X161419651Y-59154520D01*
X161441829Y-59144030D01*
X161464929Y-59135765D01*
X161488727Y-59129804D01*
X161512996Y-59126204D01*
X161537500Y-59125000D01*
X162462500Y-59125000D01*
X162487004Y-59126204D01*
G37*
G36*
X159512004Y-59126204D02*
G01*
X159536273Y-59129804D01*
X159560071Y-59135765D01*
X159583171Y-59144030D01*
X159605349Y-59154520D01*
X159626393Y-59167133D01*
X159646098Y-59181747D01*
X159664277Y-59198223D01*
X159680753Y-59216402D01*
X159695367Y-59236107D01*
X159707980Y-59257151D01*
X159718470Y-59279329D01*
X159726735Y-59302429D01*
X159732696Y-59326227D01*
X159736296Y-59350496D01*
X159737500Y-59375000D01*
X159737500Y-60625000D01*
X159736296Y-60649504D01*
X159732696Y-60673773D01*
X159726735Y-60697571D01*
X159718470Y-60720671D01*
X159707980Y-60742849D01*
X159695367Y-60763893D01*
X159680753Y-60783598D01*
X159664277Y-60801777D01*
X159646098Y-60818253D01*
X159626393Y-60832867D01*
X159605349Y-60845480D01*
X159583171Y-60855970D01*
X159560071Y-60864235D01*
X159536273Y-60870196D01*
X159512004Y-60873796D01*
X159487500Y-60875000D01*
X158562500Y-60875000D01*
X158537996Y-60873796D01*
X158513727Y-60870196D01*
X158489929Y-60864235D01*
X158466829Y-60855970D01*
X158444651Y-60845480D01*
X158423607Y-60832867D01*
X158403902Y-60818253D01*
X158385723Y-60801777D01*
X158369247Y-60783598D01*
X158354633Y-60763893D01*
X158342020Y-60742849D01*
X158331530Y-60720671D01*
X158323265Y-60697571D01*
X158317304Y-60673773D01*
X158313704Y-60649504D01*
X158312500Y-60625000D01*
X158312500Y-59375000D01*
X158313704Y-59350496D01*
X158317304Y-59326227D01*
X158323265Y-59302429D01*
X158331530Y-59279329D01*
X158342020Y-59257151D01*
X158354633Y-59236107D01*
X158369247Y-59216402D01*
X158385723Y-59198223D01*
X158403902Y-59181747D01*
X158423607Y-59167133D01*
X158444651Y-59154520D01*
X158466829Y-59144030D01*
X158489929Y-59135765D01*
X158513727Y-59129804D01*
X158537996Y-59126204D01*
X158562500Y-59125000D01*
X159487500Y-59125000D01*
X159512004Y-59126204D01*
G37*
M02*
